<?xml version="1.0" encoding="utf-8"?>
<!-- Generator: Adobe Illustrator 27.5.0, SVG Export Plug-In . SVG Version: 6.00 Build 0)  -->
<svg version="1.1" xmlns="http://www.w3.org/2000/svg" xmlns:xlink="http://www.w3.org/1999/xlink" x="0px" y="0px"
	 viewBox="0 0 3710 3710" style="enable-background:new 0 0 3710 3710;" xml:space="preserve">
<g id="Background">
	<g>
		<g>
			<rect style="fill:#FFFFFF;" width="3710" height="3710"/>
		</g>
	</g>
</g>
<g id="Illustration">
	<g>
		<path style="fill:#F4F7FA;" d="M1898.567,489.806C1181.779,468.64,560.889,988.739,467.083,1671.174
			C364.521,2417.323,929.014,3088.679,1623.6,3196.206c863.948,133.747,1701.929-639.991,1626.687-1479.382
			C3193.599,1084.417,2627.196,511.322,1898.567,489.806z"/>
		<g>
			<g>
				<g>
					<defs>
						<path id="SVGID_1_" d="M2337.557,573.514c-30.344-21.173-74.493-30.436-111.137-30.024
							c-259.757,2.919-253.096,545.823-203.605,663.21c49.491,117.387,27.099,159.109-171.106,238.932
							s-90.651,193.334-60.018,262.365c30.632,69.031,84.651,125.032-57.818,207.828c-142.469,82.796-87.35,122.315-87.35,122.315
							s296.414,257.232,273.954,168.924c-22.46-88.308-6.205-225.768,238.108-256.178
							c105.231-13.099,262.797-76.756,289.316-192.764c6.176-27.014,8.672-67.705,0.091-94.434
							c-11.905-37.079-39.163-64.828-55.863-99.276c-38.919-80.275,36.617-147.611,78.406-206.836
							c21.816-30.919,43.56-62.58,59.377-97.089c32.839-71.647,12.406-143.916-34.666-203.607
							c-22.572-28.623-53.124-58.452-64.85-93.841c-12.596-38.016-8.748-91.687-9.79-131.776c-0.817-31.439-0.4-62.86-4.735-94.089
							C2407.804,679.085,2388.283,608.909,2337.557,573.514z"/>
					</defs>
					<use xlink:href="#SVGID_1_"  style="overflow:visible;fill:#BFC8D6;"/>
					<clipPath id="SVGID_00000156559116365605792850000008176407112106878853_">
						<use xlink:href="#SVGID_1_"  style="overflow:visible;"/>
					</clipPath>
					<g style="opacity:0.8;clip-path:url(#SVGID_00000156559116365605792850000008176407112106878853_);">
						<g>
							<path style="fill:#FFFFFF;" d="M1637.917,2196.886c-1.715,0.781-3.787,0.196-4.821-1.442
								c-1.131-1.789-0.598-4.156,1.192-5.286c1.098-0.694,111.238-70.702,231.46-180.977
								c110.776-101.61,253.022-259.167,301.598-432.73c40.57-144.96,69.004-381.425,78.012-648.763
								c8.077-239.725-1.994-415.703-16.396-447.343c-0.877-1.927-0.026-4.198,1.9-5.075c1.927-0.877,4.198-0.027,5.075,1.9
								c16.847,37.01,24.349,235.016,17.08,450.775c-9.028,267.924-37.563,505.047-78.29,650.57
								c-49.074,175.344-192.349,334.101-303.899,436.406c-120.717,110.711-231.344,181.017-232.446,181.714
								C1638.23,2196.731,1638.074,2196.814,1637.917,2196.886z"/>
						</g>
						<g>
							<path style="fill:#FFFFFF;" d="M2248.717,973.754c-1.916,0.872-3.973,0.487-4.859-1.426
								c-1.174-2.533-118.719-253.637-247.672-301.918c-1.982-0.741-2.936-2.837-2.193-4.819c0.742-1.982,2.975-2.93,4.957-2.188
								c131.902,49.383,247.005,295.218,251.85,305.677c0.889,1.92-0.133,3.787-2.06,4.664
								C2248.732,973.747,2248.724,973.751,2248.717,973.754z"/>
						</g>
						<g>
							<path style="fill:#FFFFFF;" d="M2226.447,1277.984c-1.43,0.651-3.176,0.374-4.335-0.818c-1.475-1.517-1.44-3.944,0.077-5.418
								c0.657-0.639,66.762-64.609,150.213-120.586c112.755-75.633,201.803-101.475,264.677-76.809
								c1.97,0.772,2.94,2.997,2.167,4.967c-0.775,1.97-2.996,2.94-4.967,2.167c-144.652-56.746-404.145,193.225-406.75,195.756
								C2227.205,1277.559,2226.838,1277.806,2226.447,1277.984z"/>
						</g>
						<g>
							<path style="fill:#FFFFFF;" d="M1968.288,1917.305c-0.375,0.171-0.783,0.282-1.216,0.325
								c-2.106,0.206-3.98-1.335-4.185-3.441c-0.109-1.107-11.202-112.078-44.083-227.26
								c-30.147-105.605-85.231-236.466-176.455-260.168c-2.049-0.533-3.277-2.624-2.745-4.672c0.531-2.049,2.624-3.279,4.672-2.745
								c76.066,19.764,137.275,109.119,181.924,265.581c33.057,115.837,44.204,227.406,44.313,228.52
								C1970.677,1915.117,1969.738,1916.645,1968.288,1917.305z"/>
						</g>
						<g>
							<path style="fill:#FFFFFF;" d="M2111.331,1724.803c-1.501,0.683-3.33,0.337-4.47-0.966c-1.394-1.593-1.232-4.014,0.361-5.406
								c11.547-10.099,284.108-247.189,398.903-236.117c2.107,0.203,3.65,2.076,3.447,4.182c-0.203,2.107-2.075,3.651-4.182,3.447
								c-111.544-10.756-390.32,231.806-393.123,234.256C2111.978,1724.451,2111.663,1724.652,2111.331,1724.803z"/>
						</g>
					</g>
				</g>
			</g>
			<g>
				<g>
					<defs>
						<path id="SVGID_00000010288056659973304000000001480019524441641364_" d="M2817.903,948.865
							c-17.98-30.378-52.655-55.872-84.636-69.998c-226.709-100.134-435.509,373.92-438.931,495.412
							c-3.422,121.492-39.357,148.871-243.015,139.844c-203.658-9.027-155.13,132.049-155.816,204.098
							c-0.686,72.049,24.086,142.027-132.35,157.612c-156.436,15.584-124.194,71.685-124.194,71.685
							s155.715,340.521,171.116,254.963c15.401-85.558,83.847-198.495,308.011-128.336c96.553,30.218,258.533,37.221,327.412-53.031
							c16.04-21.016,34.291-55.363,37.404-81.964c4.318-36.902-8.383-71.772-9.269-108.284
							c-2.065-85.088,90.139-113.703,149.834-148.613c31.164-18.225,62.559-37.123,89.934-60.837
							c56.833-49.234,67.655-120.063,50.374-190.5c-8.287-33.776-23.026-71.753-19.221-107.117
							c4.088-37.989,28.643-83.072,43.583-118.295c11.717-27.622,24.499-54.742,33.077-83.572
							C2837.174,1068.301,2847.96,999.649,2817.903,948.865z"/>
					</defs>
					<use xlink:href="#SVGID_00000010288056659973304000000001480019524441641364_"  style="overflow:visible;fill:#D8DEE8;"/>
					<clipPath id="SVGID_00000171705865372399994710000010702890849861291148_">
						<use xlink:href="#SVGID_00000010288056659973304000000001480019524441641364_"  style="overflow:visible;"/>
					</clipPath>
					<g style="opacity:0.8;clip-path:url(#SVGID_00000171705865372399994710000010702890849861291148_);">
						<g>
							<path style="fill:#FFFFFF;" d="M1568.745,2081.959c-1.798,0-3.365-1.327-3.616-3.158c-0.275-2,1.123-3.845,3.124-4.119
								c1.228-0.169,124.537-17.426,272.516-65.664c136.351-44.447,322.143-125.036,432.924-256.547
								c92.524-109.838,210.677-303.93,324.164-532.508c101.764-204.969,162.575-361.757,162.575-394.923
								c0-2.019,1.636-3.656,3.656-3.656c2.02,0,3.656,1.636,3.656,3.656c0,38.796-71.747,213.696-163.338,398.174
								c-113.736,229.079-232.237,423.702-325.119,533.967c-111.917,132.86-299.077,214.085-436.375,258.83
								c-148.581,48.421-272.43,65.745-273.663,65.914C1569.078,2081.949,1568.91,2081.959,1568.745,2081.959z"/>
						</g>
						<g>
							<path style="fill:#FFFFFF;" d="M2582.566,1263.507c-2.009,0-3.642-2.255-3.656-4.266
								c-0.018-2.663-2.837-267.719-95.729-360.611c-1.428-1.427-1.428-3.901,0-5.328c1.428-1.428,3.741-1.507,5.169-0.079
								c95.016,95.015,97.798,355.014,97.871,366.01c0.013,2.018-1.612,4.274-3.632,4.274
								C2582.582,1263.507,2582.573,1263.507,2582.566,1263.507z"/>
						</g>
						<g>
							<path style="fill:#FFFFFF;" d="M2442.981,1516.663c-1.499,0-2.906-0.931-3.441-2.424c-0.681-1.9,0.308-3.994,2.208-4.674
								c0.823-0.295,83.509-29.714,178.096-45.338c127.802-21.108,215.341-8.351,260.187,37.918
								c1.406,1.449,1.369,3.764-0.081,5.169c-1.452,1.404-3.764,1.369-5.169-0.081c-103.177-106.448-427.305,8.046-430.567,9.214
								C2443.807,1516.594,2443.391,1516.663,2442.981,1516.663z"/>
						</g>
						<g>
							<path style="fill:#FFFFFF;" d="M1966.122,1969.77c-0.393,0-0.791-0.064-1.184-0.199c-1.91-0.653-2.929-2.732-2.274-4.642
								c0.343-1.004,34.572-101.749,51.546-214.761c15.563-103.616,19.454-239.019-50.39-295.656
								c-1.568-1.272-1.809-3.574-0.537-5.142c1.271-1.57,3.575-1.81,5.142-0.537c58.239,47.227,76.071,149.009,53,302.518
								c-17.08,113.651-51.498,214.936-51.844,215.946C1969.061,1968.814,1967.641,1969.77,1966.122,1969.77z"/>
						</g>
						<g>
							<path style="fill:#FFFFFF;" d="M2166.417,1859.152c-1.573,0-3.025-1.023-3.5-2.606c-0.581-1.934,0.516-3.972,2.45-4.552
								c14.018-4.205,344.402-102.349,439.706-47.362c1.749,1.009,2.349,3.245,1.34,4.993c-1.009,1.749-3.245,2.35-4.993,1.34
								c-92.606-53.428-430.549,47.01-433.951,48.03C2167.118,1859.102,2166.765,1859.152,2166.417,1859.152z"/>
						</g>
					</g>
				</g>
			</g>
		</g>
		<g>
			
				<linearGradient id="SVGID_00000170982912464286582430000005110712146254354364_" gradientUnits="userSpaceOnUse" x1="1356.9366" y1="2482.7979" x2="1498.6774" y2="2482.7979">
				<stop  offset="0" style="stop-color:#AB316D"/>
				<stop  offset="1" style="stop-color:#792D3D"/>
			</linearGradient>
			<path style="fill:url(#SVGID_00000170982912464286582430000005110712146254354364_);" d="M1387.17,2747.048L1387.17,2747.048
				c-19.458-2.992-32.806-21.192-29.814-40.65l70.438-458.037c2.992-19.458,21.192-32.806,40.65-29.814h0
				c19.458,2.992,32.806,21.192,29.814,40.65l-70.438,458.037C1424.828,2736.692,1406.628,2750.041,1387.17,2747.048z"/>
			
				<linearGradient id="SVGID_00000085954053156990115470000005490742154419540669_" gradientUnits="userSpaceOnUse" x1="1196.1085" y1="2378.9551" x2="1408.5046" y2="2378.9551">
				<stop  offset="0" style="stop-color:#AB316D"/>
				<stop  offset="1" style="stop-color:#792D3D"/>
			</linearGradient>
			<path style="fill:url(#SVGID_00000085954053156990115470000005490742154419540669_);" d="M1220.912,2633.621L1220.912,2633.621
				c-18.753-5.994-29.095-26.054-23.102-44.806l141.085-441.423c5.993-18.752,26.054-29.095,44.806-23.102l0,0
				c18.752,5.993,29.095,26.054,23.102,44.806l-141.084,441.423C1259.725,2629.271,1239.664,2639.614,1220.912,2633.621z"/>
			
				<linearGradient id="SVGID_00000106146614961317708580000016602105844308921770_" gradientUnits="userSpaceOnUse" x1="1777.5739" y1="2442.0989" x2="2021.6458" y2="2442.0989">
				<stop  offset="0" style="stop-color:#AB316D"/>
				<stop  offset="1" style="stop-color:#792D3D"/>
			</linearGradient>
			<path style="fill:url(#SVGID_00000106146614961317708580000016602105844308921770_);" d="M1999.279,2690.183L1999.279,2690.183
				c-18.268,7.339-39.026-1.521-46.365-19.788l-172.76-430.015c-7.339-18.267,1.52-39.026,19.788-46.365l0,0
				c18.268-7.339,39.026,1.52,46.365,19.788l172.761,430.015C2026.406,2662.085,2017.547,2682.844,1999.279,2690.183z"/>
			<g>
				
					<linearGradient id="SVGID_00000005946335135116148960000002197572058383665081_" gradientUnits="userSpaceOnUse" x1="1396.9485" y1="1510.002" x2="1098.0726" y2="1616.1241">
					<stop  offset="0" style="stop-color:#311944"/>
					<stop  offset="1" style="stop-color:#893976"/>
				</linearGradient>
				<polygon style="fill:url(#SVGID_00000005946335135116148960000002197572058383665081_);" points="1205.267,2416.49 
					1163.186,2387.783 1010.775,814.63 1048.212,795.401 1171.784,1531 				"/>
				
					<linearGradient id="SVGID_00000134936330536090641420000009630152431194591896_" gradientUnits="userSpaceOnUse" x1="1526.5333" y1="2683.884" x2="1543.3146" y2="549.1747" gradientTransform="matrix(1 0 0.1132 0.9962 -105.4464 3.2567)">
					<stop  offset="0" style="stop-color:#FF9085"/>
					<stop  offset="1" style="stop-color:#FB6FBB"/>
				</linearGradient>
				<polygon style="fill:url(#SVGID_00000134936330536090641420000009630152431194591896_);" points="2168.454,2342.754 
					1205.266,2416.491 1048.211,795.4 2024.005,851.783 				"/>
				
					<linearGradient id="SVGID_00000026876196425652699500000002142474827723199137_" gradientUnits="userSpaceOnUse" x1="1328.8501" y1="975.7796" x2="1224.0414" y2="2196.2939" gradientTransform="matrix(1 0 0.1132 0.9962 -105.4464 3.2567)">
					<stop  offset="0" style="stop-color:#FF9085"/>
					<stop  offset="1" style="stop-color:#FB6FBB"/>
				</linearGradient>
				<polygon style="fill:url(#SVGID_00000026876196425652699500000002142474827723199137_);" points="1631.751,1601.426 
					1154.701,912.162 1048.212,795.401 1205.267,2416.49 1288.967,2298.027 				"/>
				
					<linearGradient id="SVGID_00000049939953544456850790000002039378860864197560_" gradientUnits="userSpaceOnUse" x1="1848.3889" y1="1040.3103" x2="1748.8933" y2="2439.4739" gradientTransform="matrix(1 0 0.1132 0.9962 -105.4464 3.2567)">
					<stop  offset="0" style="stop-color:#FF9085"/>
					<stop  offset="1" style="stop-color:#FB6FBB"/>
				</linearGradient>
				<polygon style="fill:url(#SVGID_00000049939953544456850790000002039378860864197560_);" points="1951.86,950.906 
					1631.751,1601.426 2077.244,2245.094 2168.454,2342.754 2024.005,851.783 				"/>
				
					<linearGradient id="SVGID_00000059297214028890256820000001984553386313300150_" gradientUnits="userSpaceOnUse" x1="1085.2654" y1="1608.3735" x2="1991.4802" y2="1608.3735" gradientTransform="matrix(1 0 0.1132 0.9962 -105.4464 3.2567)">
					<stop  offset="0" style="stop-color:#FF9085"/>
					<stop  offset="1" style="stop-color:#FB6FBB"/>
				</linearGradient>
				<polygon style="opacity:0.3;fill:url(#SVGID_00000059297214028890256820000001984553386313300150_);" points="
					1247.282,2357.025 1101.666,854.012 1988.065,901.163 2123.016,2294.103 				"/>
				
					<linearGradient id="SVGID_00000150782705378304701690000012628909059583245958_" gradientUnits="userSpaceOnUse" x1="1133.6547" y1="1607.9482" x2="1949.6235" y2="1607.9482" gradientTransform="matrix(1 0 0.1132 0.9962 -105.4464 3.2567)">
					<stop  offset="0.494" style="stop-color:#EBEFF2"/>
					<stop  offset="1" style="stop-color:#FFFFFF"/>
				</linearGradient>
				<polygon style="fill:url(#SVGID_00000150782705378304701690000012628909059583245958_);" points="1288.967,2298.027 
					1154.701,912.162 1951.86,950.906 2077.244,2245.094 				"/>
			</g>
		</g>
		<g>
			
				<linearGradient id="SVGID_00000183225163906427193730000006777734066406160272_" gradientUnits="userSpaceOnUse" x1="3010.3796" y1="3156.6272" x2="3010.3796" y2="2775.165" gradientTransform="matrix(0.9999 -0.0158 0.0158 0.9999 -351.3937 6.7749)">
				<stop  offset="0" style="stop-color:#311944"/>
				<stop  offset="1" style="stop-color:#893976"/>
			</linearGradient>
			<path style="fill:url(#SVGID_00000183225163906427193730000006777734066406160272_);" d="M2669.357,3043.567
				c0,0,32.33,9.278,57.004,19.565c24.673,10.286,23.726-5.543,19.983-24.407c-3.744-18.864-37.778-7.88-37.778-7.88
				S2653.822,3026.092,2669.357,3043.567z"/>
			
				<linearGradient id="SVGID_00000030458805279635026420000009874334238650941578_" gradientUnits="userSpaceOnUse" x1="-3175.2883" y1="2692.106" x2="-3197.856" y2="3199.8787" gradientTransform="matrix(-0.9994 0.0352 0.0352 0.9994 -532.9072 -10.261)">
				<stop  offset="0" style="stop-color:#FFC444"/>
				<stop  offset="0.9964" style="stop-color:#F36F56"/>
			</linearGradient>
			<path style="fill:url(#SVGID_00000030458805279635026420000009874334238650941578_);" d="M2798.666,2514.073
				c-1.374,50.394-7.659,93.523-15.107,128.731c-8.012,37.876-12.679,44.421-15.179,70.612
				c-5.437,56.992,12.931,65.15,16.303,129.569c3.725,71.131-15.189,127.665-22.625,149.23c-6.5,18.853-13.304,34.077-18.422,44.652
				c-4.375,3.814-10.3,4.087-16.901,3.209c-5.862-0.78-10.336-5.713-10.701-11.615c-3.765-60.905-8.303-118.73-11.98-179.982
				c-12.491-97.057-24.981-194.112-37.472-291.169C2710.61,2542.897,2754.637,2528.487,2798.666,2514.073z"/>
			
				<linearGradient id="SVGID_00000015349719203667247020000011050957887220941706_" gradientUnits="userSpaceOnUse" x1="-3175.2883" y1="2692.106" x2="-3197.856" y2="3199.8784" gradientTransform="matrix(-0.9994 0.0352 0.0352 0.9994 -532.9072 -10.261)">
				<stop  offset="0" style="stop-color:#FFC444"/>
				<stop  offset="0.9964" style="stop-color:#F36F56"/>
			</linearGradient>
			<path style="opacity:0.3;fill:url(#SVGID_00000015349719203667247020000011050957887220941706_);" d="M2715.999,3027.897
				c-3.759-60.698-8.279-118.355-11.946-179.418c-12.491-97.057-24.981-194.112-37.472-291.169
				c44.028-14.414,88.055-28.824,132.084-43.238c-0.091,3.337-0.259,6.555-0.391,9.831c-61.771,53.644-73.861,96.139-73.257,125.124
				c0.732,35.155,19.956,52.582,16.2,103.553c-2.686,36.445-13.642,42.866-13.637,75.754c0.006,42.348,18.182,66.159,27.034,90.629
				c8.555,23.653,11.601,57.152-4.927,104.8c-2.17,4.92-4.221,9.323-6.051,13.103c-4.251,3.705-9.968,4.069-16.345,3.281
				C2721.095,3039.382,2716.385,3034.128,2715.999,3027.897z"/>
			
				<linearGradient id="SVGID_00000012461561601938168580000004412026493446015393_" gradientUnits="userSpaceOnUse" x1="2918.8916" y1="3174.0354" x2="2918.8916" y2="2792.5725" gradientTransform="matrix(0.9999 -0.0158 0.0158 0.9999 -351.3937 6.7749)">
				<stop  offset="0" style="stop-color:#311944"/>
				<stop  offset="1" style="stop-color:#893976"/>
			</linearGradient>
			<path style="fill:url(#SVGID_00000012461561601938168580000004412026493446015393_);" d="M2578.153,3062.419
				c0,0,32.33,9.279,57.003,19.565c24.674,10.287,23.727-5.542,19.983-24.407c-3.743-18.864-37.779-7.88-37.779-7.88
				S2562.617,3044.944,2578.153,3062.419z"/>
			
				<linearGradient id="SVGID_00000137826766589998147190000009142733254866666387_" gradientUnits="userSpaceOnUse" x1="-3083.479" y1="2707.7361" x2="-3106.0466" y2="3215.5083" gradientTransform="matrix(-0.9994 0.0352 0.0352 0.9994 -532.9072 -10.261)">
				<stop  offset="0" style="stop-color:#FFC444"/>
				<stop  offset="0.9964" style="stop-color:#F36F56"/>
			</linearGradient>
			<path style="fill:url(#SVGID_00000137826766589998147190000009142733254866666387_);" d="M2707.462,2532.925
				c-1.374,50.394-7.659,93.523-15.108,128.732c-8.012,37.875-12.679,44.42-15.179,70.611
				c-5.436,56.992,12.931,65.15,16.304,129.569c3.724,71.131-15.19,127.666-22.625,149.23c-6.5,18.853-13.305,34.078-18.423,44.653
				c-4.374,3.813-10.3,4.087-16.901,3.208c-5.862-0.78-10.336-5.712-10.701-11.615c-3.765-60.905-8.303-118.73-11.981-179.982
				c-12.49-97.058-24.981-194.112-37.472-291.169C2619.406,2561.749,2663.434,2547.339,2707.462,2532.925z"/>
			
				<linearGradient id="SVGID_00000016064551860312129920000017279092020793277581_" gradientUnits="userSpaceOnUse" x1="-3083.479" y1="2707.7361" x2="-3106.0466" y2="3215.5083" gradientTransform="matrix(-0.9994 0.0352 0.0352 0.9994 -532.9072 -10.261)">
				<stop  offset="0" style="stop-color:#FFC444"/>
				<stop  offset="0.9964" style="stop-color:#F36F56"/>
			</linearGradient>
			<path style="opacity:0.3;fill:url(#SVGID_00000016064551860312129920000017279092020793277581_);" d="M2624.795,3046.749
				c-3.758-60.697-8.28-118.355-11.946-179.417c-12.49-97.058-24.981-194.112-37.472-291.169
				c44.028-14.414,88.056-28.824,132.084-43.238c-0.091,3.337-0.259,6.555-0.391,9.831c-61.771,53.644-73.86,96.138-73.257,125.124
				c0.732,35.156,19.956,52.582,16.2,103.553c-2.686,36.445-13.642,42.866-13.637,75.754c0.006,42.348,18.182,66.159,27.035,90.63
				c8.554,23.653,11.6,57.152-4.928,104.8c-2.17,4.92-4.222,9.323-6.052,13.104c-4.251,3.705-9.967,4.069-16.344,3.281
				C2629.891,3058.235,2625.181,3052.98,2624.795,3046.749z"/>
			
				<linearGradient id="SVGID_00000075860757731572218760000013521809507326600119_" gradientUnits="userSpaceOnUse" x1="2908.137" y1="2346.4104" x2="2969.8206" y2="2751.761" gradientTransform="matrix(1.0445 0.0221 0.0221 1.1436 -396.1194 -744.0086)">
				<stop  offset="0" style="stop-color:#FF9085"/>
				<stop  offset="1" style="stop-color:#FB6FBB"/>
			</linearGradient>
			<path style="fill:url(#SVGID_00000075860757731572218760000013521809507326600119_);" d="M2631.962,2119.607
				c-51.786,8.673-91.158,18.007-108.248,47.435c-18.051,31.085,12.075,55.408,21.479,124.647
				c14.397,106.001-40.368,144.325-22.33,251.134c2.943,17.431,7.2,32.982,11.715,46.277c7.941,23.381,22.85,43.234,42.147,56.744
				c14.47,10.131,32.021,20.389,52.543,28.623c53.093,21.3,78.864,10.118,149.857,16.055
				c116.121,9.714,134.199,46.909,186.16,25.372c52.515-21.766,89.648-82.8,77.905-109.467c-7.033-15.97-28.062-6.538-58.87-26.611
				c-37.581-24.486-34.778-52.572-66.167-89.909c-45.662-54.312-84.041-28.943-123.204-76.919
				c-27.473-33.656-31.026-73.632-37.222-143.358c-6.596-74.215,4.328-128.653-25.301-144.917
				c-7.121-3.908-15.66-5.992-25.852-5.675C2666.394,2120.28,2636.22,2118.892,2631.962,2119.607z"/>
			
				<linearGradient id="SVGID_00000179647537209157724870000016673992250323234239_" gradientUnits="userSpaceOnUse" x1="2931.3667" y1="2097.2461" x2="2893.2302" y2="2158.9373" gradientTransform="matrix(1 0 0 1 -267.7422 0)">
				<stop  offset="0" style="stop-color:#FFC444"/>
				<stop  offset="0.9964" style="stop-color:#F36F56"/>
			</linearGradient>
			<path style="fill:url(#SVGID_00000179647537209157724870000016673992250323234239_);" d="M2635.117,2084.579l-22.46,51.1
				c0,0,33.179,16.643,63.547,0v-51.1H2635.117z"/>
			
				<linearGradient id="SVGID_00000139292977146219948940000006558513774882493108_" gradientUnits="userSpaceOnUse" x1="5420.7974" y1="3351.5286" x2="5649.9634" y2="3822.7715" gradientTransform="matrix(1.017 -0.2168 0.2394 1.1231 -3840.8796 -398.8012)">
				<stop  offset="0" style="stop-color:#FF9085"/>
				<stop  offset="1" style="stop-color:#FB6FBB"/>
			</linearGradient>
			<path style="opacity:0.3;fill:url(#SVGID_00000139292977146219948940000006558513774882493108_);" d="M2958.424,2675.665
				c-16.285-12.055-8.231-45.083-32.355-63.218c-22.39-16.831-39.192,4.205-71.935-7.402c-41.996-14.89-40.666-58.824-80.924-73.709
				c-28.949-10.703-37.235,9.208-78.692,9.197c-41.386-0.009-96.024-19.866-131.324-68.646
				c-14.999-20.728-23.58-42.682-28.41-62.914c-10.314,38.923-21.604,76.523-11.923,133.852c3.917,23.2,10.163,43.073,16.247,58.728
				c5.676,14.604,15.022,27.244,26.927,36.431c16.207,12.507,37.356,26.103,63.231,36.483
				c53.093,21.302,78.864,10.12,149.857,16.057c116.121,9.712,134.199,46.908,186.16,25.372
				c33.563-13.911,60.767-43.846,73.02-70.612C2993.173,2680.816,2970.242,2684.415,2958.424,2675.665z"/>
			<g>
				
					<linearGradient id="SVGID_00000108278808256380708820000001768111654072655027_" gradientUnits="userSpaceOnUse" x1="-3071.408" y1="2145.2515" x2="-3139.9121" y2="2256.0669" gradientTransform="matrix(-0.9994 0.0352 0.0352 0.9994 -532.9072 -10.261)">
					<stop  offset="0" style="stop-color:#FFC444"/>
					<stop  offset="0.9964" style="stop-color:#F36F56"/>
				</linearGradient>
				<path style="fill:url(#SVGID_00000108278808256380708820000001768111654072655027_);" d="M2619.028,1983.444
					c0,0-28.512,53.523-30.31,91.081c-1.799,37.556,40.586,34.826,40.586,34.826l52.642-1.857
					C2681.946,2107.494,2700.881,1990.425,2619.028,1983.444z"/>
				
					<linearGradient id="SVGID_00000096036606088683253940000001062590127380329914_" gradientUnits="userSpaceOnUse" x1="3053.9695" y1="2252.1267" x2="3272.2744" y2="1785.663" gradientTransform="matrix(1 0 0 1 -267.7422 0)">
					<stop  offset="0" style="stop-color:#444B8C"/>
					<stop  offset="0.9964" style="stop-color:#26264F"/>
				</linearGradient>
				<path style="fill:url(#SVGID_00000096036606088683253940000001062590127380329914_);" d="M2613.585,2063.225
					c-7.717,26.165,4.743,51.506,15.412,73.205c20.758,42.222,74.9,94.627,129.075,88.62c60.477-6.705,67.481-80.269,123.296-82.84
					c46.826-2.158,56.499,48.945,117.516,61.65c77.304,16.095,147.694-48.046,156.046-55.87
					c53.37-50.001,87.953-136.339,59.721-211.916c-2.882-7.714-31.247-80.881-84.766-88.616
					c-45.192-6.53-61.969,40.294-132.929,46.236c-46.365,3.883-54.523-14.825-86.692-3.855
					c-51.168,17.452-45.486,69.887-86.693,80.916c-42.715,11.435-61.623-41.482-140.634-48.163
					c-10.91-0.923-74.596-6.306-92.472,26.969c-7.193,13.391-8.083,35.118,0.888,50.893c9.279,16.316,24.288,17.793,28.009,33.875
					C2621.94,2045.456,2616.635,2052.885,2613.585,2063.225z"/>
			</g>
			
				<linearGradient id="SVGID_00000073697708718105655160000001810561069911755138_" gradientUnits="userSpaceOnUse" x1="3709.2798" y1="3405.2229" x2="3760.0591" y2="3738.9155" gradientTransform="matrix(0.908 -0.4189 0.4189 0.908 -2389.6787 610.1391)">
				<stop  offset="0" style="stop-color:#FF9085"/>
				<stop  offset="1" style="stop-color:#FB6FBB"/>
			</linearGradient>
			<path style="fill:url(#SVGID_00000073697708718105655160000001810561069911755138_);" d="M2297.891,2200.274
				c79.125,57.618,99.591,42.695,125.983,30.88c21.245-9.511,36.589-30.228,99.226-71.007c11.256-7.327,20.736-13.152,27.234-17.071
				c27.567,43.778,63.518,53.226,91.085,97.004c0,0-236.823,208.03-357.983-10.423L2297.891,2200.274z"/>
			
				<linearGradient id="SVGID_00000143599749878978148290000008005920706096630157_" gradientUnits="userSpaceOnUse" x1="2342.8882" y1="2257.2993" x2="1788.1558" y2="1746.5638">
				<stop  offset="0" style="stop-color:#FFC444"/>
				<stop  offset="0.9964" style="stop-color:#F36F56"/>
			</linearGradient>
			<path style="fill:url(#SVGID_00000143599749878978148290000008005920706096630157_);" d="M2296.796,2206.609
				c0,0,0.813-16.656-8.902-27.664c-9.716-11.008-38.207,4.353-40.798,13.833c-2.59,9.479,40.798,31.927,40.798,31.927
				L2296.796,2206.609z"/>
		</g>
		<g>
			<g>
				
					<linearGradient id="SVGID_00000052798617639212916320000002888348784459416503_" gradientUnits="userSpaceOnUse" x1="-1164.3092" y1="867.7364" x2="-436.5278" y2="867.7364" gradientTransform="matrix(-1 0 0 1 2042.2419 0)">
					<stop  offset="0" style="stop-color:#444B8C"/>
					<stop  offset="0.9964" style="stop-color:#26264F"/>
				</linearGradient>
				
					<circle style="fill:url(#SVGID_00000052798617639212916320000002888348784459416503_);" cx="2842.661" cy="867.736" r="363.891"/>
				<g>
					
						<linearGradient id="SVGID_00000165934285277794521210000013517143211105217462_" gradientUnits="userSpaceOnUse" x1="-718.4396" y1="653.4401" x2="-867.9446" y2="1165.7166" gradientTransform="matrix(-1 0 0 1 2042.2419 0)">
						<stop  offset="0" style="stop-color:#AA80F9"/>
						<stop  offset="0.9964" style="stop-color:#6165D7"/>
					</linearGradient>
					
						<circle style="fill:url(#SVGID_00000165934285277794521210000013517143211105217462_);" cx="2815.212" cy="840.287" r="363.891"/>
					<path style="fill:#FFFFFF;" d="M2476.417,840.287c0,187.123,151.67,338.795,338.795,338.795
						c66.717,0,128.949-19.293,181.385-52.635c94.617-60.055,157.409-165.753,157.409-286.159
						c0-187.125-151.67-338.796-338.795-338.796c-3.134,0-6.233,0.033-9.333,0.132
						C2623.076,506.571,2476.417,656.297,2476.417,840.287z"/>
					<g>
						
							<linearGradient id="SVGID_00000142163752944232767540000006974448187371135652_" gradientUnits="userSpaceOnUse" x1="2518.667" y1="777.3461" x2="3127.1973" y2="777.3461" gradientTransform="matrix(1 0 0 1 -7.7206 0)">
							<stop  offset="0" style="stop-color:#AA80F9"/>
							<stop  offset="0.9964" style="stop-color:#6165D7"/>
						</linearGradient>
						<polygon style="fill:url(#SVGID_00000142163752944232767540000006974448187371135652_);" points="2815.212,684.603 
							2510.947,777.346 2815.212,870.089 3119.477,777.346 						"/>
						
							<linearGradient id="SVGID_00000052826436459664263570000004356267734774331278_" gradientUnits="userSpaceOnUse" x1="2631.4363" y1="925.9503" x2="3000.3198" y2="925.9503" gradientTransform="matrix(1 0 0 1 -7.7206 0)">
							<stop  offset="0" style="stop-color:#AA80F9"/>
							<stop  offset="0.9964" style="stop-color:#6165D7"/>
						</linearGradient>
						<path style="fill:url(#SVGID_00000052826436459664263570000004356267734774331278_);" d="M2815.212,886.622l-191.496-58.37
							v133.342c0,21.886,15.305,40.815,36.715,45.354c102.839,21.804,201.724,22.481,296.408,0.713
							c20.974-4.822,35.761-23.615,35.761-45.135V832.553L2815.212,886.622z"/>
						
							<linearGradient id="SVGID_00000107570556743747225500000008976122853677116310_" gradientUnits="userSpaceOnUse" x1="2540.6699" y1="888.4342" x2="2595.0188" y2="888.4342" gradientTransform="matrix(1 0 0 1 -7.7206 0)">
							<stop  offset="0" style="stop-color:#AA80F9"/>
							<stop  offset="0.9964" style="stop-color:#6165D7"/>
						</linearGradient>
						<path style="fill:url(#SVGID_00000107570556743747225500000008976122853677116310_);" d="M2581.419,957.913
							c-16.635,7.39-31.183,7.546-43.644,0.465c-3.643-2.07-5.456-6.327-4.629-10.435l27.081-134.649l26.876,133.631
							C2588.016,951.464,2585.65,956.033,2581.419,957.913z"/>
						
							<linearGradient id="SVGID_00000108309434279797692850000000008007676679546771_" gradientUnits="userSpaceOnUse" x1="2564.0076" y1="799.822" x2="2822.9321" y2="799.822" gradientTransform="matrix(1 0 0 1 -7.7206 0)">
							<stop  offset="0" style="stop-color:#AA80F9"/>
							<stop  offset="0.9964" style="stop-color:#6165D7"/>
						</linearGradient>
						<polygon style="fill:url(#SVGID_00000108309434279797692850000000008007676679546771_);" points="2815.212,763.607 
							2556.287,791.12 2556.287,836.036 2563.96,836.036 2564.748,796.673 						"/>
					</g>
					<path style="opacity:0.6;fill:#FFFFFF;" d="M2476.417,840.287c0,187.123,151.67,338.795,338.795,338.795
						c66.717,0,128.949-19.293,181.385-52.635c-31.858-86.669-123.968-179.703-219.312-238.01
						c-176.504-107.908-42.378-302.881,28.593-386.813C2623.076,506.571,2476.417,656.297,2476.417,840.287z"/>
				</g>
			</g>
		</g>
		<g>
			<g>
				
					<linearGradient id="SVGID_00000103974661573174506310000013112627931540601535_" gradientUnits="userSpaceOnUse" x1="2155.4802" y1="2816.4878" x2="2077.2646" y2="1074.3876">
					<stop  offset="0.0036" style="stop-color:#E38DDD"/>
					<stop  offset="1" style="stop-color:#9571F6"/>
				</linearGradient>
				<path style="fill:url(#SVGID_00000103974661573174506310000013112627931540601535_);" d="M2400.587,1100.821h-609.824
					c-24.349,0-44.086,19.736-44.086,44.083v679.037c0,24.347,19.737,44.083,44.086,44.083h609.824
					c24.346,0,44.083-19.736,44.083-44.083v-679.037C2444.671,1120.558,2424.934,1100.821,2400.587,1100.821z"/>
				<g>
					<path style="fill:#FFFFFF;" d="M2283.723,1487.44c0,13.304,0,24.928,0,37.967c14.716,0,28.475-0.104,42.231,0.025
						c18.751,0.175,31.083,11.031,31.138,27.193c0.055,16.054-12.407,27.138-30.958,27.406c-12.644,0.183-25.29,0.205-37.935,0.361
						c-0.75,0.009-1.492,0.576-3.875,1.557c0,4.466-0.092,9.619,0.015,14.768c0.6,28.966,1.444,57.928,1.812,86.897
						c0.249,19.615-9.732,31.674-28.809,29.607c-24.743-2.682-42.254,6.001-56.366,25.119c-3.357,4.548-7.828,8.306-11.961,12.244
						c-10.897,10.383-24.232,11.799-35.578,3.918c-10.469-7.273-13.778-20.144-8.684-33.793c0.55-1.473,1.116-2.939,2.059-5.418
						c-2.691-0.661-4.866-1.299-7.083-1.722c-15.251-2.911-25.271-15.047-23.882-28.986c1.44-14.435,12.774-24.53,28.596-24.687
						c25.708-0.256,51.419-0.087,77.129-0.144c2.774-0.006,5.547-0.325,9.145-0.55c0-13.456,0-26.368,0-39.28
						c0-12.582,0-25.164,0-39.048c-5.987-0.324-10.692-0.797-15.398-0.8c-66.927-0.047-133.854-0.074-200.781,0.011
						c-12.616,0.016-23.605-2.937-29.801-15.086c-10.055-19.717,4.168-39.476,28.708-39.54c59.173-0.154,118.346-0.048,177.52-0.047
						c12.153,0,24.306,0,36.989,0c0-12.835,0-24.468,0-37.95c-5.373,0-10.092,0-14.811,0c-66.887,0.002-133.774,0.089-200.661-0.039
						c-22.347-0.043-35.466-16.409-29.233-35.861c3.702-11.552,12.958-17.961,27.455-18.098c24.484-0.232,48.977-0.397,73.453,0.09
						c10.762,0.214,17.084-0.628,16.824-14.68c-0.244-13.198-5.812-14.278-16.266-14.038c-23.657,0.545-47.335,0.22-71.004,0.163
						c-20.085-0.049-32.642-10.668-32.191-27.072c0.454-16.533,12.841-26.734,32.772-26.79c24.485-0.069,48.985-0.5,73.449,0.23
						c10.485,0.313,13.313-3.361,12.843-13.276c-0.715-15.065-0.313-30.192-0.113-45.289c0.224-16.898,11.5-28.908,26.711-28.836
						c15.688,0.074,26.65,11.484,26.888,28.626c0.259,18.729,0.059,37.464,0.059,57.757c5.491,0.292,10.174,0.753,14.857,0.757
						c52.643,0.046,105.286-0.079,157.929,0.064c22.775,0.062,36.598,19.552,27.57,38.563c-5.61,11.813-15.64,15.407-28.14,15.358
						c-52.235-0.206-104.472-0.081-156.707-0.063c-13.739,0.005-21.74,12.886-14.574,24.693c1.592,2.623,7.695,3.484,11.729,3.502
						c52.234,0.234,104.471,0.09,156.706,0.284c6.006,0.022,12.424,0.415,17.921,2.533c11.388,4.387,17.524,17.087,15.304,29.003
						c-2.4,12.888-12.75,21.88-26.907,22.298C2314.757,1487.784,2299.671,1487.44,2283.723,1487.44z"/>
					<path style="fill:#FFFFFF;" d="M1904.808,1399.617c-6.641,9.032-13.17,18.151-19.951,27.077
						c-11,14.482-26.449,17.793-39.405,8.643c-13.451-9.5-15.224-25.63-4.039-40.926c41.647-56.956,83.375-113.852,125.183-170.69
						c11.251-15.296,27.01-18.629,40.251-8.98c12.808,9.334,14.23,26.129,3.302,41.158c-12.472,17.155-25.715,33.792-37.34,51.498
						c-4.843,7.376-8.715,16.844-9.033,25.507c-2.488,67.667-3.97,135.371-5.83,203.061c-1.569,57.089-3.192,114.176-4.868,171.263
						c-0.516,17.546-12.333,29.736-27.898,29.096c-16.124-0.663-26.306-12.336-25.832-30.627
						c2.538-97.87,5.254-195.736,7.889-293.603c0.104-3.864,0.014-7.733,0.014-11.599
						C1906.438,1400.203,1905.623,1399.91,1904.808,1399.617z"/>
					<path style="fill:#FFFFFF;" d="M2100.436,1649.982c-0.226,14.141-5.421,22.634-15.614,27.049
						c-9.955,4.312-20.465,3.944-28.557-3.968c-11.06-10.812-21.76-22.109-31.554-34.066c-8.843-10.795-7.059-26.199,2.605-35.57
						c9.495-9.207,24.627-11.117,34.453-2.053c12.527,11.554,23.737,24.606,34.822,37.604
						C2099.471,1642.354,2099.771,1647.933,2100.436,1649.982z"/>
				</g>
				
					<linearGradient id="SVGID_00000137091087453268945080000007020443433553458363_" gradientUnits="userSpaceOnUse" x1="2463.3059" y1="2683.7219" x2="2387.3879" y2="992.8008">
					<stop  offset="0.0036" style="stop-color:#E38DDD"/>
					<stop  offset="1" style="stop-color:#9571F6"/>
				</linearGradient>
				<path style="fill:url(#SVGID_00000137091087453268945080000007020443433553458363_);" d="M2523.572,1922.801l-78.901-231.526
					l-112.723,176.75l181.816,64.464c2.767,0.982,5.852,0.294,7.94-1.769C2523.792,1928.656,2524.518,1925.581,2523.572,1922.801z"
					/>
			</g>
			<g>
				<g>
					
						<linearGradient id="SVGID_00000098923770660139398820000014091746341922560919_" gradientUnits="userSpaceOnUse" x1="1789.1691" y1="942.702" x2="2428.3831" y2="1706.8193">
						<stop  offset="0" style="stop-color:#FFC444"/>
						<stop  offset="0.9964" style="stop-color:#F36F56"/>
					</linearGradient>
					<path style="fill:url(#SVGID_00000098923770660139398820000014091746341922560919_);" d="M2076.622,538.227h-609.824
						c-24.349,0-44.086,19.736-44.086,44.083v679.037c0,24.347,19.737,44.084,44.086,44.084h609.824
						c24.346,0,44.083-19.736,44.083-44.084V582.311C2120.705,557.964,2100.968,538.227,2076.622,538.227z"/>
					<g>
						<path style="fill:#FFFFFF;" d="M1862.808,1070.369H1680.26l-34.705,104.116h-110.712l188.104-505.311h96.477l189.148,505.311
							h-110.711L1862.808,1070.369z M1708.371,986.036h126.327l-63.512-189.146L1708.371,986.036z"/>
					</g>
				</g>
				
					<linearGradient id="SVGID_00000070117458159539469730000012070381182323218350_" gradientUnits="userSpaceOnUse" x1="1412.635" y1="1257.6866" x2="2051.8501" y2="2021.8052">
					<stop  offset="0" style="stop-color:#FFC444"/>
					<stop  offset="0.9964" style="stop-color:#F36F56"/>
				</linearGradient>
				<polygon style="fill:url(#SVGID_00000070117458159539469730000012070381182323218350_);" points="1460.671,1100.821 
					1273.315,1305.432 1534.843,1305.432 				"/>
			</g>
		</g>
		<g>
			
				<linearGradient id="SVGID_00000135674773787478748480000000733348039585191869_" gradientUnits="userSpaceOnUse" x1="6246.4839" y1="1321.2141" x2="6201.835" y2="1498.6344" gradientTransform="matrix(0.9995 0.0321 -0.0321 0.9995 -4603.0586 -117.7824)">
				<stop  offset="0" style="stop-color:#FFC444"/>
				<stop  offset="0.9964" style="stop-color:#F36F56"/>
			</linearGradient>
			<path style="fill:url(#SVGID_00000135674773787478748480000000733348039585191869_);" d="M1581.963,1493.394
				c0,0,10.042-18.57,1.363-42.463c-8.679-23.893-7.468-61.638-11.731-75.944c-1.029-3.452-0.728-5.486,0.375-6.252
				c2.273-1.579,12.027,12.305,17.891,25.731c10.399,23.804,6.739,41.557,12.791,42.917c6.767,1.521,15.092-19.825,19.478-18.267
				c3.399,1.208-0.482,15.014-0.909,28.308c-0.303,9.436-25.407,55.86-25.407,55.86L1581.963,1493.394z"/>
			
				<linearGradient id="SVGID_00000179634735652803286150000000283826880685592970_" gradientUnits="userSpaceOnUse" x1="-449.6379" y1="1583.0061" x2="92.4515" y2="1583.0061" gradientTransform="matrix(-0.9995 -0.0321 -0.0321 0.9995 1204.7643 68.425)">
				<stop  offset="0" style="stop-color:#AA80F9"/>
				<stop  offset="0.9964" style="stop-color:#6165D7"/>
			</linearGradient>
			<path style="fill:url(#SVGID_00000179634735652803286150000000283826880685592970_);" d="M1061.087,1680.914
				c-0.391-23.143-1.246-73.723,27.252-90.435c37.639-22.073,90.129,36.25,150.465,53.529
				c63.437,18.167,167.327,0.061,340.508-177.777c9.809,10.46,19.62,20.921,29.429,31.381
				c-19.224,60.227-67.412,178.38-184.939,261.905c-27.438,19.5-194.135,137.97-294.427,69.684
				C1080.207,1795.724,1061.874,1727.49,1061.087,1680.914z"/>
			
				<linearGradient id="SVGID_00000013894881337458093050000008957604586761388681_" gradientUnits="userSpaceOnUse" x1="-3475.5002" y1="3060.7717" x2="-3389.3003" y2="3060.7717" gradientTransform="matrix(-1 -0.0031 -0.0031 1 -2397.198 -78.3885)">
				<stop  offset="0" style="stop-color:#444B8C"/>
				<stop  offset="0.9964" style="stop-color:#26264F"/>
			</linearGradient>
			<path style="fill:url(#SVGID_00000013894881337458093050000008957604586761388681_);" d="M989.75,2972.982
				c-4.834,3.679-6.007,13.214-6.773,19.448c-0.344,2.784-0.514,4.177-0.234,5.174c2.046,7.267,15.975,8.471,37.784,11.408
				c34.464,4.64,44.667,7.692,47.537,2.633c2.691-4.741-3.193-12.833-3.856-13.726c-3.566-4.799-8.071-6.647-16.795-9.832
				c-16.141-5.892-27.069-9.186-30.378-10.182C996.375,2971.673,992.925,2970.567,989.75,2972.982z"/>
			
				<linearGradient id="SVGID_00000026144101923361282300000014629195446913288066_" gradientUnits="userSpaceOnUse" x1="-3040.8999" y1="3490.4016" x2="-3003.0823" y2="3412.1277" gradientTransform="matrix(-0.9959 0.0907 0.0907 0.9959 -2325.6211 -207.4867)">
				<stop  offset="0" style="stop-color:#FFC444"/>
				<stop  offset="0.9964" style="stop-color:#F36F56"/>
			</linearGradient>
			<path style="fill:url(#SVGID_00000026144101923361282300000014629195446913288066_);" d="M1011.326,2942.052l2.198,39.513
				c-1.044,1.871-12.938,7.203-22.084,2.011l-7.65-39.016L1011.326,2942.052z"/>
			
				<linearGradient id="SVGID_00000083052966138933228480000003574495282839454374_" gradientUnits="userSpaceOnUse" x1="-2896.6184" y1="4115.8325" x2="-2805.0349" y2="4115.8325" gradientTransform="matrix(-0.9722 0.234 0.234 0.9722 -2401.5415 -356.639)">
				<stop  offset="0" style="stop-color:#444B8C"/>
				<stop  offset="0.9964" style="stop-color:#26264F"/>
			</linearGradient>
			<path style="fill:url(#SVGID_00000083052966138933228480000003574495282839454374_);" d="M1292.562,2965.261
				c-5.847,6.054-7.502,17.496-2.774,23.31c4.648,5.717,12.04,1.778,32.602,3.053c22.027,1.367,27.616,6.759,42.732,3.106
				c6.106-1.479,16.927-5.194,16.863-9.523c-0.045-3.044-5.437-4.789-23.42-11.462c-25.525-9.472-25.396-9.94-30.846-11.024
				C1314.03,2960,1300.284,2957.267,1292.562,2965.261z"/>
			
				<linearGradient id="SVGID_00000075127246075664929510000000676467926738563743_" gradientUnits="userSpaceOnUse" x1="-3121.7146" y1="3826.6489" x2="-3083.0928" y2="3746.7112" gradientTransform="matrix(-0.986 0.1664 0.1664 0.986 -2392.2334 -274.3142)">
				<stop  offset="0" style="stop-color:#FFC444"/>
				<stop  offset="0.9964" style="stop-color:#F36F56"/>
			</linearGradient>
			<path style="fill:url(#SVGID_00000075127246075664929510000000676467926738563743_);" d="M1307.843,2929.755l9.878,37.139
				c-0.899,1.947-12.352,8.167-21.866,3.688l-15.277-36.229L1307.843,2929.755z"/>
			
				<linearGradient id="SVGID_00000016767922403555824060000017127761338822582682_" gradientUnits="userSpaceOnUse" x1="6046.4688" y1="2742.0767" x2="5802.208" y2="2191.4548" gradientTransform="matrix(0.9995 0.0321 -0.0321 0.9995 -4603.0586 -117.7824)">
				<stop  offset="0" style="stop-color:#311944"/>
				<stop  offset="0.7407" style="stop-color:#5C3169"/>
				<stop  offset="1" style="stop-color:#6B3976"/>
			</linearGradient>
			<path style="fill:url(#SVGID_00000016767922403555824060000017127761338822582682_);" d="M1235.448,2120.976
				c-2.384,123.673,1.59,262.942,16.984,414.605c15.214,149.896,38.921,285.653,65.695,405.223
				c-14.231,3.343-28.462,6.686-42.692,10.029c-34.723-34.526-78.191-88.515-97.596-163.462
				c-12.044-46.517-6.777-70.052-13.535-127.009c-10.761-90.687-36.908-138.857-63.165-212.551
				c-23.595-66.221-50.886-163.172-63.053-291.984C1103.875,2144.211,1169.662,2132.593,1235.448,2120.976z"/>
			
				<linearGradient id="SVGID_00000108282273561140738340000014318883936368617386_" gradientUnits="userSpaceOnUse" x1="6046.4692" y1="2742.0764" x2="5802.2085" y2="2191.4548" gradientTransform="matrix(0.9995 0.0321 -0.0321 0.9995 -4603.0586 -117.7824)">
				<stop  offset="0" style="stop-color:#311944"/>
				<stop  offset="0.7407" style="stop-color:#5C3169"/>
				<stop  offset="1" style="stop-color:#6B3976"/>
			</linearGradient>
			<path style="opacity:0.3;fill:url(#SVGID_00000108282273561140738340000014318883936368617386_);" d="M1235.449,2120.976
				c-39.478,28.14-88.86,72.925-89.137,128.792c-0.206,41.456,26.82,49.95,45.135,111.021c22.456,74.88-8.462,94.498,6.111,188.903
				c10.847,70.265,27.406,55.708,44.159,141.426c14.917,76.323,6.123,110.035,31.021,171.44
				c14.327,35.335,32.43,61.638,45.391,78.247c-14.23,3.343-28.462,6.686-42.692,10.029
				c-34.723-34.525-78.191-88.515-97.596-163.462c-12.043-46.517-6.777-70.052-13.536-127.009
				c-10.76-90.687-36.907-138.857-63.164-212.551c-23.596-66.221-50.886-163.172-63.053-291.984
				C1103.876,2144.211,1169.663,2132.593,1235.449,2120.976z"/>
			
				<linearGradient id="SVGID_00000057114960746867509950000009572157988023928195_" gradientUnits="userSpaceOnUse" x1="5443.5381" y1="3365.761" x2="5199.2808" y2="2815.147" gradientTransform="matrix(0.9959 -0.0907 0.0907 0.9959 -4523.2822 -7.5669)">
				<stop  offset="0" style="stop-color:#311944"/>
				<stop  offset="0.7407" style="stop-color:#5C3169"/>
				<stop  offset="1" style="stop-color:#6B3976"/>
			</linearGradient>
			<path style="fill:url(#SVGID_00000057114960746867509950000009572157988023928195_);" d="M1079.995,2116.547
				c-13.673,156.95-25.907,316.875-36.512,479.693c-7.959,122.178-14.794,242.839-20.583,361.942
				c-14.469,1.318-28.938,2.636-43.408,3.952c-13.094-26.374-30.321-66.606-41.364-117.818
				c-13.412-62.199-8.674-98.729-13.374-162.899c-5.274-71.971-15.772-87.95-32.358-179.059
				c-33.662-184.902-50.494-277.355-4.55-333.056C902.761,2151.218,949.145,2106.144,1079.995,2116.547z"/>
			
				<linearGradient id="SVGID_00000078020287833860685210000008208324993491752083_" gradientUnits="userSpaceOnUse" x1="-5626.2544" y1="1309.3915" x2="-4765.9116" y2="1893.7749" gradientTransform="matrix(-0.9756 -0.0372 -0.0261 0.9982 -4245.0815 -137.9776)">
				<stop  offset="0" style="stop-color:#311944"/>
				<stop  offset="1" style="stop-color:#6B3976"/>
			</linearGradient>
			<path style="fill:url(#SVGID_00000078020287833860685210000008208324993491752083_);" d="M1155.481,1686.885
				c16.063-9.873,2.475-40.892,3.339-106.375c1.059-80.245,22.269-94.396,6.372-126.501c-19.44-39.258-70.494-57.144-104.575-59.196
				c-7.517-0.451-9.165-4.721-72.612,9.572c-114.309,25.752-141.884-7.579-193.564,22.693
				c-49.931,29.25-29.316,64.154-77.967,98.832c-78.859,56.214-158.48-10.849-215.029,36.531
				c-53.489,44.815-57.816,164.027-4.549,231.207c60.385,76.156,173.335,58.276,249.036,46.519
				c15.927-2.473,96.417-16.618,181.401-76.375c47.013-33.061,79.641-69.034,100.497-95.66c4.869-5.263,12.417-11.576,22.181-12.266
				c11.722-0.831,20.92,6.843,25.361,10.222C1098.69,1683.83,1139.7,1696.581,1155.481,1686.885z"/>
			<g>
				<g>
					
						<linearGradient id="SVGID_00000148660149429138034030000002654620868034302850_" gradientUnits="userSpaceOnUse" x1="-145.7453" y1="1875.7943" x2="431.9162" y2="1875.7943" gradientTransform="matrix(-0.9995 -0.0321 -0.0321 0.9995 1204.7643 68.425)">
						<stop  offset="0" style="stop-color:#AA80F9"/>
						<stop  offset="0.9964" style="stop-color:#6165D7"/>
					</linearGradient>
					<path style="fill:url(#SVGID_00000148660149429138034030000002654620868034302850_);" d="M1097.987,1598.539
						c0,0-133.834-43.736-195.495,21.708c-9.6,10.189-19.481,25.331-27.771,59.186c-29.089,118.783,36.747,163.539,24.088,271.76
						c-1.45,12.397-17.011,131.345-106.022,201.901c-42.33,33.553-89.766,47.043-89.602,78.001
						c0.118,22.286,24.85,43.388,48.124,51.315c44.529,15.168,71.984-21.889,131.71-33.1c62.42-11.717,75.759,20.626,173.021,36.66
						c32.373,5.337,180.142,29.698,218.719-30.307c16.418-25.537-2.267-42.515-26.287-150.156
						c-2.43-10.886-43.919-200.03-26.916-281.325c1.474-7.048,6.594-35.645,6.579-73.797c-0.004-9.443-0.855-20.012-3.162-32.667
						c0,0-9.772-53.627-49.728-100.69C1169.507,1610.272,1162.639,1603.207,1097.987,1598.539z"/>
				</g>
			</g>
			<g style="opacity:0.3;">
				<g>
					
						<linearGradient id="SVGID_00000030482948557350692980000013599777802322243250_" gradientUnits="userSpaceOnUse" x1="-145.0611" y1="1895.5088" x2="431.9162" y2="1895.5088" gradientTransform="matrix(-0.9995 -0.0321 -0.0321 0.9995 1204.7643 68.425)">
						<stop  offset="0" style="stop-color:#AA80F9"/>
						<stop  offset="0.9964" style="stop-color:#6165D7"/>
					</linearGradient>
					<path style="fill:url(#SVGID_00000030482948557350692980000013599777802322243250_);" d="M902.491,1620.248
						c-13.611-0.589-25.924,51.643-27.771,59.186c-29.089,118.783,36.747,163.539,24.088,271.76
						c-1.45,12.397-17.011,131.345-106.022,201.901c-42.33,33.554-89.767,47.044-89.602,78.001
						c0.117,22.286,24.85,43.388,48.124,51.315c44.529,15.168,71.984-21.889,131.711-33.1
						c62.419-11.717,75.759,20.625,173.021,36.66c32.373,5.337,180.142,29.698,218.719-30.307c3.984-6.197,5.5-8.916,5.216-11.626
						c-3.134-29.866-141.39-7.232-174.082-62.526c-31.94-54.02,58.269-146.242,29.985-175.569
						c-22.089-22.905-81.943,28.338-127.897,1.982c-28.823-16.53-32.514-52.308-44.549-129.263
						C942.298,1743.538,923.154,1621.141,902.491,1620.248z"/>
				</g>
			</g>
			<g>
				
					<linearGradient id="SVGID_00000038397764094206659500000008157237494071928997_" gradientUnits="userSpaceOnUse" x1="7036.9912" y1="-275.2835" x2="6860.436" y2="-585.1747" gradientTransform="matrix(0.9778 0.2099 -0.2099 0.9778 -6112.5283 -410.4727)">
					<stop  offset="0" style="stop-color:#FFC444"/>
					<stop  offset="0.9964" style="stop-color:#F36F56"/>
				</linearGradient>
				<path style="fill:url(#SVGID_00000038397764094206659500000008157237494071928997_);" d="M1057.423,1509.519
					c1.555,8.606,9.396,54.774-9.75,65.973c-4.149,2.429-12.013,3.643-27.742,6.072c-10.297,1.589-18.922,2.49-25.003,3.02
					c0.629,7.719,2.817,20.322,11.328,31.995c23.857,32.722,74.014,26.063,81.17,24.994c25.242-3.764,50.186-10.725,56.302-15.272
					c9.312-6.925,16.626-12.11,21.026-17.473c-9.562-5.005-28.771-18.011-41.799-22.484c-9.737-3.341-18.898-5.796-27.245-7.615
					c-1.094-8.905-2.192-17.809-3.288-26.715C1080.755,1537.847,1069.089,1523.684,1057.423,1509.519z"/>
				
					<linearGradient id="SVGID_00000078024088706754087780000000447092551303060395_" gradientUnits="userSpaceOnUse" x1="7069.667" y1="-293.9067" x2="6893.1108" y2="-603.7996" gradientTransform="matrix(0.9778 0.2099 -0.2099 0.9778 -6112.5283 -410.4727)">
					<stop  offset="0" style="stop-color:#FFC444"/>
					<stop  offset="0.9964" style="stop-color:#F36F56"/>
				</linearGradient>
				<path style="fill:url(#SVGID_00000078024088706754087780000000447092551303060395_);" d="M1055.81,1532.35
					c0,0,2.313,33.723,34.797,40.695c29.086,6.243,53.379-63.748,38.993-82.516c-4.798-6.26-16.942-12.459-27.641-12.495
					c-7.525-0.023-33.226,8.832-37.586,34.124c-4.885-5.49-11.138-7.223-14.316-5.092c-4.033,2.703-2.186,11-1.766,12.879
					C1049.743,1526.457,1053.832,1530.596,1055.81,1532.35z"/>
			</g>
			<g>
				<path style="fill:#26264F;" d="M1090.32,2079.628l98.349-222.693c6.652-15.063-0.905-32.603-16.422-38.114l-178.449-63.38
					c-10.358-2.709-21.14,2.563-25.363,12.401l-100.801,234.862c-5.019,11.695,1.089,25.176,13.192,29.113l183.05,59.544
					C1074.394,2094.784,1085.799,2089.723,1090.32,2079.628z"/>
			</g>
			
				<linearGradient id="SVGID_00000134231270415688061820000014596345693630168199_" gradientUnits="userSpaceOnUse" x1="5796.6104" y1="1852.7833" x2="5769.4077" y2="2015.9985" gradientTransform="matrix(0.9995 0.0321 -0.0321 0.9995 -4603.0586 -117.7824)">
				<stop  offset="0" style="stop-color:#FFC444"/>
				<stop  offset="0.2327" style="stop-color:#FCB048"/>
				<stop  offset="0.9964" style="stop-color:#F36F56"/>
			</linearGradient>
			<path style="fill:url(#SVGID_00000134231270415688061820000014596345693630168199_);" d="M1082.904,1949.455
				c0,0,18.634-11.576,19.024-23.738c0.39-12.162,13.138-30.015,19.219-29.82c6.081,0.195,5.886,6.276-0.586,18.243
				c-6.471,11.967,24.129,6.861,36.682-4.91s24.714-11.381,18.438-5.496c-9.923,9.307-12.748,17.853-12.748,17.853
				s-13.724,48.258-66.835,43.51L1082.904,1949.455z"/>
			
				<linearGradient id="SVGID_00000109747011303905521680000001310583835962787494_" gradientUnits="userSpaceOnUse" x1="43.1638" y1="1755.3287" x2="409.4004" y2="1755.3287" gradientTransform="matrix(-0.9995 -0.0321 -0.0321 0.9995 1204.7643 68.425)">
				<stop  offset="0" style="stop-color:#AA80F9"/>
				<stop  offset="0.9964" style="stop-color:#6165D7"/>
			</linearGradient>
			<path style="fill:url(#SVGID_00000109747011303905521680000001310583835962787494_);" d="M966.328,1598.737
				c-38.344-18.604-105.725,50.853-117.687,63.183c-63.465,65.419-155.342,215.388-89.009,307.595
				c55.34,76.926,209.855,98.442,340.734,4.85c-5.691-12.357-11.382-24.714-17.072-37.072
				c-13.42,4.384-101.608,31.775-163.798-17.432c-13.193-10.439-33.478-26.49-34.924-49.82
				c-2.695-43.471,63.59-54.704,95.119-118.693C1007.599,1694.71,999.39,1614.779,966.328,1598.737z"/>
		</g>
		<g>
			
				<linearGradient id="SVGID_00000128483693586541840630000007070722392121596584_" gradientUnits="userSpaceOnUse" x1="2072.447" y1="2395.9829" x2="1862.5236" y2="1994.8082">
				<stop  offset="0" style="stop-color:#FFC444"/>
				<stop  offset="0.9964" style="stop-color:#F36F56"/>
			</linearGradient>
			<path style="fill:url(#SVGID_00000128483693586541840630000007070722392121596584_);" d="M1987.52,2244.104
				c0.319-3.188,6.695-25.824,1.913-35.707c-4.782-9.883-7.651-58.98-11.796-47.822c-4.145,11.158-1.594,28.693-1.594,28.693
				s-35.707,1.594-32.2,16.897c3.507,15.303,13.41,22.475,17.694,27.737c4.284,5.261,4.145,15.941,4.145,16.578
				C1965.682,2251.118,1987.52,2244.104,1987.52,2244.104z"/>
			<g>
				
					<linearGradient id="SVGID_00000143603676687470014750000002562442229458810044_" gradientUnits="userSpaceOnUse" x1="2947.6919" y1="3085.8201" x2="2964.6299" y2="3390.7051" gradientTransform="matrix(1 0 0 1 -571.8924 0)">
					<stop  offset="0" style="stop-color:#444B8C"/>
					<stop  offset="0.9964" style="stop-color:#26264F"/>
				</linearGradient>
				<path style="fill:url(#SVGID_00000143603676687470014750000002562442229458810044_);" d="M2418.229,3194.232
					c0,0,2.118,16.854,0.696,22.5c-1.422,5.647-50.426,9.727-67.06,7.764c-16.633-1.964,9.907-18.954,20.505-22.143
					C2382.97,3199.165,2418.229,3194.232,2418.229,3194.232z"/>
				
					<linearGradient id="SVGID_00000183233724467208162690000000172050534198767495_" gradientUnits="userSpaceOnUse" x1="-1497.3297" y1="3183.5933" x2="-1471.9661" y2="3183.5933" gradientTransform="matrix(-1 0 0 1 921.5962 0)">
					<stop  offset="0" style="stop-color:#FFC444"/>
					<stop  offset="0.9964" style="stop-color:#F36F56"/>
				</linearGradient>
				<path style="fill:url(#SVGID_00000183233724467208162690000000172050534198767495_);" d="M2393.562,3166.115l5.165,33.814
					c0,0,13.171,5.92,19.503,0.07l0.696-35.395L2393.562,3166.115z"/>
				
					<linearGradient id="SVGID_00000150087790157532637120000014729854677548061117_" gradientUnits="userSpaceOnUse" x1="-1535.0077" y1="2860.7825" x2="-1364.8473" y2="2860.7825" gradientTransform="matrix(-1 0 0 1 921.5962 0)">
					<stop  offset="0" style="stop-color:#444B8C"/>
					<stop  offset="0.9964" style="stop-color:#26264F"/>
				</linearGradient>
				<path style="fill:url(#SVGID_00000150087790157532637120000014729854677548061117_);" d="M2290.939,2542.033
					c-3.587,35.215-7.027,89.872-1.883,156.209c6.706,86.427,23.988,141.116,45.661,233.268
					c13.245,56.316,31.091,139.204,47.243,242.866c3.747,2.146,14.772,7.785,28.965,5.68c7.948-1.18,13.892-4.341,17.401-6.611
					c42.375-129.484,29.86-209.724,9.409-259.717c-8.717-21.311-19.285-38.123-24.933-70.879
					c-7.474-43.338,1.767-67.565,14.947-167.953c9.395-71.55,7.77-82.611,1.518-93.341
					C2404.282,2538.652,2327.86,2539.491,2290.939,2542.033z"/>
			</g>
			
				<linearGradient id="SVGID_00000103985071435842896530000000201278323419884947_" gradientUnits="userSpaceOnUse" x1="5719.9473" y1="1362.0496" x2="5689.9912" y2="1617.4661" gradientTransform="matrix(-0.9637 0.2668 0.2668 0.9637 7369.9453 -840.9853)">
				<stop  offset="0" style="stop-color:#FFC444"/>
				<stop  offset="0.9964" style="stop-color:#F36F56"/>
			</linearGradient>
			<path style="fill:url(#SVGID_00000103985071435842896530000000201278323419884947_);" d="M2320.246,2145.129
				c-0.107,14.267,11.653,25.806,25.913,25.331c17.272-0.576,38.49-0.636,48.356,1.879c18.11,4.618-48.003,11.798-106.561,26.543
				c-36.557,9.206-64.828,12.645-80.91,13.929c-4.319,0.344-6.219-5.29-2.609-7.678c13.229-8.756,28.415-21.313,47.696-29.354
				c23.87-9.957,41.802-72.827,41.802-72.827l26.526,13.384L2320.246,2145.129z"/>
			
				<linearGradient id="SVGID_00000051372663029099776570000006897108448187367601_" gradientUnits="userSpaceOnUse" x1="-588.567" y1="2089.4893" x2="-566.4376" y2="3005.6394" gradientTransform="matrix(-1 0 0 1 1721.4648 0)">
				<stop  offset="0" style="stop-color:#FFC444"/>
				<stop  offset="0.9964" style="stop-color:#F36F56"/>
			</linearGradient>
			<path style="fill:url(#SVGID_00000051372663029099776570000006897108448187367601_);" d="M2354.49,2107.841
				c0,0-37.515,42.612-94.787,28.636c-51.282-12.517-38.386-130.187-0.902-149.039c12.503-6.288,35.244-5.807,52.357,2.409
				c10.107,4.852,12.928,9.904,29.597,17.513c15.374,7.015,20.244,6.031,24.383,10.983c5.184,6.19,7.427,19.529-8.721,51.748
				c11.661-8.28,24.221-10.031,31.935-4.575c1.232,0.871,4.369,3.921,5.724,7.946
				C2398.988,2088.028,2383.866,2102.86,2354.49,2107.841z"/>
			
				<linearGradient id="SVGID_00000045577033777569743820000000712018578593255084_" gradientUnits="userSpaceOnUse" x1="2821.6982" y1="3094.4282" x2="2838.636" y2="3399.3127" gradientTransform="matrix(1 0 0 1 -571.8924 0)">
				<stop  offset="0" style="stop-color:#444B8C"/>
				<stop  offset="0.9964" style="stop-color:#26264F"/>
			</linearGradient>
			<path style="fill:url(#SVGID_00000045577033777569743820000000712018578593255084_);" d="M2292.236,3202.84
				c0,0,2.119,16.854,0.697,22.5c-1.422,5.647-50.426,9.727-67.06,7.764c-16.634-1.964,9.907-18.954,20.505-22.143
				C2256.976,3207.773,2292.236,3202.84,2292.236,3202.84z"/>
			
				<linearGradient id="SVGID_00000026877876697974593440000003918478842172620214_" gradientUnits="userSpaceOnUse" x1="-1371.3359" y1="3192.2012" x2="-1345.9723" y2="3192.2012" gradientTransform="matrix(-1 0 0 1 921.5962 0)">
				<stop  offset="0" style="stop-color:#FFC444"/>
				<stop  offset="0.9964" style="stop-color:#F36F56"/>
			</linearGradient>
			<path style="fill:url(#SVGID_00000026877876697974593440000003918478842172620214_);" d="M2267.569,3174.723l5.165,33.814
				c0,0,13.171,5.92,19.502,0.07l0.697-35.395L2267.569,3174.723z"/>
			
				<linearGradient id="SVGID_00000021080749755647935070000004429848154745014698_" gradientUnits="userSpaceOnUse" x1="-1409.0139" y1="2869.3904" x2="-1238.8535" y2="2869.3904" gradientTransform="matrix(-1 0 0 1 921.5962 0)">
				<stop  offset="0" style="stop-color:#444B8C"/>
				<stop  offset="0.9964" style="stop-color:#26264F"/>
			</linearGradient>
			<path style="fill:url(#SVGID_00000021080749755647935070000004429848154745014698_);" d="M2164.945,2550.641
				c-3.587,35.215-7.027,89.872-1.883,156.209c6.706,86.427,23.988,141.116,45.661,233.268
				c13.245,56.316,31.091,139.204,47.243,242.866c3.748,2.146,14.772,7.785,28.965,5.68c7.948-1.18,13.892-4.341,17.401-6.611
				c42.374-129.484,29.86-209.724,9.409-259.717c-8.717-21.311-19.285-38.122-24.933-70.879
				c-7.475-43.338,1.767-67.565,14.947-167.953c9.396-71.55,7.77-82.611,1.518-93.341
				C2278.288,2547.26,2201.866,2548.099,2164.945,2550.641z"/>
			
				<linearGradient id="SVGID_00000054946093289363265650000016886916590080623543_" gradientUnits="userSpaceOnUse" x1="2291.0703" y1="1897.3363" x2="2336.8906" y2="2198.5481">
				<stop  offset="0" style="stop-color:#311944"/>
				<stop  offset="1" style="stop-color:#6B3976"/>
			</linearGradient>
			<path style="fill:url(#SVGID_00000054946093289363265650000016886916590080623543_);" d="M2395.908,1998.689
				c-14.474-10.224-24.615-28.297-37.264-40.814c-13.315-13.177-28.505-24.939-46.439-30.988
				c-29.403-9.915-64.631-4.175-92.462,8.291c-12.341,5.528-26.948,11.926-33.561,24.578c-10.105,19.342,5.657,38.124,22.2,46.854
				c0.308,0.163,0.616,0.321,0.924,0.477c12.297,6.2,41.613,5.745,44.35,23.271c0.578,3.703,5.598,49.253,9.765,45.82
				c5.833-4.805,2.922-26.212,10.716-26.962c5.962-0.572,9.606,14.813,10.058,18.55c0.901,7.432-1.884,20.156-9.694,23.811
				c-11.643,5.446,5.07,43.976,32.112,47.716c27.041,3.738,40.242-15.478,56.278-23.349c16.035-7.871,71.793-35.634,71.042-64.553
				C2433.322,2027.858,2413.513,2011.124,2395.908,1998.689z"/>
			
				<linearGradient id="SVGID_00000131356152424410849700000004962925390564516276_" gradientUnits="userSpaceOnUse" x1="2560.668" y1="2891.2627" x2="1850.9886" y2="1535.0282">
				<stop  offset="0" style="stop-color:#AA80F9"/>
				<stop  offset="0.9964" style="stop-color:#6165D7"/>
			</linearGradient>
			<path style="fill:url(#SVGID_00000131356152424410849700000004962925390564516276_);" d="M2450,2516.93
				c-0.65,21.31,1.608,38.831,6.62,56.813c14.537,52.297-12.243,95.031-130.191,108.421
				c-117.985,13.39-197.675-21.692-195.112-121.811c2.335-92.315,17.139-124.375,8.914-176.635
				c-0.689-4.399-1.53-8.913-2.563-13.658c-13.39-60.906-18.555-115.689-8.952-130.649c0,0,0.267-0.688,0.878-1.874
				c5.778-11.209,41.166-68.902,163.093-77.548c135.124-9.603,229.467,14.615,193.773,163.818
				C2463.046,2421.707,2451.225,2476.223,2450,2516.93z"/>
			
				<linearGradient id="SVGID_00000152256286813392617300000013304343112958613164_" gradientUnits="userSpaceOnUse" x1="2318.9148" y1="2611.9749" x2="1953.3063" y2="1913.2777">
				<stop  offset="0" style="stop-color:#AA80F9"/>
				<stop  offset="0.9964" style="stop-color:#6165D7"/>
			</linearGradient>
			<path style="opacity:0.2;fill:url(#SVGID_00000152256286813392617300000013304343112958613164_);" d="M2326.429,2682.163
				c-117.985,13.39-197.675-21.692-195.112-121.811c2.335-92.315,17.139-124.375,8.914-176.635c7.804-3.749,15.992-2.601,24.6,4.63
				c0,0,31.14,7.919,37.721,94.61c6.542,86.653,37.148,126.823,139.486,73.262c43.269-22.648,80.684-36.804,107.961-39.29
				c-0.65,21.31,1.608,38.831,6.62,56.813C2471.157,2626.04,2444.377,2668.773,2326.429,2682.163z"/>
			
				<linearGradient id="SVGID_00000019654588989595511470000012739369013748029872_" gradientUnits="userSpaceOnUse" x1="2432.2568" y1="2958.4524" x2="1722.5841" y2="1602.2307">
				<stop  offset="0" style="stop-color:#AA80F9"/>
				<stop  offset="0.9964" style="stop-color:#6165D7"/>
			</linearGradient>
			<path style="fill:url(#SVGID_00000019654588989595511470000012739369013748029872_);" d="M2190.531,2184.653
				c0,0-118.525,40.96-128.09,130.227c-9.564,89.267-65.037-40.808-67.588-82.253c0,0-38.895,8.927-40.808,8.927
				s14.665,216.792,78.427,237.833s121.848-55.664,140.915-112.221C2203.695,2277.26,2203.21,2187.69,2190.531,2184.653z"/>
		</g>
	</g>
</g>
</svg>
