<?xml version="1.0" encoding="utf-8"?>
<!-- Generator: Adobe Illustrator 27.5.0, SVG Export Plug-In . SVG Version: 6.00 Build 0)  -->
<svg version="1.1" xmlns="http://www.w3.org/2000/svg" xmlns:xlink="http://www.w3.org/1999/xlink" x="0px" y="0px"
	 viewBox="0 0 3710 3710" style="enable-background:new 0 0 3710 3710;" xml:space="preserve">
<g id="Background">
	<g>
		<g>
			<rect style="fill:#FFFFFF;" width="3710" height="3710"/>
		</g>
	</g>
</g>
<g id="Illustration">
	<g>
		<linearGradient id="SVGID_1_" gradientUnits="userSpaceOnUse" x1="3416.2056" y1="3613.0554" x2="1365.4946" y2="1399.5894">
			<stop  offset="0" style="stop-color:#DAE3FE"/>
			<stop  offset="1" style="stop-color:#E9EFFD"/>
		</linearGradient>
		<path style="fill:url(#SVGID_1_);" d="M3125.572,2353.436c-280.683,660.843-1021.597,944.69-1602.113,896.294
			c-158.505-13.214-477.42-39.802-726.431-276.999c-478.21-455.522-404.561-1407.69,53.223-1968.273
			c58.953-72.191,467.018-555.867,1102.91-549.393c465.566,4.74,792.342,269.648,832.076,302.65
			c50.196,41.691,160.907,140.762,260.684,297.931C3280.363,1424.939,3300.971,1940.475,3125.572,2353.436z"/>
		<g>
			
				<linearGradient id="SVGID_00000010991694076454516520000012863632474772237503_" gradientUnits="userSpaceOnUse" x1="1306.2078" y1="1713.3185" x2="3210.8408" y2="1713.3185">
				<stop  offset="0" style="stop-color:#4F52FF"/>
				<stop  offset="1" style="stop-color:#4042E2"/>
			</linearGradient>
			<polygon style="fill:url(#SVGID_00000010991694076454516520000012863632474772237503_);" points="1306.208,795.124 
				1409.962,2631.513 3136.393,2631.513 3210.841,795.124 			"/>
			<path style="fill:#7D97F4;" d="M3217.399,832.348H1297.11c-9.342,0-17.593-6.094-20.341-15.023l-11.719-38.088
				c-4.211-13.685,6.023-27.541,20.341-27.541h1937.867c13.044,0,23.018,11.626,21.035,24.518l-5.86,38.088
				C3236.836,824.684,3227.903,832.348,3217.399,832.348z"/>
			
				<linearGradient id="SVGID_00000175308214187437370290000010673328457489907074_" gradientUnits="userSpaceOnUse" x1="2879.6294" y1="-226.28" x2="2622.3647" y2="424.4488">
				<stop  offset="0" style="stop-color:#09005D"/>
				<stop  offset="1" style="stop-color:#1A0F91"/>
			</linearGradient>
			<path style="fill:url(#SVGID_00000175308214187437370290000010673328457489907074_);" d="M3217.399,1403.118H1297.11
				c-9.342,0-17.593-6.093-20.341-15.023l-11.719-38.088c-4.211-13.685,6.023-27.541,20.341-27.541h1937.867
				c13.044,0,23.018,11.627,21.035,24.518l-5.86,38.088C3236.836,1395.454,3227.903,1403.118,3217.399,1403.118z"/>
			<g>
				
					<linearGradient id="SVGID_00000170987301551075262760000016898480797000933289_" gradientUnits="userSpaceOnUse" x1="2643.8647" y1="-65.5016" x2="2437.0437" y2="539.8279">
					<stop  offset="0" style="stop-color:#09005D"/>
					<stop  offset="1" style="stop-color:#1A0F91"/>
				</linearGradient>
				<polygon style="fill:url(#SVGID_00000170987301551075262760000016898480797000933289_);" points="3194.241,1204.589 
					3204.805,944.02 1314.62,944.02 1329.342,1204.589 				"/>
				
					<linearGradient id="SVGID_00000078030674784555505710000009375156938884056738_" gradientUnits="userSpaceOnUse" x1="1407.775" y1="2769.9255" x2="1783.7754" y2="-1874.0154">
					<stop  offset="0" style="stop-color:#4F52FF"/>
					<stop  offset="1" style="stop-color:#4042E2"/>
				</linearGradient>
				
					<rect x="1523.348" y="944.02" style="fill:url(#SVGID_00000078030674784555505710000009375156938884056738_);" width="43.429" height="260.569"/>
				
					<linearGradient id="SVGID_00000042008875185904040810000012738667146698329019_" gradientUnits="userSpaceOnUse" x1="1703.6281" y1="2793.8794" x2="2079.6284" y2="-1850.0609">
					<stop  offset="0" style="stop-color:#4F52FF"/>
					<stop  offset="1" style="stop-color:#4042E2"/>
				</linearGradient>
				
					<rect x="1821.141" y="944.02" style="fill:url(#SVGID_00000042008875185904040810000012738667146698329019_);" width="43.428" height="260.569"/>
				
					<linearGradient id="SVGID_00000150785616203866744400000008029718397812483753_" gradientUnits="userSpaceOnUse" x1="1999.4818" y1="2817.8333" x2="2375.4819" y2="-1826.1071">
					<stop  offset="0" style="stop-color:#4F52FF"/>
					<stop  offset="1" style="stop-color:#4042E2"/>
				</linearGradient>
				
					<rect x="2118.934" y="944.02" style="fill:url(#SVGID_00000150785616203866744400000008029718397812483753_);" width="43.428" height="260.569"/>
				
					<linearGradient id="SVGID_00000004532474163074841470000005000753326563745179_" gradientUnits="userSpaceOnUse" x1="2295.335" y1="2841.7871" x2="2671.3352" y2="-1802.1531">
					<stop  offset="0" style="stop-color:#4F52FF"/>
					<stop  offset="1" style="stop-color:#4042E2"/>
				</linearGradient>
				
					<rect x="2416.727" y="944.02" style="fill:url(#SVGID_00000004532474163074841470000005000753326563745179_);" width="43.428" height="260.569"/>
				
					<linearGradient id="SVGID_00000098941763870262781050000016433443235821269408_" gradientUnits="userSpaceOnUse" x1="2591.1887" y1="2865.7412" x2="2967.189" y2="-1778.1992">
					<stop  offset="0" style="stop-color:#4F52FF"/>
					<stop  offset="1" style="stop-color:#4042E2"/>
				</linearGradient>
				
					<rect x="2714.52" y="944.02" style="fill:url(#SVGID_00000098941763870262781050000016433443235821269408_);" width="43.428" height="260.569"/>
				
					<linearGradient id="SVGID_00000096755391032381495550000006843546359018140333_" gradientUnits="userSpaceOnUse" x1="2887.042" y1="2889.6951" x2="3263.0422" y2="-1754.2451">
					<stop  offset="0" style="stop-color:#4F52FF"/>
					<stop  offset="1" style="stop-color:#4042E2"/>
				</linearGradient>
				
					<rect x="3012.313" y="944.02" style="fill:url(#SVGID_00000096755391032381495550000006843546359018140333_);" width="43.428" height="260.569"/>
			</g>
			<g>
				
					<linearGradient id="SVGID_00000026130558487120948700000002915053310402428340_" gradientUnits="userSpaceOnUse" x1="1580.8763" y1="2152.1672" x2="2930.0728" y2="2152.1672">
					<stop  offset="0" style="stop-color:#09005D"/>
					<stop  offset="1" style="stop-color:#1A0F91"/>
				</linearGradient>
				<polygon style="fill:url(#SVGID_00000026130558487120948700000002915053310402428340_);" points="1622.009,2670.444 
					1580.876,1667.103 2930.073,1633.891 2890.023,2670.444 				"/>
				<g>
					<defs>
						<polygon id="XMLID_1_" points="1668.93,2632.823 1625.372,1718.684 2893.386,1718.684 2846.37,2634.046 						"/>
					</defs>
					<clipPath id="XMLID_00000072961715365456611990000000405508059796275328_">
						<use xlink:href="#XMLID_1_"  style="overflow:visible;"/>
					</clipPath>
					<g style="clip-path:url(#XMLID_00000072961715365456611990000000405508059796275328_);">
						
							<linearGradient id="SVGID_00000138548988546258268730000017728790166344360891_" gradientUnits="userSpaceOnUse" x1="2258.9199" y1="1760.2052" x2="2262.3232" y2="2257.1106">
							<stop  offset="0" style="stop-color:#4F52FF"/>
							<stop  offset="1" style="stop-color:#4042E2"/>
						</linearGradient>
						
							<rect x="1598.43" y="1796.036" style="fill:url(#SVGID_00000138548988546258268730000017728790166344360891_);" width="1321.701" height="33.631"/>
						
							<linearGradient id="SVGID_00000008835245408406248190000009541936146215990462_" gradientUnits="userSpaceOnUse" x1="2258.9199" y1="1834.1935" x2="2262.3232" y2="2331.1001">
							<stop  offset="0" style="stop-color:#4F52FF"/>
							<stop  offset="1" style="stop-color:#4042E2"/>
						</linearGradient>
						
							<rect x="1598.43" y="1870.024" style="fill:url(#SVGID_00000008835245408406248190000009541936146215990462_);" width="1321.701" height="33.631"/>
						
							<linearGradient id="SVGID_00000071528677272982196110000005223638634110615220_" gradientUnits="userSpaceOnUse" x1="2258.9199" y1="1908.1819" x2="2262.3232" y2="2405.0884">
							<stop  offset="0" style="stop-color:#4F52FF"/>
							<stop  offset="1" style="stop-color:#4042E2"/>
						</linearGradient>
						
							<rect x="1598.43" y="1944.013" style="fill:url(#SVGID_00000071528677272982196110000005223638634110615220_);" width="1321.701" height="33.631"/>
						
							<linearGradient id="SVGID_00000155831761374043617300000016142463274090143662_" gradientUnits="userSpaceOnUse" x1="2258.9199" y1="1982.1702" x2="2262.3232" y2="2479.0767">
							<stop  offset="0" style="stop-color:#4F52FF"/>
							<stop  offset="1" style="stop-color:#4042E2"/>
						</linearGradient>
						
							<rect x="1598.43" y="2018.001" style="fill:url(#SVGID_00000155831761374043617300000016142463274090143662_);" width="1321.701" height="33.631"/>
						
							<linearGradient id="SVGID_00000054961556576500075780000008393507669459781546_" gradientUnits="userSpaceOnUse" x1="2258.8916" y1="2057.0552" x2="2262.563" y2="2593.114">
							<stop  offset="0" style="stop-color:#4F52FF"/>
							<stop  offset="1" style="stop-color:#4042E2"/>
						</linearGradient>
						
							<rect x="1598.43" y="2095.352" style="fill:url(#SVGID_00000054961556576500075780000008393507669459781546_);" width="1321.701" height="36.994"/>
						
							<linearGradient id="SVGID_00000044866757739381274610000005056834460654686361_" gradientUnits="userSpaceOnUse" x1="2258.8916" y1="2131.0435" x2="2262.563" y2="2667.1013">
							<stop  offset="0" style="stop-color:#4F52FF"/>
							<stop  offset="1" style="stop-color:#4042E2"/>
						</linearGradient>
						
							<rect x="1598.43" y="2169.341" style="fill:url(#SVGID_00000044866757739381274610000005056834460654686361_);" width="1321.701" height="36.994"/>
						
							<linearGradient id="SVGID_00000126322470422997980670000005206831731745774776_" gradientUnits="userSpaceOnUse" x1="2258.8916" y1="2205.0317" x2="2262.563" y2="2741.0908">
							<stop  offset="0" style="stop-color:#4F52FF"/>
							<stop  offset="1" style="stop-color:#4042E2"/>
						</linearGradient>
						
							<rect x="1598.43" y="2243.329" style="fill:url(#SVGID_00000126322470422997980670000005206831731745774776_);" width="1321.701" height="36.994"/>
						
							<linearGradient id="SVGID_00000029746664686654990340000017616729051601471124_" gradientUnits="userSpaceOnUse" x1="2258.8916" y1="2279.0203" x2="2262.563" y2="2815.0781">
							<stop  offset="0" style="stop-color:#4F52FF"/>
							<stop  offset="1" style="stop-color:#4042E2"/>
						</linearGradient>
						
							<rect x="1598.43" y="2317.317" style="fill:url(#SVGID_00000029746664686654990340000017616729051601471124_);" width="1321.701" height="36.994"/>
						
							<linearGradient id="SVGID_00000014595965576663573940000014658421869222731451_" gradientUnits="userSpaceOnUse" x1="2258.8916" y1="2356.3716" x2="2262.563" y2="2892.4307">
							<stop  offset="0" style="stop-color:#4F52FF"/>
							<stop  offset="1" style="stop-color:#4042E2"/>
						</linearGradient>
						
							<rect x="1598.43" y="2394.669" style="fill:url(#SVGID_00000014595965576663573940000014658421869222731451_);" width="1321.701" height="36.994"/>
						
							<linearGradient id="SVGID_00000026144979414603551550000008248446460348783288_" gradientUnits="userSpaceOnUse" x1="2258.8916" y1="2430.3601" x2="2262.563" y2="2966.4189">
							<stop  offset="0" style="stop-color:#4F52FF"/>
							<stop  offset="1" style="stop-color:#4042E2"/>
						</linearGradient>
						
							<rect x="1598.43" y="2468.657" style="fill:url(#SVGID_00000026144979414603551550000008248446460348783288_);" width="1321.701" height="36.994"/>
						
							<linearGradient id="SVGID_00000042014104763554788590000002161268536110689675_" gradientUnits="userSpaceOnUse" x1="2258.8916" y1="2504.3484" x2="2262.563" y2="3040.4072">
							<stop  offset="0" style="stop-color:#4F52FF"/>
							<stop  offset="1" style="stop-color:#4042E2"/>
						</linearGradient>
						
							<rect x="1598.43" y="2542.646" style="fill:url(#SVGID_00000042014104763554788590000002161268536110689675_);" width="1321.701" height="36.994"/>
					</g>
				</g>
				<g>
					
						<linearGradient id="SVGID_00000008852891671297866230000015705270454266583708_" gradientUnits="userSpaceOnUse" x1="3093.0908" y1="443.6044" x2="2714.7605" y2="988.4005">
						<stop  offset="0" style="stop-color:#09005D"/>
						<stop  offset="1" style="stop-color:#1A0F91"/>
					</linearGradient>
					<path style="fill:url(#SVGID_00000008852891671297866230000015705270454266583708_);" d="M2990.756,1543.764
						c0-14.838-12.028-26.866-26.866-26.866H1568.123c-14.838,0-26.866,12.028-26.866,26.866v181.685
						c0,14.838,12.028,26.866,26.866,26.866H2963.89c14.838,0,26.866-12.028,26.866-26.866V1543.764z"/>
				</g>
			</g>
			
				<linearGradient id="SVGID_00000135667028936382216740000011809721303904987837_" gradientUnits="userSpaceOnUse" x1="2535.4299" y1="2124.4751" x2="2166.2422" y2="2839.7751">
				<stop  offset="0" style="stop-color:#4F52FF"/>
				<stop  offset="1" style="stop-color:#4042E2"/>
			</linearGradient>
			<path style="fill:url(#SVGID_00000135667028936382216740000011809721303904987837_);" d="M3175.727,2628.311
				c0-15.736-12.757-28.493-28.493-28.493H1398.232c-15.736,0-28.493,12.757-28.493,28.493v10.277
				c0,15.736,12.757,28.493,28.493,28.493h1749.003c15.736,0,28.493-12.757,28.493-28.493V2628.311z"/>
		</g>
		<g>
			<g>
				<g>
					<path style="fill:#BDD0FB;" d="M484.056,1113.944c-1.823,0-3.32-1.455-3.363-3.284c-0.105-4.501-0.161-9.005-0.167-13.518
						c-0.003-1.857,1.501-3.365,3.36-3.368h0.003c1.856,0,3.36,1.502,3.363,3.358c0.007,4.464,0.062,8.919,0.168,13.37
						c0.043,1.857-1.429,3.398-3.284,3.44C484.108,1113.944,484.082,1113.944,484.056,1113.944z"/>
					<path style="fill:#BDD0FB;" d="M485.475,1055.786c-0.082,0-0.161-0.003-0.246-0.008c-1.852-0.133-3.245-1.744-3.11-3.596
						c0.657-9.163,1.537-18.436,2.608-27.562c0.217-1.844,1.898-3.176,3.731-2.948c1.846,0.217,3.166,1.887,2.949,3.733
						c-1.061,9.025-1.928,18.197-2.582,27.26C488.7,1054.435,487.222,1055.786,485.475,1055.786z M494.907,984.162
						c-0.21,0-0.424-0.02-0.637-0.061c-1.826-0.35-3.018-2.114-2.67-3.936c1.737-9.04,3.698-18.146,5.833-27.066
						c0.434-1.806,2.263-2.917,4.053-2.49c1.806,0.432,2.92,2.246,2.49,4.053c-2.112,8.823-4.053,17.83-5.767,26.77
						C497.896,983.044,496.487,984.162,494.907,984.162z M512.655,914.14c-0.335,0-0.677-0.051-1.015-0.158
						c-1.77-0.562-2.752-2.452-2.191-4.222c1.577-4.987,3.222-9.969,4.933-14.944c1.297-3.774,2.627-7.527,3.99-11.26
						c0.641-1.746,2.562-2.634,4.312-2.005c1.747,0.639,2.644,2.568,2.007,4.314c-1.35,3.693-2.667,7.405-3.951,11.139
						c-1.691,4.922-3.317,9.851-4.88,14.786C515.408,913.224,514.084,914.14,512.655,914.14z M538.375,846.641
						c-0.46,0-0.926-0.095-1.373-0.297c-1.695-0.76-2.453-2.751-1.691-4.445c3.754-8.362,7.757-16.771,11.896-24.99
						c0.834-1.66,2.851-2.33,4.519-1.491c1.659,0.836,2.325,2.857,1.491,4.516c-4.099,8.132-8.056,16.449-11.771,24.721
						C540.887,845.901,539.659,846.641,538.375,846.641z M571.773,782.594c-0.588,0-1.182-0.154-1.724-0.478
						c-1.593-0.954-2.112-3.02-1.159-4.613c4.693-7.835,9.652-15.715,14.75-23.424c1.021-1.55,3.107-1.974,4.66-0.952
						c1.547,1.025,1.974,3.112,0.949,4.66c-5.038,7.626-9.948,15.421-14.586,23.171
						C574.032,782.011,572.915,782.594,571.773,782.594z M612.484,722.911c-0.716,0-1.442-0.228-2.053-0.701
						c-1.471-1.136-1.741-3.248-0.604-4.718c5.626-7.286,11.495-14.538,17.44-21.553c1.195-1.414,3.311-1.596,4.739-0.393
						c1.416,1.202,1.593,3.324,0.391,4.741c-5.879,6.938-11.682,14.111-17.249,21.317
						C614.488,722.461,613.493,722.911,612.484,722.911z M659.979,668.413c-0.851,0-1.701-0.32-2.355-0.962
						c-1.327-1.301-1.347-3.43-0.046-4.756c6.437-6.564,13.114-13.07,19.847-19.341c1.356-1.265,3.488-1.191,4.752,0.169
						c1.268,1.36,1.192,3.488-0.167,4.754c-6.657,6.201-13.262,12.636-19.63,19.128
						C661.719,668.076,660.849,668.413,659.979,668.413z M1530.954,659.087c-0.847,0-1.698-0.319-2.352-0.961
						c-6.503-6.365-13.232-12.663-19.998-18.717c-1.383-1.238-1.501-3.365-0.263-4.749c1.235-1.384,3.363-1.503,4.749-0.263
						c6.838,6.12,13.64,12.487,20.215,18.922c1.327,1.301,1.35,3.429,0.053,4.757
						C1532.698,658.749,1531.828,659.087,1530.954,659.087z M713.545,619.894c-0.985,0-1.961-0.429-2.624-1.256
						c-1.163-1.447-0.933-3.563,0.512-4.728c7.163-5.759,14.553-11.436,21.969-16.873c1.491-1.097,3.596-0.773,4.7,0.724
						c1.097,1.498,0.775,3.603-0.723,4.701c-7.337,5.376-14.645,10.992-21.729,16.689
						C715.03,619.651,714.284,619.894,713.545,619.894z M1476.432,611.67c-0.716,0-1.439-0.228-2.049-0.7
						c-7.193-5.545-14.615-11.007-22.064-16.231c-1.521-1.067-1.888-3.164-0.821-4.685c1.064-1.519,3.16-1.892,4.683-0.823
						c7.531,5.283,15.039,10.805,22.307,16.411c1.471,1.135,1.744,3.247,0.611,4.718
						C1478.435,611.221,1477.44,611.67,1476.432,611.67z M772.406,577.982c-1.12,0-2.214-0.558-2.851-1.576
						c-0.989-1.573-0.512-3.649,1.061-4.636c7.764-4.871,15.761-9.644,23.775-14.188c1.613-0.92,3.669-0.348,4.585,1.266
						c0.916,1.614,0.348,3.667-1.268,4.583c-7.925,4.496-15.837,9.219-23.519,14.037
						C773.635,577.816,773.017,577.982,772.406,577.982z M1416.697,571.011c-0.588,0-1.182-0.153-1.721-0.476
						c-7.794-4.655-15.811-9.204-23.827-13.518c-1.636-0.879-2.25-2.918-1.37-4.554c0.88-1.637,2.92-2.25,4.555-1.37
						c8.106,4.362,16.211,8.959,24.09,13.668c1.596,0.952,2.115,3.017,1.163,4.611
						C1418.957,570.427,1417.844,571.011,1416.697,571.011z M835.74,543.223c-1.258,0-2.466-0.708-3.041-1.92
						c-0.798-1.677-0.082-3.683,1.593-4.481c8.319-3.953,16.819-7.762,25.259-11.323c1.714-0.723,3.685,0.079,4.408,1.792
						c0.719,1.711-0.082,3.685-1.793,4.406c-8.352,3.522-16.756,7.291-24.983,11.201
						C836.716,543.119,836.223,543.223,835.74,543.223z M1352.582,537.661c-0.457,0-0.926-0.095-1.373-0.296
						c-8.283-3.71-16.776-7.289-25.246-10.641c-1.728-0.683-2.572-2.637-1.889-4.363c0.683-1.731,2.641-2.572,4.365-1.89
						c8.562,3.388,17.147,7.005,25.522,10.756c1.695,0.759,2.453,2.749,1.695,4.444
						C1355.094,536.919,1353.869,537.661,1352.582,537.661z M902.674,516.075c-1.402,0-2.71-0.883-3.186-2.284
						c-0.594-1.76,0.348-3.668,2.105-4.266c8.723-2.956,17.604-5.749,26.396-8.299c1.767-0.519,3.649,0.507,4.164,2.292
						c0.519,1.785-0.509,3.651-2.292,4.168c-8.697,2.522-17.479,5.284-26.107,8.211
						C903.396,516.016,903.032,516.075,902.674,516.075z M1285.021,511.997c-0.335,0-0.677-0.051-1.012-0.158
						c-8.644-2.728-17.492-5.303-26.287-7.652c-1.797-0.48-2.861-2.324-2.381-4.118c0.479-1.795,2.342-2.848,4.115-2.381
						c8.894,2.378,17.837,4.981,26.577,7.738c1.77,0.558,2.755,2.447,2.197,4.219
						C1287.776,511.079,1286.449,511.997,1285.021,511.997z M972.307,496.914c-1.553,0-2.949-1.082-3.288-2.662
						c-0.384-1.818,0.775-3.603,2.591-3.99c8.989-1.915,18.133-3.65,27.174-5.158c1.826-0.299,3.563,0.931,3.869,2.764
						c0.305,1.833-0.933,3.565-2.765,3.871c-8.943,1.491-17.985,3.209-26.879,5.102
						C972.774,496.891,972.541,496.914,972.307,496.914z M1214.986,494.32c-0.21,0-0.42-0.02-0.634-0.059
						c-8.95-1.708-18.034-3.233-27.007-4.534c-1.839-0.266-3.114-1.972-2.844-3.811c0.266-1.839,1.944-3.114,3.81-2.846
						c9.071,1.315,18.257,2.857,27.302,4.583c1.823,0.348,3.022,2.11,2.673,3.935C1217.978,493.198,1216.569,494.32,1214.986,494.32
						z M1043.691,486.04c-1.718,0-3.186-1.309-3.347-3.053c-0.171-1.851,1.192-3.488,3.041-3.659
						c9.137-0.846,18.412-1.494,27.572-1.93c1.777-0.092,3.432,1.342,3.521,3.201c0.089,1.856-1.347,3.43-3.199,3.519
						c-9.061,0.429-18.238,1.071-27.276,1.906C1043.898,486.035,1043.793,486.04,1043.691,486.04z M1143.353,484.966
						c-0.079,0-0.161-0.003-0.243-0.008c-9.048-0.642-18.247-1.089-27.345-1.324c-1.859-0.048-3.324-1.591-3.278-3.449
						c0.052-1.854,1.508-3.34,3.448-3.274c9.199,0.236,18.504,0.686,27.654,1.337c1.852,0.131,3.248,1.741,3.114,3.593
						C1146.578,483.613,1145.103,484.966,1143.353,484.966z"/>
					<path style="fill:#BDD0FB;" d="M1570.707,701.895c-0.959,0-1.908-0.406-2.575-1.194c-2.871-3.404-5.784-6.779-8.733-10.122
						c-1.228-1.394-1.094-3.519,0.299-4.747c1.389-1.223,3.521-1.097,4.746,0.297c2.982,3.383,5.928,6.794,8.831,10.234
						c1.195,1.42,1.018,3.542-0.404,4.739C1572.241,701.635,1571.473,701.895,1570.707,701.895z"/>
				</g>
				<g>
					<path style="fill:#BDD0FB;" d="M1714.227,1150.93c-0.095,0-0.19-0.003-0.286-0.011c-1.852-0.156-3.225-1.783-3.068-3.634
						c0.374-4.449,0.696-8.897,0.975-13.339c0.115-1.856,1.682-3.297,3.567-3.146c1.852,0.117,3.261,1.713,3.146,3.567
						c-0.279,4.491-0.608,8.986-0.989,13.484C1717.426,1149.605,1715.958,1150.93,1714.227,1150.93z"/>
					<path style="fill:#BDD0FB;" d="M1100.174,1715.926c-2.785,0-5.57-0.018-8.362-0.056c-1.856-0.026-3.343-1.552-3.317-3.409
						c0.026-1.841,1.527-3.317,3.363-3.317h0.046c8.966,0.123,17.985,0.044,26.951-0.231c0.033-0.002,0.069-0.002,0.105-0.002
						c1.81,0,3.301,1.438,3.36,3.26c0.056,1.857-1.402,3.407-3.261,3.465C1112.789,1715.827,1106.434,1715.926,1100.174,1715.926z
						 M1047.889,1713.684c-0.095,0-0.194-0.003-0.292-0.011c-9.009-0.775-18.123-1.76-27.089-2.931
						c-1.839-0.241-3.14-1.93-2.897-3.77c0.24-1.843,1.889-3.15,3.77-2.9c8.864,1.159,17.88,2.135,26.793,2.9
						c1.849,0.158,3.222,1.787,3.061,3.637C1051.084,1712.361,1049.616,1713.684,1047.889,1713.684z M1162.868,1712.702
						c-1.704,0-3.163-1.287-3.343-3.018c-0.187-1.849,1.156-3.501,3.002-3.69c8.868-0.911,17.853-2.038,26.708-3.347
						c1.826-0.281,3.547,0.995,3.82,2.836c0.273,1.838-0.998,3.547-2.834,3.818c-8.956,1.323-18.041,2.462-27.003,3.383
						C1163.098,1712.697,1162.983,1712.702,1162.868,1712.702z M977.523,1703.503c-0.223,0-0.45-0.021-0.677-0.069
						c-8.838-1.807-17.778-3.838-26.567-6.038c-1.8-0.452-2.897-2.278-2.444-4.081c0.45-1.806,2.269-2.893,4.079-2.445
						c8.694,2.177,17.535,4.187,26.278,5.974c1.82,0.373,2.992,2.15,2.621,3.969
						C980.489,1702.406,979.086,1703.503,977.523,1703.503z M1233.017,1701.345c-1.544,0-2.933-1.067-3.281-2.636
						c-0.401-1.813,0.742-3.609,2.555-4.01c8.713-1.933,17.512-4.089,26.153-6.409c1.793-0.479,3.642,0.583,4.122,2.376
						c0.483,1.793-0.581,3.639-2.375,4.12c-8.736,2.345-17.633,4.526-26.442,6.478
						C1233.503,1701.321,1233.257,1701.345,1233.017,1701.345z M908.796,1685.293c-0.345,0-0.696-0.054-1.044-0.167
						c-3.041-0.995-6.079-2.013-9.117-3.058c-5.537-1.905-11.124-3.915-16.602-5.973c-1.737-0.652-2.618-2.591-1.967-4.33
						c0.654-1.742,2.595-2.614,4.332-1.966c5.422,2.035,10.947,4.023,16.425,5.907c3.005,1.035,6.01,2.043,9.019,3.025
						c1.767,0.578,2.729,2.476,2.151,4.242C911.528,1684.392,910.211,1685.293,908.796,1685.293z M1301.402,1681.984
						c-1.392,0-2.696-0.874-3.179-2.265c-0.608-1.755,0.322-3.67,2.079-4.278c8.441-2.923,16.937-6.078,25.259-9.375
						c1.721-0.678,3.682,0.161,4.365,1.889c0.683,1.726-0.161,3.68-1.889,4.365c-8.411,3.334-17.003,6.523-25.535,9.477
						C1302.138,1681.923,1301.767,1681.984,1301.402,1681.984z M842.555,1659.379c-0.47,0-0.946-0.1-1.399-0.309
						c-8.254-3.785-16.504-7.794-24.524-11.909c-1.652-0.849-2.302-2.875-1.455-4.527c0.847-1.65,2.874-2.309,4.529-1.457
						c7.928,4.071,16.09,8.035,24.254,11.781c1.688,0.774,2.43,2.77,1.655,4.458C845.048,1658.649,843.83,1659.379,842.555,1659.379
						z M1367.137,1654.896c-1.251,0-2.453-0.701-3.035-1.905c-0.805-1.675-0.102-3.683,1.573-4.49
						c8.06-3.875,16.142-7.984,24.028-12.209c1.639-0.88,3.675-0.259,4.555,1.376c0.877,1.637,0.259,3.675-1.376,4.552
						c-7.971,4.271-16.146,8.424-24.291,12.344C1368.123,1654.789,1367.627,1654.896,1367.137,1654.896z M779.733,1626.04
						c-0.594,0-1.199-0.158-1.744-0.489c-7.758-4.713-15.489-9.648-22.977-14.664c-1.544-1.033-1.954-3.122-0.923-4.665
						c1.034-1.544,3.127-1.959,4.667-0.921c7.406,4.961,15.052,9.841,22.727,14.503c1.586,0.964,2.092,3.033,1.127,4.619
						C781.977,1625.465,780.87,1626.04,779.733,1626.04z M1429.345,1620.452c-1.117,0-2.207-0.555-2.848-1.568
						c-0.992-1.57-0.522-3.647,1.048-4.639c7.557-4.769,15.121-9.777,22.478-14.886c1.524-1.059,3.619-0.681,4.68,0.844
						c1.061,1.526,0.683,3.621-0.844,4.68c-7.439,5.164-15.082,10.229-22.721,15.05
						C1430.58,1620.284,1429.959,1620.452,1429.345,1620.452z M721.198,1585.648c-0.723,0-1.452-0.232-2.066-0.711
						c-7.124-5.554-14.228-11.35-21.118-17.229c-1.412-1.205-1.58-3.329-0.374-4.743c1.212-1.414,3.334-1.577,4.742-0.375
						c6.812,5.815,13.84,11.549,20.888,17.042c1.465,1.141,1.724,3.255,0.585,4.719
						C723.191,1585.203,722.199,1585.648,721.198,1585.648z M1487.191,1579.098c-0.985,0-1.958-0.429-2.621-1.253
						c-1.166-1.447-0.939-3.563,0.509-4.729c6.956-5.606,13.896-11.454,20.622-17.38c1.396-1.223,3.521-1.094,4.746,0.3
						c1.228,1.394,1.094,3.519-0.299,4.747c-6.798,5.991-13.814,11.902-20.852,17.571
						C1488.676,1578.854,1487.93,1579.098,1487.191,1579.098z M667.752,1538.737c-0.854,0-1.704-0.322-2.361-0.969
						c-6.437-6.347-12.822-12.929-18.977-19.559c-1.264-1.361-1.186-3.49,0.174-4.752c1.356-1.264,3.488-1.187,4.756,0.177
						c6.086,6.559,12.401,13.066,18.77,19.346c1.324,1.304,1.337,3.434,0.033,4.756
						C669.49,1538.402,668.62,1538.737,667.752,1538.737z M1539.901,1531.342c-0.851,0-1.705-0.322-2.358-0.966
						c-1.323-1.302-1.343-3.43-0.039-4.756c6.266-6.375,12.487-12.988,18.484-19.655c1.241-1.378,3.37-1.491,4.749-0.251
						c1.379,1.243,1.494,3.37,0.25,4.751c-6.063,6.741-12.349,13.426-18.688,19.871
						C1541.641,1531.007,1540.771,1531.342,1539.901,1531.342z M1586.738,1477.799c-0.719,0-1.448-0.231-2.059-0.708
						c-1.468-1.14-1.734-3.253-0.594-4.719c5.488-7.06,10.901-14.354,16.087-21.68c1.074-1.514,3.169-1.877,4.69-0.803
						c1.514,1.074,1.875,3.173,0.801,4.688c-5.245,7.408-10.717,14.783-16.264,21.923
						C1588.735,1477.352,1587.743,1477.799,1586.738,1477.799z M1627.039,1419.172c-0.594,0-1.192-0.156-1.737-0.486
						c-1.59-0.961-2.099-3.03-1.136-4.618c4.628-7.651,9.15-15.51,13.436-23.358c0.89-1.629,2.936-2.232,4.565-1.338
						c1.629,0.89,2.23,2.933,1.34,4.564c-4.335,7.935-8.907,15.879-13.587,23.614
						C1629.289,1418.594,1628.179,1419.172,1627.039,1419.172z M1660.256,1356.319c-0.466,0-0.943-0.097-1.396-0.304
						c-1.688-0.772-2.43-2.767-1.659-4.457c3.705-8.109,7.291-16.436,10.657-24.75c0.696-1.721,2.664-2.553,4.378-1.854
						c1.724,0.696,2.552,2.657,1.856,4.38c-3.402,8.403-7.028,16.822-10.776,25.02
						C1662.753,1355.59,1661.534,1356.319,1660.256,1356.319z M1686.055,1290.077c-0.345,0-0.696-0.054-1.041-0.166
						c-1.767-0.575-2.733-2.473-2.158-4.24c2.778-8.536,5.396-17.219,7.781-25.806c0.499-1.792,2.351-2.833,4.141-2.34
						c1.79,0.498,2.838,2.35,2.342,4.14c-2.414,8.682-5.061,17.459-7.866,26.089
						C1688.79,1289.174,1687.473,1290.077,1686.055,1290.077z M1704.161,1221.313c-0.22,0-0.447-0.021-0.67-0.067
						c-1.819-0.368-2.999-2.143-2.631-3.963c1.783-8.797,3.386-17.722,4.772-26.529c0.292-1.836,2.003-3.099,3.846-2.8
						c1.836,0.289,3.087,2.01,2.801,3.844c-1.402,8.904-3.025,17.927-4.825,26.818
						C1707.13,1220.212,1705.727,1221.313,1704.161,1221.313z"/>
					<path style="fill:#BDD0FB;" d="M619.963,1485.793c-0.985,0-1.961-0.43-2.627-1.258c-2.818-3.516-5.6-7.06-8.342-10.633
						c-1.133-1.473-0.854-3.583,0.617-4.715c1.481-1.135,3.586-0.852,4.716,0.619c2.716,3.534,5.465,7.042,8.257,10.518
						c1.163,1.45,0.929,3.567-0.519,4.728C621.444,1485.551,620.698,1485.793,619.963,1485.793z"/>
				</g>
				<g>
					<path style="fill:#91B3FA;" d="M691.55,1335.181c1.292,2.877,4.269,4.619,7.41,4.335l89.631-8.101
						c25.51,33.4,56.53,62.975,92.39,87.157l-2.801,89.894c-0.1,3.154,1.815,6.022,4.763,7.143l100.906,38.353
						c2.95,1.12,6.285,0.246,8.305-2.174l57.614-69.062c42.87,5.74,85.701,4.237,126.956-3.788l61.624,65.589
						c2.161,2.298,5.541,2.974,8.418,1.681l98.472-44.232c2.879-1.294,4.619-4.27,4.334-7.411l-8.1-89.63
						c33.4-25.511,62.974-56.532,87.156-92.392l89.895,2.801c3.153,0.098,6.021-1.814,7.142-4.763l38.354-100.908
						c1.121-2.949,0.247-6.284-2.176-8.304l-69.062-57.615c5.741-42.87,4.239-85.7-3.788-126.955l65.59-61.625
						c2.298-2.159,2.974-5.541,1.681-8.417l-44.233-98.471c-1.292-2.879-4.268-4.618-7.41-4.335l-89.631,8.101
						c-25.509-33.402-56.531-62.975-92.391-87.157l2.802-89.896c0.098-3.153-1.814-6.02-4.762-7.142l-100.909-38.352
						c-2.948-1.121-6.283-0.247-8.304,2.176l-57.614,69.062c-42.869-5.742-85.701-4.238-126.957,3.789l-61.623-65.589
						c-2.159-2.3-5.542-2.975-8.419-1.682l-98.471,44.233c-2.877,1.293-4.618,4.268-4.335,7.41l8.1,89.63
						c-33.401,25.51-62.974,56.532-87.156,92.391l-89.896-2.802c-3.151-0.099-6.021,1.814-7.141,4.764l-38.352,100.906
						c-1.121,2.949-0.248,6.284,2.174,8.306l69.062,57.614c-5.74,42.869-4.236,85.7,3.788,126.956L649,1228.291
						c-2.3,2.16-2.974,5.539-1.683,8.419L691.55,1335.181z"/>
					<path style="fill:#BDD0FB;" d="M1101.866,1192.637c-3.882,0-7.8-0.225-11.748-0.685l0,0
						c-26.767-3.117-50.723-16.472-67.446-37.607c-16.727-21.134-24.218-47.517-21.102-74.286
						c6.437-55.261,56.605-94.995,111.896-88.548c26.767,3.117,50.722,16.472,67.446,37.607
						c16.727,21.133,24.218,47.515,21.102,74.284C1196.036,1154.719,1152.326,1192.637,1101.866,1192.637z M1091.287,1181.932
						c49.76,5.775,94.913-29.961,100.703-79.695c2.808-24.094-3.938-47.837-18.99-66.858c-15.052-19.019-36.61-31.04-60.703-33.846
						c-49.75-5.797-94.913,29.959-100.703,79.693c-2.808,24.094,3.938,47.837,18.99,66.858
						C1045.636,1167.105,1067.194,1179.126,1091.287,1181.932L1091.287,1181.932z"/>
					<path style="fill:#BDD0FB;" d="M1103.909,1356.288c-31.857,0-63.771-5.807-94.443-17.464
						c-8.056-3.064-15.962-6.513-23.663-10.323c-0.043-0.021-0.089-0.043-0.131-0.064c-0.092-0.046-0.187-0.094-0.279-0.14
						c-0.072-0.036-0.148-0.072-0.22-0.108c-0.282-0.141-0.565-0.282-0.851-0.425c-0.158-0.08-0.319-0.161-0.479-0.241
						c-0.016-0.01-0.036-0.02-0.056-0.028c-4.585-2.317-9.097-4.762-13.528-7.33c-0.131-0.077-0.263-0.153-0.394-0.23
						c-0.345-0.202-0.693-0.404-1.038-0.608c-0.023-0.015-0.049-0.03-0.076-0.044c-3.284-1.935-6.523-3.936-9.712-6.005l5.491-8.464
						c15.144,9.827,31.47,18.096,48.522,24.578c3.044,1.158,6.102,2.256,9.17,3.292c0.016,0.007,0.033,0.011,0.049,0.016
						c0.082,0.028,0.158,0.054,0.24,0.082c0.01,0.002,0.026,0.008,0.026,0.008c0.059,0.02,0.099,0.033,0.148,0.049
						c39.28,13.196,80.422,16.595,120.51,10.273c0.01-0.002,0.016-0.002,0.016-0.002c0.069-0.011,0.135-0.021,0.191-0.03
						c0.171-0.028,0.335-0.054,0.506-0.082l0.01-0.002c0.125-0.02,0.246-0.039,0.371-0.059c0.016-0.003,0.026-0.005,0.043-0.007
						c19.916-3.233,39.569-8.868,58.592-16.891c0.151-0.063,0.299-0.126,0.447-0.189c0.683-0.291,1.37-0.585,2.053-0.88
						c1.018-0.442,2.03-0.888,3.044-1.345c62.237-27.958,109.863-78.478,134.104-142.254c11.314-29.765,16.674-60.355,16.678-90.456
						c0.003-103.043-62.802-200.338-164.697-239.066c-131.647-50.041-279.476,16.362-329.519,148.018
						c-11.088,29.169-16.707,59.951-16.714,90.799c-0.003,14.932,1.307,29.879,3.951,44.665l-9.932,1.775
						c-2.749-15.372-4.112-30.912-4.109-46.435c0.007-32.069,5.849-64.068,17.37-94.387
						c52.02-136.858,205.659-205.884,342.538-153.867c105.918,40.259,171.207,141.398,171.2,248.51
						c-0.003,31.289-5.577,63.088-17.334,94.027c-25.197,66.296-74.704,118.812-139.401,147.875
						C1177.835,1348.449,1140.913,1356.288,1103.909,1356.288z"/>
				</g>
			</g>
			<path style="fill:#91B3FA;" d="M1640.87,942.997l49.701-8.505c15.732,17.522,34.371,32.663,55.473,44.577l2.428,50.333
				c0.084,1.766,1.281,3.282,2.977,3.778l58.062,16.94c1.698,0.495,3.521-0.141,4.542-1.583l29.112-41.132
				c24.199,1.302,48.054-1.439,70.74-7.754l37.331,33.897c1.309,1.188,3.227,1.414,4.776,0.565l53.035-29.077
				c1.55-0.851,2.39-2.59,2.092-4.332l-8.505-49.701c17.522-15.732,32.662-34.371,44.576-55.473l50.334-2.427
				c1.765-0.085,3.282-1.281,3.777-2.978l16.94-58.063c0.495-1.697-0.141-3.521-1.584-4.542l-41.132-29.112
				c1.303-24.199-1.438-48.054-7.754-70.74l33.897-37.332c1.187-1.308,1.415-3.226,0.565-4.776l-29.079-53.034
				c-0.849-1.551-2.589-2.39-4.331-2.092l-49.701,8.504c-15.731-17.523-34.37-32.662-55.473-44.576l-2.427-50.334
				c-0.086-1.765-1.281-3.282-2.977-3.777l-58.064-16.939c-1.697-0.495-3.52,0.141-4.541,1.583l-29.112,41.132
				c-24.199-1.303-48.055,1.439-70.741,7.754l-37.33-33.896c-1.308-1.189-3.228-1.415-4.777-0.566l-53.034,29.078
				c-1.549,0.849-2.39,2.589-2.092,4.331l8.504,49.701c-17.523,15.731-32.662,34.371-44.576,55.473l-50.334,2.428
				c-1.764,0.084-3.282,1.281-3.776,2.977l-16.94,58.062c-0.495,1.697,0.14,3.521,1.583,4.543l41.131,29.112
				c-1.302,24.198,1.439,48.054,7.753,70.74l-33.896,37.331c-1.188,1.309-1.415,3.226-0.566,4.777l29.078,53.034
				C1637.388,942.454,1639.128,943.294,1640.87,942.997z"/>
			<path style="fill:#BDD0FB;" d="M1854.883,845.466c-0.723,0-1.445-0.013-2.174-0.039l0,0
				c-32.373-1.186-57.744-28.488-56.562-60.861c0.575-15.682,7.219-30.202,18.717-40.886c11.495-10.684,26.573-16.218,42.144-15.676
				c32.373,1.186,57.744,28.488,56.562,60.859C1912.411,820.507,1886.291,845.466,1854.883,845.466z M1853.077,835.343
				c0.601,0.021,1.202,0.033,1.8,0.033c26.018,0,47.648-20.671,48.611-46.883c0.982-26.813-20.034-49.425-46.847-50.407
				c-12.983-0.501-25.384,4.135-34.909,12.984c-9.521,8.848-15.026,20.875-15.502,33.863
				C1805.248,811.747,1826.264,834.361,1853.077,835.343L1853.077,835.343z"/>
			<g>
				<path style="fill:#BDD0FB;" d="M1546.824,891.396c-1.412,0-2.729-0.898-3.196-2.312c-1.412-4.294-2.752-8.664-3.977-12.993
					c-0.506-1.787,0.532-3.646,2.319-4.151c1.777-0.508,3.642,0.529,4.151,2.319c1.202,4.237,2.512,8.516,3.898,12.72
					c0.581,1.765-0.381,3.665-2.145,4.247C1547.527,891.34,1547.172,891.396,1546.824,891.396z"/>
				<path style="fill:#BDD0FB;" d="M1533.677,834.542c-1.655,0-3.097-1.22-3.327-2.905c-1.268-9.201-2.148-18.568-2.621-27.841
					c-0.092-1.854,1.333-3.435,3.189-3.529c1.764-0.1,3.435,1.332,3.531,3.187c0.463,9.083,1.324,18.256,2.562,27.266
					c0.256,1.841-1.031,3.537-2.874,3.79C1533.982,834.532,1533.828,834.542,1533.677,834.542z M1531.871,762.048
					c-0.095,0-0.194-0.003-0.289-0.011c-1.852-0.159-3.225-1.788-3.064-3.639c0.795-9.267,1.994-18.594,3.567-27.723
					c0.315-1.831,2.059-3.066,3.885-2.742c1.829,0.315,3.058,2.054,2.742,3.885c-1.54,8.94-2.716,18.077-3.494,27.154
					C1535.066,760.724,1533.598,762.048,1531.871,762.048z M1546.078,690.963c-0.338,0-0.683-0.053-1.025-0.163
					c-1.77-0.567-2.746-2.458-2.177-4.229c2.834-8.849,6.083-17.676,9.659-26.235c0.716-1.714,2.696-2.517,4.401-1.806
					c1.714,0.716,2.522,2.687,1.806,4.401c-3.501,8.382-6.687,17.026-9.462,25.693
					C1548.824,690.052,1547.504,690.963,1546.078,690.963z M1575.831,624.826c-0.585,0-1.176-0.151-1.714-0.471
					c-1.596-0.947-2.122-3.01-1.176-4.608c4.739-7.984,9.879-15.863,15.282-23.419c1.081-1.511,3.176-1.859,4.693-0.78
					c1.511,1.081,1.859,3.181,0.778,4.692c-5.291,7.401-10.329,15.119-14.966,22.939
					C1578.097,624.238,1576.98,624.826,1575.831,624.826z M1619.568,566.978c-0.831,0-1.665-0.306-2.315-0.923
					c-1.346-1.278-1.402-3.408-0.125-4.754c6.388-6.736,13.147-13.28,20.087-19.45c1.386-1.235,3.511-1.112,4.746,0.278
					c1.235,1.388,1.11,3.514-0.279,4.747c-6.795,6.045-13.413,12.454-19.673,19.052
					C1621.348,566.627,1620.458,566.978,1619.568,566.978z M1675.003,520.247c-1.087,0-2.151-0.524-2.798-1.494
					c-1.035-1.545-0.618-3.634,0.926-4.665c7.734-5.166,15.768-10.053,23.887-14.525c1.632-0.895,3.669-0.307,4.569,1.324
					c0.896,1.626,0.302,3.672-1.324,4.568c-7.948,4.38-15.82,9.165-23.394,14.226
					C1676.294,520.064,1675.643,520.247,1675.003,520.247z M1979.21,490.475c-0.43,0-0.867-0.084-1.291-0.258
					c-8.408-3.491-17.062-6.654-25.722-9.405c-1.77-0.562-2.749-2.453-2.188-4.224c0.558-1.769,2.437-2.744,4.224-2.187
					c8.845,2.808,17.683,6.04,26.268,9.602c1.714,0.713,2.529,2.68,1.816,4.396C1981.778,489.694,1980.527,490.475,1979.21,490.475z
					 M1739.381,486.979c-1.353,0-2.631-0.824-3.143-2.166c-0.66-1.734,0.207-3.678,1.944-4.34
					c8.664-3.309,17.584-6.281,26.507-8.835c1.783-0.516,3.649,0.522,4.158,2.309c0.512,1.785-0.522,3.647-2.306,4.158
					c-8.739,2.501-17.476,5.413-25.962,8.651C1740.186,486.907,1739.782,486.979,1739.381,486.979z M1909.527,470.385
					c-0.187,0-0.374-0.015-0.565-0.048c-8.936-1.517-18.08-2.67-27.174-3.427c-1.852-0.154-3.225-1.78-3.071-3.631
					c0.151-1.849,1.767-3.232,3.629-3.073c9.285,0.773,18.619,1.949,27.739,3.499c1.833,0.31,3.064,2.048,2.755,3.879
					C1912.562,469.226,1911.136,470.385,1909.527,470.385z M1809.573,468.917c-1.652,0-3.091-1.215-3.327-2.897
					c-0.256-1.839,1.025-3.539,2.864-3.797c9.176-1.284,18.536-2.189,27.824-2.688c1.826-0.084,3.435,1.32,3.541,3.178
					c0.099,1.854-1.324,3.439-3.179,3.539c-9.098,0.489-18.267,1.375-27.253,2.632
					C1809.885,468.908,1809.728,468.917,1809.573,468.917z"/>
				<path style="fill:#BDD0FB;" d="M2031.062,517.765c-0.627,0-1.261-0.174-1.826-0.542c-3.708-2.404-7.511-4.761-11.311-7.002
					c-1.599-0.946-2.128-3.007-1.186-4.606c0.946-1.598,3.008-2.133,4.608-1.186c3.879,2.289,7.764,4.697,11.547,7.151
					c1.56,1.01,2.003,3.094,0.992,4.652C2033.243,517.224,2032.162,517.765,2031.062,517.765z"/>
			</g>
			<g>
				<path style="fill:#BDD0FB;" d="M2173.258,728.2c-1.58,0-2.989-1.117-3.297-2.724c-0.844-4.358-1.787-8.735-2.798-13.011
					c-0.43-1.806,0.686-3.619,2.496-4.048c1.79-0.425,3.619,0.691,4.046,2.498c1.034,4.365,1.997,8.833,2.857,13.283
					c0.354,1.823-0.838,3.588-2.66,3.941C2173.685,728.18,2173.469,728.2,2173.258,728.2z"/>
				<path style="fill:#BDD0FB;" d="M1855.11,1114.268h-0.571c-1.859,0-3.363-1.506-3.363-3.363c0-1.857,1.504-3.363,3.363-3.363
					h0.571c8.779,0,17.647-0.361,26.356-1.074c1.928-0.153,3.478,1.225,3.629,3.077c0.151,1.851-1.228,3.475-3.077,3.626
					C1873.124,1113.898,1864.073,1114.268,1855.11,1114.268z M1810.411,1111.222c-0.151,0-0.305-0.01-0.46-0.031
					c-9.078-1.246-18.188-2.889-27.079-4.884c-1.813-0.406-2.953-2.204-2.545-4.017c0.407-1.811,2.217-2.956,4.017-2.545
					c8.71,1.952,17.633,3.562,26.521,4.782c1.842,0.253,3.127,1.949,2.874,3.79
					C1813.508,1110.001,1812.066,1111.222,1810.411,1111.222z M1925.449,1106.573c-1.54,0-2.933-1.066-3.281-2.634
					c-0.401-1.813,0.742-3.609,2.555-4.012c8.733-1.939,17.489-4.278,26.028-6.951c1.777-0.55,3.659,0.432,4.214,2.205
					c0.555,1.774-0.43,3.66-2.204,4.215c-8.72,2.728-17.663,5.117-26.58,7.096
					C1925.935,1106.546,1925.692,1106.573,1925.449,1106.573z M1741.211,1093.776c-0.391,0-0.792-0.069-1.179-0.215
					c-8.552-3.201-17.078-6.808-25.342-10.723c-1.678-0.796-2.394-2.802-1.596-4.48s2.798-2.394,4.48-1.599
					c8.089,3.834,16.438,7.368,24.816,10.503c1.741,0.65,2.621,2.588,1.971,4.329
					C1743.855,1092.941,1742.574,1093.776,1741.211,1093.776z M1992.954,1083.479c-1.261,0-2.47-0.713-3.044-1.928
					c-0.792-1.68-0.072-3.685,1.606-4.476c8.083-3.813,16.113-8.02,23.86-12.503c1.609-0.933,3.669-0.381,4.595,1.227
					c0.933,1.608,0.381,3.665-1.225,4.596c-7.912,4.577-16.106,8.871-24.359,12.763
					C1993.923,1083.376,1993.434,1083.479,1992.954,1083.479z M2053.73,1046.153c-1.005,0-1.997-0.447-2.66-1.301
					c-1.139-1.466-0.874-3.578,0.594-4.718c7.055-5.481,13.975-11.337,20.566-17.407c1.369-1.255,3.494-1.169,4.752,0.197
					c1.258,1.366,1.173,3.495-0.194,4.752c-6.733,6.196-13.797,12.173-21,17.768
					C2055.175,1045.923,2054.449,1046.153,2053.73,1046.153z M2104.936,996.474c-0.752,0-1.514-0.253-2.138-0.772
					c-1.432-1.182-1.635-3.302-0.45-4.734c5.698-6.892,11.177-14.116,16.287-21.469c1.058-1.526,3.153-1.9,4.68-0.842
					c1.527,1.061,1.905,3.156,0.844,4.682c-5.216,7.506-10.809,14.879-16.628,21.916
					C2106.867,996.058,2105.904,996.474,2104.936,996.474z M2144.094,936.815c-0.512,0-1.035-0.117-1.521-0.366
					c-1.655-0.842-2.316-2.867-1.475-4.522c4.056-7.968,7.82-16.218,11.19-24.519c0.703-1.724,2.673-2.547,4.381-1.852
					c1.721,0.7,2.552,2.66,1.853,4.381c-3.442,8.478-7.288,16.903-11.426,25.041
					C2146.501,936.143,2145.319,936.815,2144.094,936.815z M2169.196,869.989c-0.273,0-0.552-0.035-0.828-0.105
					c-1.803-0.455-2.894-2.284-2.437-4.086c2.197-8.672,4.05-17.545,5.511-26.368c0.302-1.831,1.984-3.061,3.866-2.77
					c1.833,0.304,3.074,2.035,2.769,3.867c-1.488,9.009-3.383,18.067-5.623,26.923
					C2172.066,868.974,2170.697,869.989,2169.196,869.989z M2179.009,799.333c-0.033,0-0.066,0-0.099-0.002
					c-1.855-0.051-3.317-1.599-3.268-3.455c0.089-3.143,0.135-6.276,0.135-9.4c0-5.843-0.161-11.748-0.476-17.555
					c-0.099-1.856,1.323-3.44,3.179-3.54c1.76-0.104,3.439,1.319,3.537,3.176c0.322,5.927,0.486,11.956,0.486,17.919
					c0,3.186-0.046,6.381-0.135,9.587C2182.316,797.888,2180.822,799.333,2179.009,799.333z"/>
				<path style="fill:#BDD0FB;" d="M1677.401,1061.425c-0.634,0-1.271-0.177-1.843-0.55c-3.797-2.491-7.564-5.076-11.199-7.68
					c-1.511-1.082-1.859-3.184-0.775-4.693c1.08-1.507,3.186-1.859,4.69-0.775c3.563,2.552,7.255,5.084,10.976,7.523
					c1.55,1.02,1.984,3.104,0.966,4.657C1679.571,1060.892,1678.497,1061.425,1677.401,1061.425z"/>
			</g>
			<path style="fill:#BDD0FB;" d="M1856.141,937.063c-14.201,0.002-28.485-2.023-42.499-6.112l0,0
				c-1.728-0.504-3.445-1.038-5.153-1.603c-0.023-0.007-0.043-0.013-0.062-0.02c-0.131-0.044-0.266-0.089-0.401-0.135
				c-0.029-0.01-0.062-0.02-0.092-0.03l-0.01-0.003c-6.112-2.048-12.089-4.48-17.873-7.273c-0.256-0.123-0.512-0.248-0.768-0.374
				c-0.273-0.133-0.542-0.268-0.815-0.401c-0.092-0.048-0.187-0.094-0.279-0.141c-0.749-0.374-1.491-0.754-2.233-1.14
				c-0.686-0.358-1.366-0.721-2.046-1.087l4.802-8.874c8.769,4.747,18.106,8.58,27.755,11.395l0,0
				c1.583,0.461,3.169,0.895,4.762,1.301l0.006,0.002c0.076,0.02,0.148,0.038,0.223,0.057c21.41,5.421,43.385,5.741,64.477,1.115
				c13.025-2.857,25.716-7.598,37.733-14.188c33-18.093,56.979-47.956,67.518-84.084c3.816-13.073,5.705-26.399,5.708-39.648
				c0-23.368-5.872-46.494-17.417-67.555c-18.096-33-47.957-56.979-84.084-67.52c-74.603-21.77-152.969,21.215-174.724,95.796
				c-3.774,12.932-5.662,26.261-5.659,39.576c0,11.933,1.521,23.855,4.565,35.469l-9.761,2.558
				c-3.261-12.451-4.89-25.228-4.894-38.017c-0.003-14.27,2.02-28.554,6.059-42.41c23.322-79.925,107.33-125.972,187.237-102.657
				c38.715,11.295,70.717,36.993,90.104,72.356c12.375,22.568,18.668,47.349,18.665,72.391c0,14.198-2.026,28.478-6.112,42.485
				c-11.295,38.717-36.991,70.717-72.356,90.106C1905.957,930.77,1881.177,937.063,1856.141,937.063z"/>
		</g>
		<g>
			<g>
				
					<linearGradient id="SVGID_00000051365545222026146430000011982534923232589187_" gradientUnits="userSpaceOnUse" x1="2254.0757" y1="1773.39" x2="1111.3844" y2="4144.7295" gradientTransform="matrix(1.0001 -0.0016 -0.0016 1.0425 1.0004 -26.56)">
					<stop  offset="0" style="stop-color:#FE7062"/>
					<stop  offset="1" style="stop-color:#FF928E"/>
				</linearGradient>
				<path style="fill:url(#SVGID_00000051365545222026146430000011982534923232589187_);" d="M2011.396,2083.446
					c315.14,81.683,499.778,301.074,590.95,323.143c91.171,22.068,456.495,41.817,515.985,99.424
					c59.489,57.607,2.513,98.701,79.001,172.768c84.372,249.149-178.125,324.146-178.125,324.146l-2385.103-16.468
					c0,0-160.975,15.337-164.36-104.489c-3.386-119.826,35.809-180.418,44.425-288.346c8.615-107.928,8.812-113.362,31.948-169.358
					c23.137-55.997,247.057-62.424,290.728-124.733c43.67-62.309,95.698-161.657,280.634-195.787
					C1372.915,2056.602,1828.6,2036.065,2011.396,2083.446z"/>
				
					<linearGradient id="SVGID_00000139260553741541788310000010594849778072182451_" gradientUnits="userSpaceOnUse" x1="-3068.9478" y1="1763.58" x2="-3101.5352" y2="2284.9836" gradientTransform="matrix(0.9999 0.0339 -0.0217 1.1566 3782.7212 -40.9966)">
					<stop  offset="0" style="stop-color:#E1473D"/>
					<stop  offset="1" style="stop-color:#E9605A"/>
				</linearGradient>
				<path style="fill:url(#SVGID_00000139260553741541788310000010594849778072182451_);" d="M458.511,2859.59
					c4.637,152.885,228.568,126.706,229.544,126.61c0,0,177.553-157.013-67.441-151.955
					c-73.637-2.497-148.443-47.923-148.443-47.923L458.511,2859.59z"/>
				
					<linearGradient id="SVGID_00000065052637902235080090000009514914463885075636_" gradientUnits="userSpaceOnUse" x1="-672.9568" y1="1904.7393" x2="-705.5416" y2="2426.1011" gradientTransform="matrix(0.9999 0.0339 -0.0217 1.1566 3782.7212 -40.9966)">
					<stop  offset="0" style="stop-color:#E1473D"/>
					<stop  offset="1" style="stop-color:#E9605A"/>
				</linearGradient>
				<path style="fill:url(#SVGID_00000065052637902235080090000009514914463885075636_);" d="M3212.724,2716.081
					c0,0,2.479,38.998-60.521,78.568c-78.086,49.046-350.013-6.327-350.013-6.327l-30.299,202.17l256.161,16.148
					C3022.073,3008.503,3364.296,2987.072,3212.724,2716.081z"/>
				
					<linearGradient id="SVGID_00000112605291757099472300000000829966110975991698_" gradientUnits="userSpaceOnUse" x1="1219.1843" y1="1365.5588" x2="1219.1843" y2="2387.9438">
					<stop  offset="0" style="stop-color:#E1473D"/>
					<stop  offset="1" style="stop-color:#E9605A"/>
				</linearGradient>
				<path style="fill:url(#SVGID_00000112605291757099472300000000829966110975991698_);" d="M877.623,2461.298
					c0,0-7.684-59.995,55.339-133.55c63.024-73.553,99.812-122.067,148.278-134.56c48.465-12.491,403.194-61.571,426.491-23.818
					c23.297,37.751,53.309,269.537,53.309,269.537L877.623,2461.298z"/>
				
					<linearGradient id="SVGID_00000142148894260076063710000004303369836853621671_" gradientUnits="userSpaceOnUse" x1="1637.8159" y1="1464.8705" x2="2076.678" y2="597.2342">
					<stop  offset="0" style="stop-color:#FEBBBA"/>
					<stop  offset="1" style="stop-color:#FF928E"/>
				</linearGradient>
				<path style="fill:url(#SVGID_00000142148894260076063710000004303369836853621671_);" d="M1087.672,2186.846
					c39.739-5.919,341.465-41,419.372-30.99l20.159,77.554l-649.885,227.855c0,0-3.1-49.376,29.365-98.058
					C961.228,2281.417,1046.126,2192.074,1087.672,2186.846z"/>
				
					<linearGradient id="SVGID_00000017503229254769248300000000849811911668403110_" gradientUnits="userSpaceOnUse" x1="2044.3761" y1="1034.4114" x2="2017.4717" y2="2446.9163">
					<stop  offset="0" style="stop-color:#E1473D"/>
					<stop  offset="1" style="stop-color:#E9605A"/>
				</linearGradient>
				<path style="fill:url(#SVGID_00000017503229254769248300000000849811911668403110_);" d="M1613.838,2169.319
					c9.826,44.792,46.025,263.171,46.025,263.171l767.033-3.546c0,0-241.789-222.191-427.659-257.358
					C1813.368,2136.418,1607.558,2145.64,1613.838,2169.319z"/>
				
					<linearGradient id="SVGID_00000125586837249185102690000016089319415408298373_" gradientUnits="userSpaceOnUse" x1="2086.9324" y1="1692.0399" x2="2525.7947" y2="824.4031">
					<stop  offset="0" style="stop-color:#FEBBBA"/>
					<stop  offset="1" style="stop-color:#FF928E"/>
				</linearGradient>
				<path style="fill:url(#SVGID_00000125586837249185102690000016089319415408298373_);" d="M1973.012,2155.098
					c-151.404-21.015-206.914-17.026-365.618-3.129l15.283,63.479c0,0,236.205-46.325,456.292-19.541
					C2078.969,2195.908,2022.437,2161.958,1973.012,2155.098z"/>
				
					<linearGradient id="SVGID_00000144306605156515857350000006087175977333158078_" gradientUnits="userSpaceOnUse" x1="3264.2271" y1="2429.2976" x2="3753.5352" y2="2030.7891">
					<stop  offset="0" style="stop-color:#FEBBBA"/>
					<stop  offset="1" style="stop-color:#FF928E"/>
				</linearGradient>
				<path style="fill:url(#SVGID_00000144306605156515857350000006087175977333158078_);" d="M3101.232,2478.311
					c0,0-124.273-39.843-154.588,58.404c-28.898,93.657,251.522,118.863,251.522,118.863S3177.49,2516.639,3101.232,2478.311z"/>
				<path style="fill:#FFFFFF;" d="M835.173,2355.152c0.691,0,1.388-0.099,2.086-0.31c29.181-8.816,53.761-39.554,82.224-75.148
					c41.563-51.979,88.678-110.897,165.504-125.555c147.344-28.124,370.682-47.609,372.922-47.806
					c3.974-0.345,6.913-3.841,6.568-7.808c-0.338-3.975-3.7-6.948-7.808-6.567c-2.248,0.19-226.333,19.745-374.389,48.004
					c-82.061,15.665-133.081,79.461-174.073,130.72c-26.955,33.712-50.238,62.823-75.12,70.349c-3.819,1.149-5.976,5.18-4.82,8.992
					C829.212,2353.143,832.073,2355.152,835.173,2355.152z"/>
				<path style="fill:#FFFFFF;" d="M606.783,2436.952c2.657,0,5.215-1.473,6.469-4.01c12.107-24.404,65.698-35.467,117.521-46.164
					c18.541-3.827,37.708-7.78,55.333-12.396c3.861-1.014,6.166-4.954,5.158-8.808c-1.015-3.862-4.954-6.124-8.808-5.159
					c-17.265,4.524-36.243,8.442-54.599,12.227c-57.756,11.923-112.307,23.184-127.528,53.887c-1.776,3.573-0.317,7.899,3.255,9.668
					C604.612,2436.712,605.705,2436.952,606.783,2436.952z"/>
				<g>
					
						<linearGradient id="SVGID_00000135686761265317777060000014848836412106043041_" gradientUnits="userSpaceOnUse" x1="1476.5432" y1="2152.1184" x2="1096.4049" y2="2800.4373">
						<stop  offset="0" style="stop-color:#09005D"/>
						<stop  offset="1" style="stop-color:#1A0F91"/>
					</linearGradient>
					
						<circle style="fill:url(#SVGID_00000135686761265317777060000014848836412106043041_);" cx="1001.394" cy="2962.477" r="229.725"/>
					
						<linearGradient id="SVGID_00000017496699005037261270000001705437404618724267_" gradientUnits="userSpaceOnUse" x1="1032.4534" y1="2607.7358" x2="961.6614" y2="3351.0549">
						<stop  offset="0" style="stop-color:#4F52FF"/>
						<stop  offset="1" style="stop-color:#4042E2"/>
					</linearGradient>
					<path style="fill:url(#SVGID_00000017496699005037261270000001705437404618724267_);" d="M1145.434,2963.653
						c-2.09,80.919-69.384,144.822-150.302,142.732c-80.92-2.091-144.823-69.383-142.732-150.303
						c2.09-80.918,69.382-144.822,150.302-142.731C1083.621,2815.442,1147.525,2882.734,1145.434,2963.653z"/>
				</g>
				<g>
					
						<linearGradient id="SVGID_00000135667197289162950120000005037646374177478813_" gradientUnits="userSpaceOnUse" x1="2648.9773" y1="2223.9465" x2="2635.5247" y2="3380.856">
						<stop  offset="0" style="stop-color:#09005D"/>
						<stop  offset="1" style="stop-color:#1A0F91"/>
					</linearGradient>
					
						<circle style="fill:url(#SVGID_00000135667197289162950120000005037646374177478813_);" cx="2640.554" cy="2948.311" r="229.725"/>
					
						<linearGradient id="SVGID_00000096051039302970799180000007197131598936701618_" gradientUnits="userSpaceOnUse" x1="2703.4756" y1="2593.1169" x2="2587.1741" y2="3220.1353">
						<stop  offset="0" style="stop-color:#4F52FF"/>
						<stop  offset="1" style="stop-color:#4042E2"/>
					</linearGradient>
					<path style="fill:url(#SVGID_00000096051039302970799180000007197131598936701618_);" d="M2784.594,2949.487
						c-2.09,80.919-69.383,144.822-150.302,142.732c-80.919-2.091-144.822-69.382-142.733-150.302
						c2.092-80.918,69.384-144.822,150.303-142.731C2722.781,2801.277,2786.685,2868.569,2784.594,2949.487z"/>
				</g>
				<g>
					<path style="opacity:0.7;fill:#FFFFFF;" d="M1660.653,2932.766c0.239,0,0.476,0,0.713,0c4.191,0,7.544-3.729,7.49-7.92
						c-0.041-3.038-1.862-5.751-4.457-6.929c-14.929-24.031-34.31-283.806-43.125-443.929c-0.23-4.187-3.809-7.443-7.994-7.187
						c-4.185,0.23-7.389,3.794-7.16,7.981c0.063,1.126,6.312,114.27,15.263,225.706
						C1639.602,2927.301,1650.83,2932.766,1660.653,2932.766z"/>
				</g>
				
					<linearGradient id="SVGID_00000101076028032453070180000015042117855441550993_" gradientUnits="userSpaceOnUse" x1="-3684.8875" y1="2873.9541" x2="-3029.4421" y2="2619.384" gradientTransform="matrix(-1 0 0 1 -583.6378 0)">
					<stop  offset="0" style="stop-color:#FE7062"/>
					<stop  offset="1" style="stop-color:#FF928E"/>
				</linearGradient>
				<path style="fill:url(#SVGID_00000101076028032453070180000015042117855441550993_);" d="M2382.034,2544.202
					c0-28.72-23.282-52.003-52.003-52.003h-154.953c-28.72,0-52.003,23.282-52.003,52.003v0.25c0,28.72,23.282,52.003,52.003,52.003
					h154.953c28.72,0,52.003-23.282,52.003-52.003V2544.202z"/>
			</g>
		</g>
		<g>
			<g>
				
					<linearGradient id="SVGID_00000008122875233492038280000012134260766523568778_" gradientUnits="userSpaceOnUse" x1="-1630.2932" y1="1569.6917" x2="-1406.3312" y2="2163.1919" gradientTransform="matrix(-0.9869 0.1614 0.1614 0.9869 -397.2046 575.3264)">
					<stop  offset="0" style="stop-color:#FEBBBA"/>
					<stop  offset="1" style="stop-color:#FF928E"/>
				</linearGradient>
				<path style="fill:url(#SVGID_00000008122875233492038280000012134260766523568778_);" d="M1539.178,1953.354l-36.422,49.929
					c-62.62,4.159-113.268-7.248-153.737-25.609c13.025-58.201,30.03-94.243,44.447-116.091
					C1464.065,1932.915,1539.178,1953.354,1539.178,1953.354z"/>
				
					<linearGradient id="SVGID_00000155847771097081423850000007089820223854511281_" gradientUnits="userSpaceOnUse" x1="757.5082" y1="1674.0446" x2="418.9547" y2="1940.8514" gradientTransform="matrix(-1 0 0 1 1881.6967 0)">
					<stop  offset="0" style="stop-color:#CE1567"/>
					<stop  offset="1" style="stop-color:#7A1DBC"/>
				</linearGradient>
				<path style="fill:url(#SVGID_00000155847771097081423850000007089820223854511281_);" d="M1210.675,1842.557l76.281-177.014
					c21.509,89.29,63.16,152.241,106.509,196.04c-14.417,21.847-31.422,57.89-44.447,116.091
					C1248.024,1931.855,1210.675,1842.557,1210.675,1842.557z"/>
			</g>
			
				<linearGradient id="SVGID_00000111913662333398212360000016783485911006544781_" gradientUnits="userSpaceOnUse" x1="10433.3867" y1="3177.0894" x2="10655.7451" y2="3177.0894" gradientTransform="matrix(1 0 0 1 -9385.9043 0)">
				<stop  offset="0" style="stop-color:#020039"/>
				<stop  offset="1" style="stop-color:#090056"/>
			</linearGradient>
			<path style="fill:url(#SVGID_00000111913662333398212360000016783485911006544781_);" d="M1131.079,3221.921
				c51.779,2.382,101.897,0.886,135.36-0.834c-30.468-21.687-100.661-68.869-159.397-87.654l-40.321-2.412
				c0,0-13.663,20.779-18.538,68.329C1054.867,3207.687,1074.399,3219.313,1131.079,3221.921z"/>
			<path style="fill:#7D97F4;" d="M1266.857,3221.383c-0.133-0.095-0.282-0.199-0.417-0.296c-33.463,1.72-83.582,3.217-135.36,0.834
				c-56.681-2.608-76.213-14.234-82.895-22.572c-0.225,2.19-0.455,4.366-0.639,6.671c-0.838,10.435,6.908,19.597,17.346,20.386
				c42.406,3.206,147.547,10.467,198.251,7.808C1269.829,3233.864,1272.31,3225.27,1266.857,3221.383z"/>
			
				<linearGradient id="SVGID_00000054242821705032479740000016176356501840673925_" gradientUnits="userSpaceOnUse" x1="10050.6572" y1="3177.6443" x2="10154.7734" y2="3177.6443" gradientTransform="matrix(1 0 0 1 -9385.9043 0)">
				<stop  offset="0" style="stop-color:#020039"/>
				<stop  offset="1" style="stop-color:#090056"/>
			</linearGradient>
			<path style="fill:url(#SVGID_00000054242821705032479740000016176356501840673925_);" d="M768.624,3208.064
				c-3.792-24.308-9.872-59.45-14.57-68.433c-7.371-14.095-32.601,0-32.601,0s-17.712,8.259-25.864,22.025
				c-5.196,8.776-19.567,33.743-29.304,50.694c-1.121,1.95-1.587,4.025-1.528,6.035l101.025,3.536
				C768.253,3217.958,769.413,3213.125,768.624,3208.064z"/>
			<path style="fill:#7D97F4;" d="M664.758,3218.385c0.169,5.771,4.742,11.005,11.196,11.183l71.973,1.98
				c7.605,0.21,14.189-3.742,17.857-9.627L664.758,3218.385z"/>
			
				<linearGradient id="SVGID_00000032613283285529066920000003302679345585558408_" gradientUnits="userSpaceOnUse" x1="376.7211" y1="-1151.7156" x2="901.3652" y2="-2005.9448" gradientTransform="matrix(-1 0 0 1 -352.4618 0)">
				<stop  offset="0" style="stop-color:#FE7062"/>
				<stop  offset="1" style="stop-color:#FF928E"/>
			</linearGradient>
			<path style="fill:url(#SVGID_00000032613283285529066920000003302679345585558408_);" d="M1365.493,1644.582
				c-64.422-16.876-183.254-43.303-277.853-37.663c-21.727,1.295-39.137,18.474-40.37,40.204
				c-14.29,251.943-33.818,475.515-70.592,605.596c82.659,32.709,164.605,47.882,245.45,36.003
				c60.565-129.727,113.517-279.491,158.761-449.571c0,0,26.544-135.656,0.769-180.872
				C1377.641,1651.229,1372.352,1646.379,1365.493,1644.582z"/>
			
				<linearGradient id="SVGID_00000131345463919628260570000003927532958594496415_" gradientUnits="userSpaceOnUse" x1="10619.5303" y1="1701.3553" x2="10647.2695" y2="1530.2974" gradientTransform="matrix(1 0 0 1 -9385.9043 0)">
				<stop  offset="0" style="stop-color:#FEBBBA"/>
				<stop  offset="1" style="stop-color:#FF928E"/>
			</linearGradient>
			<path style="fill:url(#SVGID_00000131345463919628260570000003927532958594496415_);" d="M1210.537,1468.095
				c0,0-16.267,97.052-21.117,141.933c-0.788,7.293,3.027,14.19,9.549,17.547c17.78,9.154,55.736,23.895,97.094,10.366
				c6.811-2.228,11.277-8.818,11.12-15.982l-2.836-129.565L1210.537,1468.095z"/>
			<g>
				
					<linearGradient id="SVGID_00000107553798659827134580000013704603622515207870_" gradientUnits="userSpaceOnUse" x1="10709.1182" y1="1424.0308" x2="10529.6865" y2="1561.3234" gradientTransform="matrix(1 0 0 1 -9385.9043 0)">
					<stop  offset="0" style="stop-color:#FEBBBA"/>
					<stop  offset="1" style="stop-color:#FF928E"/>
				</linearGradient>
				<path style="fill:url(#SVGID_00000107553798659827134580000013704603622515207870_);" d="M1316.635,1360.565
					c0,0,31.387,72.102,33.495,109.946c2.108,37.844,10.262,62.4-33.495,70.021c-43.758,7.621-80.62-14.178-100.59-51.875
					c0,0-31.289-58.087-24.27-81.875C1198.793,1382.994,1316.635,1360.565,1316.635,1360.565z"/>
				
					<linearGradient id="SVGID_00000084496019488808631140000002198057589138777018_" gradientUnits="userSpaceOnUse" x1="10574.1602" y1="1322.5656" x2="10736.6387" y2="1531.7556" gradientTransform="matrix(1 0 0 1 -9385.9043 0)">
					<stop  offset="0" style="stop-color:#09005D"/>
					<stop  offset="1" style="stop-color:#1A0F91"/>
				</linearGradient>
				<path style="fill:url(#SVGID_00000084496019488808631140000002198057589138777018_);" d="M1230.998,1461.554h5.532
					c0,0-22.793-46.751-2.766-54.964c20.026-8.213,81.319-8.118,98.434-36.266c16.5-27.136-27.081-43.804-49.098-53.613
					c-1.393-0.62,26.181-4.199,25.469-2.851l4.536-3.37c-1.249,2.364-15.717-8.838-16.46-11.406
					c-0.704-2.436-17.843-12.91-19.182-10.758c-5.239,8.418,16.733,19.29-21.317,26.312c-53.991,9.964-89.684,31.815-90.562,69.129
					c-0.056,2.364-2.583,3.667-4.601,2.436c-3.986-2.429,11.854-3.56,3.33,3.608c-6.094,5.125-9.968,11.113-10.891,19.084
					c-1.077,9.302,5.861,20.745,12.348,26.865c3.829,3.613,5.909,8.384,5.803,13.653c-0.109,5.411-3.253,9.775-3.897,15
					c-0.826,6.701,5.831,11.322,10.927,14.25c7.123,4.093,14.182,8.314,20.983,12.926c3.814,2.586,11.446,10.542,16.447,9.263
					c1.399-0.358,2.339-1.633,2.25-3.074l-2.043-33.067c-0.105-1.71,1.253-3.155,2.966-3.155H1230.998z"/>
				
					<linearGradient id="SVGID_00000130623277564107534060000015977647318482998961_" gradientUnits="userSpaceOnUse" x1="10686.8623" y1="1394.9431" x2="10507.4307" y2="1532.2358" gradientTransform="matrix(1 0 0 1 -9385.9043 0)">
					<stop  offset="0" style="stop-color:#FEBBBA"/>
					<stop  offset="1" style="stop-color:#FF928E"/>
				</linearGradient>
				<path style="fill:url(#SVGID_00000130623277564107534060000015977647318482998961_);" d="M1232.357,1468.472
					c0,0-11.974-46.057-32.624-33.143c-20.65,12.913,10.716,51.605,27.317,53.329L1232.357,1468.472z"/>
			</g>
			<g>
				
					<linearGradient id="SVGID_00000176729010446306694070000006113324509827200902_" gradientUnits="userSpaceOnUse" x1="-1702.9021" y1="-283.1498" x2="-1788.3909" y2="-665.3352" gradientTransform="matrix(-1 0 0 1 -352.4618 0)">
					<stop  offset="0" style="stop-color:#FEBBBA"/>
					<stop  offset="1" style="stop-color:#FF928E"/>
				</linearGradient>
				<path style="fill:url(#SVGID_00000176729010446306694070000006113324509827200902_);" d="M880.564,1980.134
					c-31.859,89.382-13.917,185.21-13.917,185.21l-41.994,11.199c0,0-54.252-64.526-41.84-207.711
					C821.575,1962.916,857.881,1972,880.564,1980.134z"/>
				
					<linearGradient id="SVGID_00000049191914021215287660000009119357556354442401_" gradientUnits="userSpaceOnUse" x1="484.5807" y1="-1085.4664" x2="1009.2261" y2="-1939.6976" gradientTransform="matrix(-1 0 0 1 -352.4618 0)">
					<stop  offset="0" style="stop-color:#FE7062"/>
					<stop  offset="1" style="stop-color:#FF928E"/>
				</linearGradient>
				<path style="fill:url(#SVGID_00000049191914021215287660000009119357556354442401_);" d="M782.813,1968.832
					c1.394-16.1,3.59-33.143,6.844-51.253c28.375-157.918,230.828-279.392,278.467-305.993c4.429-2.474,9.82,0.864,9.66,5.935
					l-6.766,214.67c-112.753,15.155-166.119,79.67-190.454,147.943C857.881,1972,821.575,1962.916,782.813,1968.832z"/>
			</g>
			
				<linearGradient id="SVGID_00000049916455638655140350000012607770510122290562_" gradientUnits="userSpaceOnUse" x1="-1798.7006" y1="1583.4268" x2="-1574.728" y2="2176.9548" gradientTransform="matrix(-0.9869 0.1614 0.1614 0.9869 -397.2046 575.3264)">
				<stop  offset="0" style="stop-color:#FEBBBA"/>
				<stop  offset="1" style="stop-color:#FF928E"/>
			</linearGradient>
			<path style="fill:url(#SVGID_00000049916455638655140350000012607770510122290562_);" d="M1642.673,1969.929
				c7.414-3.415,12.826-9.973,14.905-17.867c4.03-15.297,7.462-39.308-8.982-43.761c-24.489-6.632-58.983,42.627-58.983,42.627
				l-14.881,36.131l-17.045,12.037C1575.42,2000.99,1606.857,1987.858,1642.673,1969.929z"/>
			
				<linearGradient id="SVGID_00000046316104291108181010000015369209537191753355_" gradientUnits="userSpaceOnUse" x1="1287.8318" y1="1310.1788" x2="1583.7843" y2="220.5318">
				<stop  offset="0" style="stop-color:#FE7062"/>
				<stop  offset="1" style="stop-color:#FF928E"/>
			</linearGradient>
			<path style="fill:url(#SVGID_00000046316104291108181010000015369209537191753355_);" d="M1158.834,1425.05
				c25.663-7.004,51.313-14.102,76.9-21.393c43.677-12.447,88.084-23.443,131.206-37.696c9.18-3.034,18.348-5.953,27.619-8.691
				c5.559-1.641,12.465-4.427,16.214-9.062c4.081-5.045,2.36-12.677-4.666-12.929c-12.082-0.432-24.584,1.224-36.434,3.285
				c-3.414,0.594-37.179,6.962-37.088,7.589c-0.008-0.056-12.85-88.7-113.142-57.796
				C1098.605,1325.593,1143.825,1433.045,1158.834,1425.05z"/>
			
				<linearGradient id="SVGID_00000110463341087157769160000011529046045646951296_" gradientUnits="userSpaceOnUse" x1="793.3085" y1="3111.1184" x2="1196.1245" y2="1830.7371" gradientTransform="matrix(-1 0 0 1 1881.6967 0)">
				<stop  offset="0" style="stop-color:#09005D"/>
				<stop  offset="1" style="stop-color:#1A0F91"/>
			</linearGradient>
			<path style="fill:url(#SVGID_00000110463341087157769160000011529046045646951296_);" d="M1222.129,2291.354
				c-2.5,13.055-90.707,565.181-96.059,850.879c-0.09,4.79-3.375,8.808-7.796,9.469c-11.198,1.675-33.005,3.829-54.15-0.379
				c-2.896-0.576-5.078-3.135-5.26-6.289c-3.083-53.241-27.876-503.388,2.488-715.294c0,0-250.801,566.455-288.818,722.648
				c-0.925,3.801-4.175,6.356-7.83,6.149c-10.742-0.609-33.079-2.683-50.816-9.688c-6.357-2.511-9.978-9.681-8.373-16.745
				c21.24-93.475,170.096-737.493,271.164-879.387L1222.129,2291.354z"/>
			
				<linearGradient id="SVGID_00000047781667783449278590000007874572698640084363_" gradientUnits="userSpaceOnUse" x1="10591.4355" y1="2235.8091" x2="10360.9873" y2="2533.7451" gradientTransform="matrix(1 0 0 1 -9385.9043 0)">
				<stop  offset="0" style="stop-color:#5AB6FF"/>
				<stop  offset="1" style="stop-color:#2F68E3"/>
			</linearGradient>
			<path style="opacity:0.25;fill:url(#SVGID_00000047781667783449278590000007874572698640084363_);" d="M1061.352,2420.966
				c-0.83,0-1.661-0.312-2.302-0.939c-1.3-1.27-1.323-3.356-0.052-4.656l33.584-34.342c1.271-1.302,3.356-1.321,4.655-0.051
				c1.3,1.27,1.323,3.357,0.051,4.655l-33.584,34.342C1063.061,2420.635,1062.207,2420.966,1061.352,2420.966z"/>
			
				<linearGradient id="SVGID_00000183931194551948680310000007574330882448699319_" gradientUnits="userSpaceOnUse" x1="878.848" y1="1426.167" x2="649.2942" y2="2488.6765" gradientTransform="matrix(-1 0 0 1 1881.6967 0)">
				<stop  offset="0" style="stop-color:#09005D"/>
				<stop  offset="1" style="stop-color:#1A0F91"/>
			</linearGradient>
			<path style="fill:url(#SVGID_00000183931194551948680310000007574330882448699319_);" d="M1218.535,2297.232l91.726-217.227
				l15.192-245.109l-187.426-16.958c-41.111,73.19-83.635,140.461-129.592,193.35c-1.928,2.219-3.315,4.832-4.049,7.678
				l-58.646,227.348L1218.535,2297.232z"/>
			
				<linearGradient id="SVGID_00000091012465137848792490000005691107730515271350_" gradientUnits="userSpaceOnUse" x1="639.9146" y1="1363.7932" x2="404.4973" y2="2453.4419" gradientTransform="matrix(-1 0 0 1 1881.6967 0)">
				<stop  offset="0" style="stop-color:#09005D"/>
				<stop  offset="1" style="stop-color:#1A0F91"/>
			</linearGradient>
			<path style="fill:url(#SVGID_00000091012465137848792490000005691107730515271350_);" d="M1325.453,1834.896
				c19.873-57.514,26.659-117.332,40.04-190.314c-18.69-11.807-25.208-17.364-43.192-13.328
				c-12.267,73.196-25.107,142.508-41.2,206.352L1325.453,1834.896z"/>
			
				<linearGradient id="SVGID_00000105397719839397455030000004415186729761690279_" gradientUnits="userSpaceOnUse" x1="800.302" y1="1404.1617" x2="567.9182" y2="2479.77" gradientTransform="matrix(-1 0 0 1 1881.6967 0)">
				<stop  offset="0" style="stop-color:#09005D"/>
				<stop  offset="1" style="stop-color:#1A0F91"/>
			</linearGradient>
			<path style="fill:url(#SVGID_00000105397719839397455030000004415186729761690279_);" d="M1176.132,1821.609
				c-0.276-70.934-1.165-142.777-15.926-215.465c-23.303-4.277-33.354-6.096-49.326,0c17.858,77.438,18.078,153.572,27.148,222.95
				L1176.132,1821.609z"/>
			<g>
				<g>
					<path style="fill:#91B3FA;" d="M625.263,2304.663l1136.595-625.715l68.084,111.952L751.51,2512.254
						c-2.405,1.609-4.848,3.167-7.321,4.671l-37.358,22.719c-64.105,38.986-137.38,35.551-163.666-7.673l-31.251-51.387
						c-26.286-43.223,4.371-109.865,68.476-148.85l37.358-22.719C620.221,2307.511,622.729,2306.06,625.263,2304.663z
						 M596.515,2464.329c17.44,28.678,70.705,28.133,118.968-1.219s73.25-76.394,55.81-105.073
						c-17.441-28.678-70.704-28.131-118.968,1.22C604.062,2388.61,579.075,2435.651,596.515,2464.329z"/>
				</g>
				<path style="fill:#91B3FA;" d="M2106.012,1392.327l-216.765,131.826c-15.434,9.385-25.637,25.404-27.618,43.358l-10.157,92.038
					c-2.899,26.271,12.261,51.198,36.921,60.708l86.392,33.32c16.854,6.5,35.77,4.809,51.203-4.577l216.765-131.826
					c32.696-19.884,74.219,7.844,67.495,45.516c-16.087,90.122-70.615,174.281-156.862,226.733
					c-155.885,94.802-337.041,38.465-428.227-111.476c-91.187-149.941-57.874-336.707,98.011-431.508
					c86.247-52.451,186.057-62.153,273.477-34.978C2133.191,1322.818,2138.708,1372.442,2106.012,1392.327z"/>
				<path style="fill:#BDD0FB;" d="M2118.436,1412.755l-216.765,131.826c-15.434,9.386-25.637,25.404-27.618,43.359l-10.157,92.037
					c-2.899,26.271,12.261,51.198,36.92,60.709l86.392,33.319c16.854,6.5,35.77,4.809,51.203-4.577l216.765-131.826
					c32.696-19.884,74.22,7.844,67.496,45.516c-16.087,90.122-70.615,174.282-156.862,226.732
					c-155.885,94.802-337.041,38.465-428.228-111.475s-57.873-336.707,98.012-431.508c86.246-52.451,186.057-62.152,273.477-34.978
					C2145.614,1343.247,2151.132,1392.871,2118.436,1412.755z"/>
				<g>
					<path style="fill:#BDD0FB;" d="M635.174,2320.959l1136.595-625.715l68.084,111.952L761.42,2528.55
						c-2.405,1.609-4.847,3.167-7.321,4.671l-37.358,22.719c-64.105,38.985-137.38,35.55-163.666-7.673l-31.251-51.386
						c-26.286-43.224,4.371-109.865,68.477-148.851l37.358-22.719C630.132,2323.807,632.64,2322.356,635.174,2320.959z
						 M606.425,2480.625c17.441,28.678,70.704,28.133,118.968-1.219c48.264-29.352,73.251-76.394,55.81-105.073
						c-17.441-28.677-70.704-28.131-118.968,1.22C613.972,2404.906,588.985,2451.948,606.425,2480.625z"/>
				</g>
			</g>
			
				<linearGradient id="SVGID_00000035510926588087980900000008559983842699404207_" gradientUnits="userSpaceOnUse" x1="-1304.0725" y1="2089.0852" x2="-1049.1962" y2="2457.2393" gradientTransform="matrix(-1 0 0 1 -352.4618 0)">
				<stop  offset="0" style="stop-color:#FEBBBA"/>
				<stop  offset="1" style="stop-color:#FF928E"/>
			</linearGradient>
			<path style="fill:url(#SVGID_00000035510926588087980900000008559983842699404207_);" d="M863.845,2144.348h51.919
				c0,0-42.119,25.259-43.518,51.824c-1.4,26.565,16.721,81.59,25.196,96.569c9.269,16.382-117.567-24.393-72.79-148.393H863.845z"
				/>
		</g>
	</g>
</g>
</svg>
