<svg xmlns="http://www.w3.org/2000/svg" version="1.1" xmlns:xlink="http://www.w3.org/1999/xlink" xmlns:svgjs="http://svgjs.dev/svgjs" width="1440" height="560" preserveAspectRatio="none" viewBox="0 0 1440 560"><g mask="url(&quot;#SvgjsMask1000&quot;)" fill="none"><rect width="1440" height="560" x="0" y="0" fill="#0e2a47"></rect><path d="M-68.08 373.52L-68.08 373.52" stroke="#132e65" stroke-width="1.5"></path><path d="M-68.08 373.52L89.89 366.18" stroke="#132e65" stroke-width="1.5"></path><path d="M-68.08 373.52L-70.3 550.2" stroke="#132e65" stroke-width="1.5"></path><path d="M-68.08 373.52L52.34 538.04" stroke="#132e65" stroke-width="1.5"></path><path d="M-70.3 550.2L-70.3 550.2" stroke="#132e65" stroke-width="1.5"></path><path d="M-70.3 550.2L-57.37 642.79" stroke="#132e65" stroke-width="1.5"></path><path d="M-57.37 642.79L-57.37 642.79" stroke="#132e65" stroke-width="1.5"></path><path d="M-57.37 642.79L52.34 538.04" stroke="#132e65" stroke-width="1.5"></path><path d="M-57.37 642.79L99.12 696.04" stroke="#132e65" stroke-width="1.5"></path><path d="M-57.37 642.79L-68.08 373.52" stroke="#132e65" stroke-width="1.5"></path><path d="M-57.37 642.79L222.96 529.38" stroke="#132e65" stroke-width="1.5"></path><path d="M89.89 366.18L89.89 366.18" stroke="#132e65" stroke-width="1.5"></path><path d="M89.89 366.18L236.8 364.32" stroke="#132e65" stroke-width="1.5"></path><path d="M89.89 366.18L52.34 538.04" stroke="#132e65" stroke-width="1.5"></path><path d="M89.89 366.18L222.96 529.38" stroke="#132e65" stroke-width="1.5"></path><path d="M52.34 538.04L52.34 538.04" stroke="#132e65" stroke-width="1.5"></path><path d="M52.34 538.04L-70.3 550.2" stroke="#132e65" stroke-width="1.5"></path><path d="M52.34 538.04L99.12 696.04" stroke="#132e65" stroke-width="1.5"></path><path d="M52.34 538.04L222.96 529.38" stroke="#132e65" stroke-width="1.5"></path><path d="M99.12 696.04L99.12 696.04" stroke="#132e65" stroke-width="1.5"></path><path d="M99.12 696.04L222.96 529.38" stroke="#132e65" stroke-width="1.5"></path><path d="M99.12 696.04L-70.3 550.2" stroke="#132e65" stroke-width="1.5"></path><path d="M99.12 696.04L350.22 650.1" stroke="#132e65" stroke-width="1.5"></path><path d="M99.12 696.04L366.75 548.12" stroke="#132e65" stroke-width="1.5"></path><path d="M236.8 364.32L236.8 364.32" stroke="#132e65" stroke-width="1.5"></path><path d="M236.8 364.32L354.21 393.98" stroke="#132e65" stroke-width="1.5"></path><path d="M236.8 364.32L222.96 529.38" stroke="#132e65" stroke-width="1.5"></path><path d="M222.96 529.38L222.96 529.38" stroke="#132e65" stroke-width="1.5"></path><path d="M222.96 529.38L366.75 548.12" stroke="#132e65" stroke-width="1.5"></path><path d="M354.21 393.98L354.21 393.98" stroke="#132e65" stroke-width="1.5"></path><path d="M354.21 393.98L366.75 548.12" stroke="#132e65" stroke-width="1.5"></path><path d="M354.21 393.98L222.96 529.38" stroke="#132e65" stroke-width="1.5"></path><path d="M354.21 393.98L556.39 378.28" stroke="#132e65" stroke-width="1.5"></path><path d="M366.75 548.12L366.75 548.12" stroke="#132e65" stroke-width="1.5"></path><path d="M366.75 548.12L350.22 650.1" stroke="#132e65" stroke-width="1.5"></path><path d="M366.75 548.12L520.5 538.45" stroke="#132e65" stroke-width="1.5"></path><path d="M366.75 548.12L533.65 647.05" stroke="#132e65" stroke-width="1.5"></path><path d="M350.22 650.1L350.22 650.1" stroke="#132e65" stroke-width="1.5"></path><path d="M350.22 650.1L222.96 529.38" stroke="#132e65" stroke-width="1.5"></path><path d="M350.22 650.1L533.65 647.05" stroke="#132e65" stroke-width="1.5"></path><path d="M350.22 650.1L520.5 538.45" stroke="#132e65" stroke-width="1.5"></path><path d="M556.39 378.28L556.39 378.28" stroke="#132e65" stroke-width="1.5"></path><path d="M556.39 378.28L690.75 375.29" stroke="#132e65" stroke-width="1.5"></path><path d="M556.39 378.28L639.83 254.37" stroke="#132e65" stroke-width="1.5"></path><path d="M556.39 378.28L520.5 538.45" stroke="#132e65" stroke-width="1.5"></path><path d="M556.39 378.28L789.23 348.49" stroke="#132e65" stroke-width="1.5"></path><path d="M556.39 378.28L366.75 548.12" stroke="#132e65" stroke-width="1.5"></path><path d="M520.5 538.45L520.5 538.45" stroke="#132e65" stroke-width="1.5"></path><path d="M520.5 538.45L533.65 647.05" stroke="#132e65" stroke-width="1.5"></path><path d="M533.65 647.05L533.65 647.05" stroke="#132e65" stroke-width="1.5"></path><path d="M533.65 647.05L689.28 693.19" stroke="#132e65" stroke-width="1.5"></path><path d="M639.83 254.37L639.83 254.37" stroke="#132e65" stroke-width="1.5"></path><path d="M639.83 254.37L690.75 375.29" stroke="#132e65" stroke-width="1.5"></path><path d="M639.83 254.37L789.23 348.49" stroke="#132e65" stroke-width="1.5"></path><path d="M639.83 254.37L824.15 248.4" stroke="#132e65" stroke-width="1.5"></path><path d="M690.75 375.29L690.75 375.29" stroke="#132e65" stroke-width="1.5"></path><path d="M690.75 375.29L789.23 348.49" stroke="#132e65" stroke-width="1.5"></path><path d="M690.75 375.29L790.52 519.65" stroke="#132e65" stroke-width="1.5"></path><path d="M690.75 375.29L824.15 248.4" stroke="#132e65" stroke-width="1.5"></path><path d="M689.28 693.19L689.28 693.19" stroke="#132e65" stroke-width="1.5"></path><path d="M689.28 693.19L794.11 661" stroke="#132e65" stroke-width="1.5"></path><path d="M689.28 693.19L790.52 519.65" stroke="#132e65" stroke-width="1.5"></path><path d="M689.28 693.19L520.5 538.45" stroke="#132e65" stroke-width="1.5"></path><path d="M689.28 693.19L992.42 708.76" stroke="#132e65" stroke-width="1.5"></path><path d="M850.65 92.99L850.65 92.99" stroke="#132e65" stroke-width="1.5"></path><path d="M850.65 92.99L938.82 199.14" stroke="#132e65" stroke-width="1.5"></path><path d="M850.65 92.99L824.15 248.4" stroke="#132e65" stroke-width="1.5"></path><path d="M850.65 92.99L960.41 -81.19" stroke="#132e65" stroke-width="1.5"></path><path d="M824.15 248.4L824.15 248.4" stroke="#132e65" stroke-width="1.5"></path><path d="M824.15 248.4L789.23 348.49" stroke="#132e65" stroke-width="1.5"></path><path d="M824.15 248.4L938.82 199.14" stroke="#132e65" stroke-width="1.5"></path><path d="M789.23 348.49L789.23 348.49" stroke="#132e65" stroke-width="1.5"></path><path d="M789.23 348.49L951.85 367.53" stroke="#132e65" stroke-width="1.5"></path><path d="M790.52 519.65L790.52 519.65" stroke="#132e65" stroke-width="1.5"></path><path d="M790.52 519.65L794.11 661" stroke="#132e65" stroke-width="1.5"></path><path d="M790.52 519.65L789.23 348.49" stroke="#132e65" stroke-width="1.5"></path><path d="M790.52 519.65L1008.57 528.43" stroke="#132e65" stroke-width="1.5"></path><path d="M794.11 661L794.11 661" stroke="#132e65" stroke-width="1.5"></path><path d="M794.11 661L992.42 708.76" stroke="#132e65" stroke-width="1.5"></path><path d="M794.11 661L1008.57 528.43" stroke="#132e65" stroke-width="1.5"></path><path d="M960.41 -81.19L960.41 -81.19" stroke="#132e65" stroke-width="1.5"></path><path d="M960.41 -81.19L1115.56 -50.61" stroke="#132e65" stroke-width="1.5"></path><path d="M960.41 -81.19L1134.76 75.01" stroke="#132e65" stroke-width="1.5"></path><path d="M960.41 -81.19L938.82 199.14" stroke="#132e65" stroke-width="1.5"></path><path d="M938.82 199.14L938.82 199.14" stroke="#132e65" stroke-width="1.5"></path><path d="M938.82 199.14L951.85 367.53" stroke="#132e65" stroke-width="1.5"></path><path d="M951.85 367.53L951.85 367.53" stroke="#132e65" stroke-width="1.5"></path><path d="M951.85 367.53L1106.06 376.21" stroke="#132e65" stroke-width="1.5"></path><path d="M1008.57 528.43L1008.57 528.43" stroke="#132e65" stroke-width="1.5"></path><path d="M1008.57 528.43L1129.67 503.03" stroke="#132e65" stroke-width="1.5"></path><path d="M1008.57 528.43L1119.89 650.11" stroke="#132e65" stroke-width="1.5"></path><path d="M1008.57 528.43L951.85 367.53" stroke="#132e65" stroke-width="1.5"></path><path d="M992.42 708.76L992.42 708.76" stroke="#132e65" stroke-width="1.5"></path><path d="M992.42 708.76L1119.89 650.11" stroke="#132e65" stroke-width="1.5"></path><path d="M992.42 708.76L1008.57 528.43" stroke="#132e65" stroke-width="1.5"></path><path d="M992.42 708.76L1129.67 503.03" stroke="#132e65" stroke-width="1.5"></path><path d="M1115.56 -50.61L1115.56 -50.61" stroke="#132e65" stroke-width="1.5"></path><path d="M1115.56 -50.61L1134.76 75.01" stroke="#132e65" stroke-width="1.5"></path><path d="M1134.76 75.01L1134.76 75.01" stroke="#132e65" stroke-width="1.5"></path><path d="M1134.76 75.01L1158.58 225.4" stroke="#132e65" stroke-width="1.5"></path><path d="M1134.76 75.01L1304.14 99.34" stroke="#132e65" stroke-width="1.5"></path><path d="M1158.58 225.4L1158.58 225.4" stroke="#132e65" stroke-width="1.5"></path><path d="M1158.58 225.4L1248.87 243.38" stroke="#132e65" stroke-width="1.5"></path><path d="M1158.58 225.4L1106.06 376.21" stroke="#132e65" stroke-width="1.5"></path><path d="M1158.58 225.4L1304.14 99.34" stroke="#132e65" stroke-width="1.5"></path><path d="M1158.58 225.4L1244.47 406.1" stroke="#132e65" stroke-width="1.5"></path><path d="M1106.06 376.21L1106.06 376.21" stroke="#132e65" stroke-width="1.5"></path><path d="M1106.06 376.21L1129.67 503.03" stroke="#132e65" stroke-width="1.5"></path><path d="M1106.06 376.21L1244.47 406.1" stroke="#132e65" stroke-width="1.5"></path><path d="M1129.67 503.03L1129.67 503.03" stroke="#132e65" stroke-width="1.5"></path><path d="M1119.89 650.11L1119.89 650.11" stroke="#132e65" stroke-width="1.5"></path><path d="M1119.89 650.11L1257.46 694.12" stroke="#132e65" stroke-width="1.5"></path><path d="M1119.89 650.11L1129.67 503.03" stroke="#132e65" stroke-width="1.5"></path><path d="M1304.14 99.34L1304.14 99.34" stroke="#132e65" stroke-width="1.5"></path><path d="M1304.14 99.34L1248.87 243.38" stroke="#132e65" stroke-width="1.5"></path><path d="M1304.14 99.34L1457.15 79.32" stroke="#132e65" stroke-width="1.5"></path><path d="M1304.14 99.34L1457.95 262.08" stroke="#132e65" stroke-width="1.5"></path><path d="M1248.87 243.38L1248.87 243.38" stroke="#132e65" stroke-width="1.5"></path><path d="M1248.87 243.38L1244.47 406.1" stroke="#132e65" stroke-width="1.5"></path><path d="M1248.87 243.38L1106.06 376.21" stroke="#132e65" stroke-width="1.5"></path><path d="M1248.87 243.38L1134.76 75.01" stroke="#132e65" stroke-width="1.5"></path><path d="M1248.87 243.38L1457.95 262.08" stroke="#132e65" stroke-width="1.5"></path><path d="M1244.47 406.1L1244.47 406.1" stroke="#132e65" stroke-width="1.5"></path><path d="M1244.47 406.1L1263.97 491.19" stroke="#132e65" stroke-width="1.5"></path><path d="M1244.47 406.1L1129.67 503.03" stroke="#132e65" stroke-width="1.5"></path><path d="M1263.97 491.19L1263.97 491.19" stroke="#132e65" stroke-width="1.5"></path><path d="M1263.97 491.19L1129.67 503.03" stroke="#132e65" stroke-width="1.5"></path><path d="M1263.97 491.19L1106.06 376.21" stroke="#132e65" stroke-width="1.5"></path><path d="M1263.97 491.19L1257.46 694.12" stroke="#132e65" stroke-width="1.5"></path><path d="M1257.46 694.12L1257.46 694.12" stroke="#132e65" stroke-width="1.5"></path><path d="M1257.46 694.12L1437.25 711.32" stroke="#132e65" stroke-width="1.5"></path><path d="M1450.26 -95.78L1450.26 -95.78" stroke="#132e65" stroke-width="1.5"></path><path d="M1450.26 -95.78L1559.14 -101.99" stroke="#132e65" stroke-width="1.5"></path><path d="M1450.26 -95.78L1457.15 79.32" stroke="#132e65" stroke-width="1.5"></path><path d="M1450.26 -95.78L1304.14 99.34" stroke="#132e65" stroke-width="1.5"></path><path d="M1450.26 -95.78L1600.43 99.83" stroke="#132e65" stroke-width="1.5"></path><path d="M1450.26 -95.78L1599.09 192.95" stroke="#132e65" stroke-width="1.5"></path><path d="M1450.26 -95.78L1115.56 -50.61" stroke="#132e65" stroke-width="1.5"></path><path d="M1457.15 79.32L1457.15 79.32" stroke="#132e65" stroke-width="1.5"></path><path d="M1457.15 79.32L1600.43 99.83" stroke="#132e65" stroke-width="1.5"></path><path d="M1457.95 262.08L1457.95 262.08" stroke="#132e65" stroke-width="1.5"></path><path d="M1457.95 262.08L1446.13 394.68" stroke="#132e65" stroke-width="1.5"></path><path d="M1457.95 262.08L1570.64 345.87" stroke="#132e65" stroke-width="1.5"></path><path d="M1446.13 394.68L1446.13 394.68" stroke="#132e65" stroke-width="1.5"></path><path d="M1437.25 711.32L1437.25 711.32" stroke="#132e65" stroke-width="1.5"></path><path d="M1437.25 711.32L1565.67 665.47" stroke="#132e65" stroke-width="1.5"></path><path d="M1437.25 711.32L1582.34 554.58" stroke="#132e65" stroke-width="1.5"></path><path d="M1559.14 -101.99L1559.14 -101.99" stroke="#132e65" stroke-width="1.5"></path><path d="M1559.14 -101.99L1600.43 99.83" stroke="#132e65" stroke-width="1.5"></path><path d="M1600.43 99.83L1600.43 99.83" stroke="#132e65" stroke-width="1.5"></path><path d="M1600.43 99.83L1599.09 192.95" stroke="#132e65" stroke-width="1.5"></path><path d="M1599.09 192.95L1599.09 192.95" stroke="#132e65" stroke-width="1.5"></path><path d="M1599.09 192.95L1570.64 345.87" stroke="#132e65" stroke-width="1.5"></path><path d="M1570.64 345.87L1570.64 345.87" stroke="#132e65" stroke-width="1.5"></path><path d="M1570.64 345.87L1446.13 394.68" stroke="#132e65" stroke-width="1.5"></path><path d="M1570.64 345.87L1582.34 554.58" stroke="#132e65" stroke-width="1.5"></path><path d="M1570.64 345.87L1600.43 99.83" stroke="#132e65" stroke-width="1.5"></path><path d="M1570.64 345.87L1457.15 79.32" stroke="#132e65" stroke-width="1.5"></path><path d="M1582.34 554.58L1582.34 554.58" stroke="#132e65" stroke-width="1.5"></path><path d="M1582.34 554.58L1565.67 665.47" stroke="#132e65" stroke-width="1.5"></path><path d="M1582.34 554.58L1446.13 394.68" stroke="#132e65" stroke-width="1.5"></path><path d="M1582.34 554.58L1457.95 262.08" stroke="#132e65" stroke-width="1.5"></path><path d="M1582.34 554.58L1263.97 491.19" stroke="#132e65" stroke-width="1.5"></path><path d="M1565.67 665.47L1565.67 665.47" stroke="#132e65" stroke-width="1.5"></path><path d="M1565.67 665.47L1446.13 394.68" stroke="#132e65" stroke-width="1.5"></path><path d="M1565.67 665.47L1257.46 694.12" stroke="#132e65" stroke-width="1.5"></path><path d="M1565.67 665.47L1570.64 345.87" stroke="#132e65" stroke-width="1.5"></path><circle r="5" cx="-68.08" cy="373.52" fill="#132e65"></circle><circle r="5" cx="-70.3" cy="550.2" fill="#132e65"></circle><circle r="5" cx="-57.37" cy="642.79" fill="#132e65"></circle><circle r="5" cx="89.89" cy="366.18" fill="#132e65"></circle><circle r="5" cx="52.34" cy="538.04" fill="#132e65"></circle><circle r="5" cx="99.12" cy="696.04" fill="#132e65"></circle><circle r="5" cx="236.8" cy="364.32" fill="#132e65"></circle><circle r="5" cx="222.96" cy="529.38" fill="#132e65"></circle><circle r="5" cx="354.21" cy="393.98" fill="#132e65"></circle><circle r="5" cx="366.75" cy="548.12" fill="#132e65"></circle><circle r="5" cx="350.22" cy="650.1" fill="#132e65"></circle><circle r="5" cx="556.39" cy="378.28" fill="#132e65"></circle><circle r="5" cx="520.5" cy="538.45" fill="#132e65"></circle><circle r="5" cx="533.65" cy="647.05" fill="#132e65"></circle><circle r="5" cx="639.83" cy="254.37" fill="#132e65"></circle><circle r="5" cx="690.75" cy="375.29" fill="#132e65"></circle><circle r="5" cx="689.28" cy="693.19" fill="#132e65"></circle><circle r="5" cx="850.65" cy="92.99" fill="#132e65"></circle><circle r="5" cx="824.15" cy="248.4" fill="#132e65"></circle><circle r="5" cx="789.23" cy="348.49" fill="#132e65"></circle><circle r="5" cx="790.52" cy="519.65" fill="#132e65"></circle><circle r="5" cx="794.11" cy="661" fill="#132e65"></circle><circle r="5" cx="960.41" cy="-81.19" fill="#132e65"></circle><circle r="5" cx="938.82" cy="199.14" fill="#132e65"></circle><circle r="5" cx="951.85" cy="367.53" fill="#132e65"></circle><circle r="5" cx="1008.57" cy="528.43" fill="#132e65"></circle><circle r="5" cx="992.42" cy="708.76" fill="#132e65"></circle><circle r="5" cx="1115.56" cy="-50.61" fill="#132e65"></circle><circle r="5" cx="1134.76" cy="75.01" fill="#132e65"></circle><circle r="5" cx="1158.58" cy="225.4" fill="#132e65"></circle><circle r="5" cx="1106.06" cy="376.21" fill="#132e65"></circle><circle r="5" cx="1129.67" cy="503.03" fill="#132e65"></circle><circle r="5" cx="1119.89" cy="650.11" fill="#132e65"></circle><circle r="5" cx="1304.14" cy="99.34" fill="#132e65"></circle><circle r="5" cx="1248.87" cy="243.38" fill="#132e65"></circle><circle r="5" cx="1244.47" cy="406.1" fill="#132e65"></circle><circle r="5" cx="1263.97" cy="491.19" fill="#132e65"></circle><circle r="5" cx="1257.46" cy="694.12" fill="#132e65"></circle><circle r="5" cx="1450.26" cy="-95.78" fill="#132e65"></circle><circle r="5" cx="1457.15" cy="79.32" fill="#132e65"></circle><circle r="5" cx="1457.95" cy="262.08" fill="#132e65"></circle><circle r="5" cx="1446.13" cy="394.68" fill="#132e65"></circle><circle r="5" cx="1437.25" cy="711.32" fill="#132e65"></circle><circle r="5" cx="1559.14" cy="-101.99" fill="#132e65"></circle><circle r="5" cx="1600.43" cy="99.83" fill="#132e65"></circle><circle r="5" cx="1599.09" cy="192.95" fill="#132e65"></circle><circle r="5" cx="1570.64" cy="345.87" fill="#132e65"></circle><circle r="5" cx="1582.34" cy="554.58" fill="#132e65"></circle><circle r="5" cx="1565.67" cy="665.47" fill="#132e65"></circle><path d="M343.64 530.05L343.64 530.05" stroke="hsl(228.5, 77.2%, 51.5%)" stroke-width="1.5"></path><path d="M343.64 530.05L255.05 490.05" stroke="hsl(228.5, 77.2%, 51.5%)" stroke-width="1.5"></path><path d="M343.64 530.05L403.58 663.28" stroke="hsl(228.5, 77.2%, 51.5%)" stroke-width="1.5"></path><path d="M343.64 530.05L545.09 542.79" stroke="hsl(228.5, 77.2%, 51.5%)" stroke-width="1.5"></path><path d="M343.64 530.05L197.82 690.65" stroke="hsl(228.5, 77.2%, 51.5%)" stroke-width="1.5"></path><path d="M343.64 530.05L518.91 677.06" stroke="hsl(228.5, 77.2%, 51.5%)" stroke-width="1.5"></path><path d="M403.58 663.28L403.58 663.28" stroke="hsl(228.5, 77.2%, 51.5%)" stroke-width="1.5"></path><path d="M403.58 663.28L518.91 677.06" stroke="hsl(228.5, 77.2%, 51.5%)" stroke-width="1.5"></path><path d="M403.58 663.28L545.09 542.79" stroke="hsl(228.5, 77.2%, 51.5%)" stroke-width="1.5"></path><path d="M403.58 663.28L197.82 690.65" stroke="hsl(228.5, 77.2%, 51.5%)" stroke-width="1.5"></path><path d="M403.58 663.28L255.05 490.05" stroke="hsl(228.5, 77.2%, 51.5%)" stroke-width="1.5"></path><path d="M403.58 663.28L705.62 706.67" stroke="hsl(228.5, 77.2%, 51.5%)" stroke-width="1.5"></path><path d="M708.29 518.28L708.29 518.28" stroke="hsl(228.5, 77.2%, 51.5%)" stroke-width="1.5"></path><path d="M708.29 518.28L787.74 494.67" stroke="hsl(228.5, 77.2%, 51.5%)" stroke-width="1.5"></path><path d="M708.29 518.28L792.43 405.3" stroke="hsl(228.5, 77.2%, 51.5%)" stroke-width="1.5"></path><path d="M708.29 518.28L698.79 370.51" stroke="hsl(228.5, 77.2%, 51.5%)" stroke-width="1.5"></path><path d="M708.29 518.28L545.09 542.79" stroke="hsl(228.5, 77.2%, 51.5%)" stroke-width="1.5"></path><path d="M705.62 706.67L705.62 706.67" stroke="hsl(228.5, 77.2%, 51.5%)" stroke-width="1.5"></path><path d="M705.62 706.67L854.68 649.07" stroke="hsl(228.5, 77.2%, 51.5%)" stroke-width="1.5"></path><path d="M705.62 706.67L708.29 518.28" stroke="hsl(228.5, 77.2%, 51.5%)" stroke-width="1.5"></path><path d="M705.62 706.67L518.91 677.06" stroke="hsl(228.5, 77.2%, 51.5%)" stroke-width="1.5"></path><path d="M705.62 706.67L787.74 494.67" stroke="hsl(228.5, 77.2%, 51.5%)" stroke-width="1.5"></path><path d="M1117.43 361.43L1117.43 361.43" stroke="hsl(228.5, 77.2%, 51.5%)" stroke-width="1.5"></path><path d="M1117.43 361.43L1009.96 399.23" stroke="hsl(228.5, 77.2%, 51.5%)" stroke-width="1.5"></path><path d="M1117.43 361.43L1153.07 507.05" stroke="hsl(228.5, 77.2%, 51.5%)" stroke-width="1.5"></path><path d="M1117.43 361.43L1275.46 356.27" stroke="hsl(228.5, 77.2%, 51.5%)" stroke-width="1.5"></path><path d="M1117.43 361.43L1292.35 253.78" stroke="hsl(228.5, 77.2%, 51.5%)" stroke-width="1.5"></path><path d="M1148.45 700.89L1148.45 700.89" stroke="hsl(228.5, 77.2%, 51.5%)" stroke-width="1.5"></path><path d="M1148.45 700.89L1153.07 507.05" stroke="hsl(228.5, 77.2%, 51.5%)" stroke-width="1.5"></path><path d="M1148.45 700.89L1393.1 672.87" stroke="hsl(228.5, 77.2%, 51.5%)" stroke-width="1.5"></path><path d="M-40.4 527.06L-40.4 527.06" stroke="hsl(228.5, 77.2%, 51.5%)" stroke-width="1.5"></path><path d="M-40.4 527.06L52.79 518.56" stroke="hsl(228.5, 77.2%, 51.5%)" stroke-width="1.5"></path><path d="M-40.4 527.06L-86.34 687.64" stroke="hsl(228.5, 77.2%, 51.5%)" stroke-width="1.5"></path><path d="M-86.34 687.64L-86.34 687.64" stroke="hsl(228.5, 77.2%, 51.5%)" stroke-width="1.5"></path><path d="M-86.34 687.64L94.11 681.53" stroke="hsl(228.5, 77.2%, 51.5%)" stroke-width="1.5"></path><path d="M-86.34 687.64L52.79 518.56" stroke="hsl(228.5, 77.2%, 51.5%)" stroke-width="1.5"></path><path d="M-86.34 687.64L197.82 690.65" stroke="hsl(228.5, 77.2%, 51.5%)" stroke-width="1.5"></path><path d="M52.79 518.56L52.79 518.56" stroke="hsl(228.5, 77.2%, 51.5%)" stroke-width="1.5"></path><path d="M52.79 518.56L94.11 681.53" stroke="hsl(228.5, 77.2%, 51.5%)" stroke-width="1.5"></path><path d="M52.79 518.56L255.05 490.05" stroke="hsl(228.5, 77.2%, 51.5%)" stroke-width="1.5"></path><path d="M52.79 518.56L197.82 690.65" stroke="hsl(228.5, 77.2%, 51.5%)" stroke-width="1.5"></path><path d="M52.79 518.56L343.64 530.05" stroke="hsl(228.5, 77.2%, 51.5%)" stroke-width="1.5"></path><path d="M94.11 681.53L94.11 681.53" stroke="hsl(228.5, 77.2%, 51.5%)" stroke-width="1.5"></path><path d="M94.11 681.53L197.82 690.65" stroke="hsl(228.5, 77.2%, 51.5%)" stroke-width="1.5"></path><path d="M255.05 490.05L255.05 490.05" stroke="hsl(228.5, 77.2%, 51.5%)" stroke-width="1.5"></path><path d="M255.05 490.05L197.82 690.65" stroke="hsl(228.5, 77.2%, 51.5%)" stroke-width="1.5"></path><path d="M197.82 690.65L197.82 690.65" stroke="hsl(228.5, 77.2%, 51.5%)" stroke-width="1.5"></path><path d="M545.09 542.79L545.09 542.79" stroke="hsl(228.5, 77.2%, 51.5%)" stroke-width="1.5"></path><path d="M545.09 542.79L518.91 677.06" stroke="hsl(228.5, 77.2%, 51.5%)" stroke-width="1.5"></path><path d="M518.91 677.06L518.91 677.06" stroke="hsl(228.5, 77.2%, 51.5%)" stroke-width="1.5"></path><path d="M518.91 677.06L708.29 518.28" stroke="hsl(228.5, 77.2%, 51.5%)" stroke-width="1.5"></path><path d="M698.79 370.51L698.79 370.51" stroke="hsl(228.5, 77.2%, 51.5%)" stroke-width="1.5"></path><path d="M698.79 370.51L792.43 405.3" stroke="hsl(228.5, 77.2%, 51.5%)" stroke-width="1.5"></path><path d="M698.79 370.51L787.74 494.67" stroke="hsl(228.5, 77.2%, 51.5%)" stroke-width="1.5"></path><path d="M698.79 370.51L545.09 542.79" stroke="hsl(228.5, 77.2%, 51.5%)" stroke-width="1.5"></path><path d="M698.79 370.51L1009.96 399.23" stroke="hsl(228.5, 77.2%, 51.5%)" stroke-width="1.5"></path><path d="M698.79 370.51L854.68 649.07" stroke="hsl(228.5, 77.2%, 51.5%)" stroke-width="1.5"></path><path d="M792.43 405.3L792.43 405.3" stroke="hsl(228.5, 77.2%, 51.5%)" stroke-width="1.5"></path><path d="M792.43 405.3L787.74 494.67" stroke="hsl(228.5, 77.2%, 51.5%)" stroke-width="1.5"></path><path d="M792.43 405.3L1009.96 399.23" stroke="hsl(228.5, 77.2%, 51.5%)" stroke-width="1.5"></path><path d="M787.74 494.67L787.74 494.67" stroke="hsl(228.5, 77.2%, 51.5%)" stroke-width="1.5"></path><path d="M787.74 494.67L854.68 649.07" stroke="hsl(228.5, 77.2%, 51.5%)" stroke-width="1.5"></path><path d="M854.68 649.07L854.68 649.07" stroke="hsl(228.5, 77.2%, 51.5%)" stroke-width="1.5"></path><path d="M1009.96 399.23L1009.96 399.23" stroke="hsl(228.5, 77.2%, 51.5%)" stroke-width="1.5"></path><path d="M1009.96 399.23L1153.07 507.05" stroke="hsl(228.5, 77.2%, 51.5%)" stroke-width="1.5"></path><path d="M1152.13 64.87L1152.13 64.87" stroke="hsl(228.5, 77.2%, 51.5%)" stroke-width="1.5"></path><path d="M1152.13 64.87L1241.99 62.97" stroke="hsl(228.5, 77.2%, 51.5%)" stroke-width="1.5"></path><path d="M1152.13 64.87L1240.51 -94.92" stroke="hsl(228.5, 77.2%, 51.5%)" stroke-width="1.5"></path><path d="M1152.13 64.87L1292.35 253.78" stroke="hsl(228.5, 77.2%, 51.5%)" stroke-width="1.5"></path><path d="M1152.13 64.87L1419.79 104.81" stroke="hsl(228.5, 77.2%, 51.5%)" stroke-width="1.5"></path><path d="M1152.13 64.87L1411.14 -59.36" stroke="hsl(228.5, 77.2%, 51.5%)" stroke-width="1.5"></path><path d="M1153.07 507.05L1153.07 507.05" stroke="hsl(228.5, 77.2%, 51.5%)" stroke-width="1.5"></path><path d="M1153.07 507.05L1311.7 495.77" stroke="hsl(228.5, 77.2%, 51.5%)" stroke-width="1.5"></path><path d="M1240.51 -94.92L1240.51 -94.92" stroke="hsl(228.5, 77.2%, 51.5%)" stroke-width="1.5"></path><path d="M1240.51 -94.92L1241.99 62.97" stroke="hsl(228.5, 77.2%, 51.5%)" stroke-width="1.5"></path><path d="M1240.51 -94.92L1411.14 -59.36" stroke="hsl(228.5, 77.2%, 51.5%)" stroke-width="1.5"></path><path d="M1241.99 62.97L1241.99 62.97" stroke="hsl(228.5, 77.2%, 51.5%)" stroke-width="1.5"></path><path d="M1241.99 62.97L1419.79 104.81" stroke="hsl(228.5, 77.2%, 51.5%)" stroke-width="1.5"></path><path d="M1241.99 62.97L1292.35 253.78" stroke="hsl(228.5, 77.2%, 51.5%)" stroke-width="1.5"></path><path d="M1241.99 62.97L1411.14 -59.36" stroke="hsl(228.5, 77.2%, 51.5%)" stroke-width="1.5"></path><path d="M1241.99 62.97L1397.1 257.3" stroke="hsl(228.5, 77.2%, 51.5%)" stroke-width="1.5"></path><path d="M1292.35 253.78L1292.35 253.78" stroke="hsl(228.5, 77.2%, 51.5%)" stroke-width="1.5"></path><path d="M1292.35 253.78L1275.46 356.27" stroke="hsl(228.5, 77.2%, 51.5%)" stroke-width="1.5"></path><path d="M1292.35 253.78L1397.1 257.3" stroke="hsl(228.5, 77.2%, 51.5%)" stroke-width="1.5"></path><path d="M1292.35 253.78L1391.01 349.24" stroke="hsl(228.5, 77.2%, 51.5%)" stroke-width="1.5"></path><path d="M1292.35 253.78L1419.79 104.81" stroke="hsl(228.5, 77.2%, 51.5%)" stroke-width="1.5"></path><path d="M1275.46 356.27L1275.46 356.27" stroke="hsl(228.5, 77.2%, 51.5%)" stroke-width="1.5"></path><path d="M1275.46 356.27L1391.01 349.24" stroke="hsl(228.5, 77.2%, 51.5%)" stroke-width="1.5"></path><path d="M1275.46 356.27L1311.7 495.77" stroke="hsl(228.5, 77.2%, 51.5%)" stroke-width="1.5"></path><path d="M1311.7 495.77L1311.7 495.77" stroke="hsl(228.5, 77.2%, 51.5%)" stroke-width="1.5"></path><path d="M1311.7 495.77L1402.57 553.81" stroke="hsl(228.5, 77.2%, 51.5%)" stroke-width="1.5"></path><path d="M1311.7 495.77L1391.01 349.24" stroke="hsl(228.5, 77.2%, 51.5%)" stroke-width="1.5"></path><path d="M1311.7 495.77L1393.1 672.87" stroke="hsl(228.5, 77.2%, 51.5%)" stroke-width="1.5"></path><path d="M1411.14 -59.36L1411.14 -59.36" stroke="hsl(228.5, 77.2%, 51.5%)" stroke-width="1.5"></path><path d="M1411.14 -59.36L1419.79 104.81" stroke="hsl(228.5, 77.2%, 51.5%)" stroke-width="1.5"></path><path d="M1419.79 104.81L1419.79 104.81" stroke="hsl(228.5, 77.2%, 51.5%)" stroke-width="1.5"></path><path d="M1419.79 104.81L1542.51 81.42" stroke="hsl(228.5, 77.2%, 51.5%)" stroke-width="1.5"></path><path d="M1419.79 104.81L1397.1 257.3" stroke="hsl(228.5, 77.2%, 51.5%)" stroke-width="1.5"></path><path d="M1397.1 257.3L1397.1 257.3" stroke="hsl(228.5, 77.2%, 51.5%)" stroke-width="1.5"></path><path d="M1397.1 257.3L1391.01 349.24" stroke="hsl(228.5, 77.2%, 51.5%)" stroke-width="1.5"></path><path d="M1397.1 257.3L1275.46 356.27" stroke="hsl(228.5, 77.2%, 51.5%)" stroke-width="1.5"></path><path d="M1397.1 257.3L1566.61 247" stroke="hsl(228.5, 77.2%, 51.5%)" stroke-width="1.5"></path><path d="M1397.1 257.3L1542.51 81.42" stroke="hsl(228.5, 77.2%, 51.5%)" stroke-width="1.5"></path><path d="M1391.01 349.24L1391.01 349.24" stroke="hsl(228.5, 77.2%, 51.5%)" stroke-width="1.5"></path><path d="M1402.57 553.81L1402.57 553.81" stroke="hsl(228.5, 77.2%, 51.5%)" stroke-width="1.5"></path><path d="M1402.57 553.81L1393.1 672.87" stroke="hsl(228.5, 77.2%, 51.5%)" stroke-width="1.5"></path><path d="M1393.1 672.87L1393.1 672.87" stroke="hsl(228.5, 77.2%, 51.5%)" stroke-width="1.5"></path><path d="M1393.1 672.87L1583.04 675.11" stroke="hsl(228.5, 77.2%, 51.5%)" stroke-width="1.5"></path><path d="M1601.11 -87.05L1601.11 -87.05" stroke="hsl(228.5, 77.2%, 51.5%)" stroke-width="1.5"></path><path d="M1601.11 -87.05L1542.51 81.42" stroke="hsl(228.5, 77.2%, 51.5%)" stroke-width="1.5"></path><path d="M1601.11 -87.05L1411.14 -59.36" stroke="hsl(228.5, 77.2%, 51.5%)" stroke-width="1.5"></path><path d="M1601.11 -87.05L1419.79 104.81" stroke="hsl(228.5, 77.2%, 51.5%)" stroke-width="1.5"></path><path d="M1601.11 -87.05L1566.61 247" stroke="hsl(228.5, 77.2%, 51.5%)" stroke-width="1.5"></path><path d="M1601.11 -87.05L1240.51 -94.92" stroke="hsl(228.5, 77.2%, 51.5%)" stroke-width="1.5"></path><path d="M1542.51 81.42L1542.51 81.42" stroke="hsl(228.5, 77.2%, 51.5%)" stroke-width="1.5"></path><path d="M1542.51 81.42L1566.61 247" stroke="hsl(228.5, 77.2%, 51.5%)" stroke-width="1.5"></path><path d="M1542.51 81.42L1411.14 -59.36" stroke="hsl(228.5, 77.2%, 51.5%)" stroke-width="1.5"></path><path d="M1566.61 247L1566.61 247" stroke="hsl(228.5, 77.2%, 51.5%)" stroke-width="1.5"></path><path d="M1566.61 247L1611.38 366.34" stroke="hsl(228.5, 77.2%, 51.5%)" stroke-width="1.5"></path><path d="M1611.38 366.34L1611.38 366.34" stroke="hsl(228.5, 77.2%, 51.5%)" stroke-width="1.5"></path><path d="M1611.38 366.34L1577.7 492.17" stroke="hsl(228.5, 77.2%, 51.5%)" stroke-width="1.5"></path><path d="M1611.38 366.34L1391.01 349.24" stroke="hsl(228.5, 77.2%, 51.5%)" stroke-width="1.5"></path><path d="M1611.38 366.34L1397.1 257.3" stroke="hsl(228.5, 77.2%, 51.5%)" stroke-width="1.5"></path><path d="M1611.38 366.34L1402.57 553.81" stroke="hsl(228.5, 77.2%, 51.5%)" stroke-width="1.5"></path><path d="M1611.38 366.34L1542.51 81.42" stroke="hsl(228.5, 77.2%, 51.5%)" stroke-width="1.5"></path><path d="M1577.7 492.17L1577.7 492.17" stroke="hsl(228.5, 77.2%, 51.5%)" stroke-width="1.5"></path><path d="M1577.7 492.17L1583.04 675.11" stroke="hsl(228.5, 77.2%, 51.5%)" stroke-width="1.5"></path><path d="M1577.7 492.17L1402.57 553.81" stroke="hsl(228.5, 77.2%, 51.5%)" stroke-width="1.5"></path><path d="M1577.7 492.17L1391.01 349.24" stroke="hsl(228.5, 77.2%, 51.5%)" stroke-width="1.5"></path><path d="M1577.7 492.17L1566.61 247" stroke="hsl(228.5, 77.2%, 51.5%)" stroke-width="1.5"></path><path d="M1583.04 675.11L1583.04 675.11" stroke="hsl(228.5, 77.2%, 51.5%)" stroke-width="1.5"></path><path d="M1583.04 675.11L1402.57 553.81" stroke="hsl(228.5, 77.2%, 51.5%)" stroke-width="1.5"></path><path d="M1583.04 675.11L1611.38 366.34" stroke="hsl(228.5, 77.2%, 51.5%)" stroke-width="1.5"></path><path d="M1583.04 675.11L1311.7 495.77" stroke="hsl(228.5, 77.2%, 51.5%)" stroke-width="1.5"></path><circle r="25" cx="343.64" cy="530.05" fill="url(&quot;#SvgjsRadialGradient1001&quot;)"></circle><circle r="25" cx="403.58" cy="663.28" fill="url(&quot;#SvgjsRadialGradient1001&quot;)"></circle><circle r="25" cx="708.29" cy="518.28" fill="url(&quot;#SvgjsRadialGradient1001&quot;)"></circle><circle r="25" cx="705.62" cy="706.67" fill="url(&quot;#SvgjsRadialGradient1001&quot;)"></circle><circle r="25" cx="1117.43" cy="361.43" fill="url(&quot;#SvgjsRadialGradient1001&quot;)"></circle><circle r="25" cx="1148.45" cy="700.89" fill="url(&quot;#SvgjsRadialGradient1001&quot;)"></circle><circle r="5" cx="-40.4" cy="527.06" fill="#8b9ad9"></circle><circle r="5" cx="-86.34" cy="687.64" fill="#8b9ad9"></circle><circle r="5" cx="52.79" cy="518.56" fill="#8b9ad9"></circle><circle r="5" cx="94.11" cy="681.53" fill="#8b9ad9"></circle><circle r="5" cx="255.05" cy="490.05" fill="#8b9ad9"></circle><circle r="5" cx="197.82" cy="690.65" fill="#8b9ad9"></circle><circle r="5" cx="545.09" cy="542.79" fill="#8b9ad9"></circle><circle r="5" cx="518.91" cy="677.06" fill="#8b9ad9"></circle><circle r="5" cx="698.79" cy="370.51" fill="#8b9ad9"></circle><circle r="5" cx="792.43" cy="405.3" fill="#8b9ad9"></circle><circle r="5" cx="787.74" cy="494.67" fill="#8b9ad9"></circle><circle r="5" cx="854.68" cy="649.07" fill="#8b9ad9"></circle><circle r="5" cx="1009.96" cy="399.23" fill="#8b9ad9"></circle><circle r="5" cx="1152.13" cy="64.87" fill="#8b9ad9"></circle><circle r="5" cx="1153.07" cy="507.05" fill="#8b9ad9"></circle><circle r="5" cx="1240.51" cy="-94.92" fill="#8b9ad9"></circle><circle r="5" cx="1241.99" cy="62.97" fill="#8b9ad9"></circle><circle r="5" cx="1292.35" cy="253.78" fill="#8b9ad9"></circle><circle r="5" cx="1275.46" cy="356.27" fill="#8b9ad9"></circle><circle r="5" cx="1311.7" cy="495.77" fill="#8b9ad9"></circle><circle r="5" cx="1411.14" cy="-59.36" fill="#8b9ad9"></circle><circle r="5" cx="1419.79" cy="104.81" fill="#8b9ad9"></circle><circle r="5" cx="1397.1" cy="257.3" fill="#8b9ad9"></circle><circle r="5" cx="1391.01" cy="349.24" fill="#8b9ad9"></circle><circle r="5" cx="1402.57" cy="553.81" fill="#8b9ad9"></circle><circle r="5" cx="1393.1" cy="672.87" fill="#8b9ad9"></circle><circle r="5" cx="1601.11" cy="-87.05" fill="#8b9ad9"></circle><circle r="5" cx="1542.51" cy="81.42" fill="#8b9ad9"></circle><circle r="5" cx="1566.61" cy="247" fill="#8b9ad9"></circle><circle r="5" cx="1611.38" cy="366.34" fill="#8b9ad9"></circle><circle r="5" cx="1577.7" cy="492.17" fill="#8b9ad9"></circle><circle r="5" cx="1583.04" cy="675.11" fill="#8b9ad9"></circle></g><defs><mask id="SvgjsMask1000"><rect width="1440" height="560" fill="#ffffff"></rect></mask><radialGradient id="SvgjsRadialGradient1001"><stop stop-color="#ffffff" offset="0.1"></stop><stop stop-color="#1735b3" offset="0.2"></stop><stop stop-color="rgba(23, 53, 179, 0)" offset="1"></stop></radialGradient></defs></svg>